<svg width="310" height="85" viewBox="0 0 310 85" fill="none" xmlns="http://www.w3.org/2000/svg">
<path d="M9.01008 67.1V76.66H10.4501V68.3H19.1701V76.66H20.6701V67.1H9.01008ZM4.99008 64.46V65.7H22.6501V64.46H4.99008ZM6.45008 61.78V62.98H21.4901V61.78H6.45008ZM9.99008 69.66V70.72H19.8101V69.66H9.99008ZM9.99008 72.14V73.18H19.8101V72.14H9.99008ZM9.85008 74.66V75.86H19.8101V74.66H9.85008ZM20.3301 58.36C17.1501 59.02 11.0501 59.3 6.17008 59.34C6.31008 59.66 6.45008 60.18 6.49008 60.52C11.4301 60.5 17.5701 60.2 21.2901 59.46L20.3301 58.36ZM12.1301 59.74C11.0701 64.16 8.73008 68.54 4.49008 70.98C4.79008 71.26 5.23008 71.82 5.43008 72.14C9.91008 69.48 12.3501 64.9 13.6901 60.06L12.1301 59.74ZM31.0101 67.1V76.66H32.4501V68.3H41.1701V76.66H42.6701V67.1H31.0101ZM26.9901 64.46V65.7H44.6501V64.46H26.9901ZM28.4501 61.78V62.98H43.4901V61.78H28.4501ZM31.9901 69.66V70.72H41.8101V69.66H31.9901ZM31.9901 72.14V73.18H41.8101V72.14H31.9901ZM31.8501 74.66V75.86H41.8101V74.66H31.8501ZM42.3301 58.36C39.1501 59.02 33.0501 59.3 28.1701 59.34C28.3101 59.66 28.4501 60.18 28.4901 60.52C33.4301 60.5 39.5701 60.2 43.2901 59.46L42.3301 58.36ZM34.1301 59.74C33.0701 64.16 30.7301 68.54 26.4901 70.98C26.7901 71.26 27.2301 71.82 27.4301 72.14C31.9101 69.48 34.3501 64.9 35.6901 60.06L34.1301 59.74ZM59.6901 60.62V71.7H61.1501V60.62H59.6901ZM64.5901 58.58V74.62C64.5901 75 64.4301 75.12 64.0501 75.12C63.6701 75.14 62.4301 75.16 60.9901 75.1C61.2301 75.54 61.4701 76.22 61.5501 76.62C63.3901 76.64 64.5101 76.6 65.1701 76.34C65.8101 76.1 66.0701 75.64 66.0701 74.62V58.58H64.5901ZM52.2701 67.84V69.18H57.0101V67.84H52.2701ZM56.3701 67.84V68.1C56.1701 72.88 55.9701 74.66 55.5901 75.08C55.4101 75.26 55.2301 75.3 54.8901 75.3C54.5301 75.3 53.5901 75.3 52.5901 75.2C52.8301 75.56 52.9901 76.12 53.0101 76.52C53.9901 76.58 54.9701 76.58 55.4901 76.54C56.0701 76.48 56.4501 76.36 56.7701 75.96C57.3301 75.32 57.5301 73.5 57.7501 68.48C57.7701 68.28 57.7701 67.84 57.7701 67.84H56.3701ZM51.0901 60.48H56.2101V64.32H51.0901V60.48ZM49.7301 59.14V65.7H57.6501V59.14H49.7301ZM51.9301 65.18C51.7501 68.94 51.3301 73.32 48.4901 75.62C48.8501 75.84 49.3101 76.3 49.5301 76.66C52.6101 74.08 53.1701 69.4 53.4101 65.18H51.9301ZM78.7901 58.82C78.6501 61.48 78.6501 71.1 70.4901 75.26C70.9501 75.6 71.4501 76.06 71.7101 76.44C79.9901 71.94 80.2901 61.96 80.4501 58.82H78.7901ZM80.3901 59.22L78.9501 59.36C79.0901 61.2 79.6501 72.38 88.1301 76.44C88.3701 76.02 88.8301 75.52 89.2701 75.18C81.0301 71.4 80.4501 60.78 80.3901 59.22ZM93.2701 61V62.46H110.53V61H93.2701ZM100.99 58.22V76.6H102.55V58.22H100.99ZM101.17 67.1C99.3701 70.14 95.9101 73.06 92.5701 74.42C92.9101 74.72 93.3901 75.32 93.6301 75.7C97.0101 74.12 100.47 71.02 102.43 67.6L101.17 67.1ZM102.47 67.14L101.21 67.66C103.15 71.08 106.55 74.2 109.99 75.74C110.25 75.32 110.73 74.72 111.11 74.4C107.65 73.08 104.23 70.2 102.47 67.14ZM95.9301 66.06C96.8901 66.9 98.0901 68.1 98.7101 68.82L99.7301 67.8C99.1101 67.08 97.8701 65.94 96.9301 65.14L95.9301 66.06ZM96.7701 62.94C96.1701 65.52 94.9101 67.7 93.0901 69.06C93.4501 69.3 94.0301 69.78 94.2701 70.04C96.1301 68.5 97.5301 66.12 98.2301 63.2L96.7701 62.94ZM105.55 66.1C106.91 67.2 108.71 68.74 109.57 69.7L110.63 68.66C109.73 67.74 107.89 66.24 106.55 65.22L105.55 66.1ZM106.25 62.94C105.81 65.18 104.85 67.14 103.39 68.36C103.75 68.54 104.39 68.96 104.67 69.2C106.09 67.8 107.17 65.7 107.69 63.18L106.25 62.94ZM123.07 62.96V69.3H124.49V62.96H123.07ZM123.07 70.12V75.42H124.49V70.12H123.07ZM117.55 69.48V76.56H118.97V70.6H128.77V76.5H130.25V69.48H117.55ZM115.03 65.64V66.92H132.61V65.64H115.03ZM118.37 72.16V73.16H129.47V72.16H118.37ZM118.37 74.8V75.92H129.47V74.8H118.37ZM128.83 61.76C126.25 62.22 121.59 62.48 117.81 62.56C117.95 62.86 118.11 63.34 118.15 63.64C121.95 63.62 126.69 63.32 129.65 62.84L128.83 61.76ZM122.17 65.88C120.49 67.68 117.21 69.38 114.39 70.16C114.71 70.44 115.15 70.98 115.35 71.34C118.15 70.4 121.49 68.5 123.31 66.44L122.17 65.88ZM125.37 65.86L124.27 66.36C126.05 68.44 129.27 70.24 132.21 71.06C132.43 70.7 132.83 70.16 133.15 69.88C130.19 69.2 126.97 67.64 125.37 65.86ZM118.11 63.94C118.53 64.58 118.93 65.44 119.07 66.02L120.45 65.64C120.29 65.06 119.85 64.24 119.39 63.64L118.11 63.94ZM128.17 63.4C127.93 64.06 127.45 65.06 127.07 65.68L128.23 66.1C128.65 65.52 129.17 64.68 129.67 63.84L128.17 63.4ZM123.07 58.22V60.72H124.57V58.22H123.07ZM115.37 59.8V63.4H116.77V61.1H130.83V63.4H132.31V59.8H115.37ZM144.51 65.06V66.54H155.25V65.06H144.51ZM149.21 58.26V76.6H150.73V58.26H149.21ZM137.53 64.26V65.46H143.77V64.26H137.53ZM137.65 58.92V60.12H143.79V58.92H137.65ZM137.53 66.94V68.14H143.77V66.94H137.53ZM136.59 61.54V62.78H144.55V61.54H136.59ZM138.23 69.64V70.88H142.37V74.22H138.23V75.48H143.71V69.64H138.23ZM137.51 69.64V76.4H138.85V69.64H137.51ZM169.57 64.96V66.36H177.01V64.96H169.57ZM159.05 60.3V61.58H167.87V60.3H159.05ZM158.83 68.24V69.54H167.97V68.24H158.83ZM158.77 64.88V66.16H168.11V64.88H158.77ZM173.29 65.52V76.5H174.75V65.52H173.29ZM162.75 58.28V60.96H164.21V58.28H162.75ZM162.75 65.92V76.58H164.21V65.92H162.75ZM168.85 59.84V66.84C168.85 69.68 168.57 73.14 166.01 75.66C166.37 75.86 166.91 76.36 167.09 76.7C169.91 73.92 170.27 69.86 170.27 66.86V60.68C170.55 60.64 170.67 60.56 170.69 60.4L168.85 59.84ZM175.55 58.44C174.09 59.16 171.45 59.86 169.21 60.34C169.39 60.64 169.59 61.16 169.67 61.48C172.07 61.06 174.87 60.38 176.75 59.54L175.55 58.44ZM164.07 69.92L163.25 70.6C163.99 71.22 165.87 72.98 166.51 73.72L167.39 72.6C166.89 72.14 164.71 70.36 164.07 69.92ZM160.25 61.94C160.65 62.86 160.97 64.06 161.03 64.84L162.29 64.5C162.19 63.74 161.85 62.56 161.43 61.68L160.25 61.94ZM165.37 61.64C165.15 62.48 164.73 63.72 164.37 64.52L165.57 64.8C165.93 64.06 166.35 62.94 166.73 61.94L165.37 61.64ZM162.77 68.9C161.81 70.86 159.99 73.02 158.37 74.08C158.71 74.32 159.15 74.8 159.39 75.14C160.99 73.9 162.83 71.54 163.85 69.32L162.77 68.9ZM189.47 62.48V63.92H199.13V62.48H189.47ZM195.45 58.22V74.56C195.45 74.92 195.33 75.04 194.95 75.04C194.55 75.06 193.31 75.06 191.93 75.02C192.17 75.48 192.41 76.18 192.49 76.6C194.21 76.62 195.39 76.56 196.05 76.32C196.71 76.06 196.97 75.6 196.97 74.54V58.22H195.45ZM189.91 66.58C190.97 68.1 192.05 70.16 192.45 71.46L193.79 70.76C193.39 69.46 192.25 67.46 191.15 65.98L189.91 66.58ZM180.87 62.5V63.94H188.89V62.5H180.87ZM184.41 58.2V76.58H185.87V58.2H184.41ZM184.33 63.38C183.63 66.32 182.01 69.72 180.39 71.52C180.65 71.88 181.05 72.48 181.21 72.9C182.91 70.9 184.55 67 185.35 63.74L184.33 63.38ZM185.77 65.66L184.97 66.44C185.67 67.24 187.43 69.4 188.01 70.36L188.99 69.1C188.51 68.54 186.39 66.22 185.77 65.66ZM202.77 59.74V61.16H209.47V59.74H202.77ZM203.05 65.6V67H209.17V65.6H203.05ZM202.49 72.76L202.83 74.2C204.77 73.68 207.41 72.94 209.89 72.22L209.73 70.9C207.05 71.6 204.29 72.32 202.49 72.76ZM210.47 59.6V61.04H219.93V59.6H210.47ZM209.57 65.4V66.84H220.99V65.4H209.57ZM212.29 66.3C212.13 71.1 211.67 74 207.45 75.52C207.77 75.78 208.17 76.3 208.33 76.64C212.89 74.92 213.55 71.6 213.77 66.3H212.29ZM215.99 66.28V74.42C215.99 76.02 216.35 76.48 217.77 76.48C218.05 76.48 219.23 76.48 219.51 76.48C220.77 76.48 221.15 75.72 221.27 72.96C220.87 72.86 220.23 72.6 219.93 72.32C219.87 74.68 219.79 75.06 219.37 75.06C219.11 75.06 218.17 75.06 217.99 75.06C217.55 75.06 217.49 74.98 217.49 74.42V66.28H215.99ZM205.39 60.3V72.74L206.85 72.46V60.3H205.39ZM233.45 62.66H240.07V64.3H233.45V62.66ZM233.45 59.96H240.07V61.58H233.45V59.96ZM232.01 58.82V65.44H241.57V58.82H232.01ZM230.77 66.82V68.08H242.53V66.82H230.77ZM230.31 69.8V71.12H242.89V69.8H230.31ZM238.39 67.92V74.92C238.39 75.18 238.31 75.26 237.99 75.28C237.69 75.3 236.69 75.3 235.55 75.26C235.75 75.66 235.99 76.22 236.05 76.62C237.55 76.62 238.51 76.62 239.11 76.38C239.71 76.16 239.89 75.76 239.89 74.96V67.92H238.39ZM232.05 72.14C232.95 73.02 234.03 74.26 234.51 75.06L235.65 74.22C235.13 73.44 234.03 72.26 233.11 71.42L232.05 72.14ZM229.21 62.66C228.01 64.74 226.07 66.8 224.25 68.12C224.51 68.46 224.93 69.26 225.05 69.56C227.03 68 229.17 65.58 230.53 63.2L229.21 62.66ZM228.83 58.26C227.97 59.68 226.17 61.34 224.57 62.38C224.83 62.68 225.21 63.26 225.37 63.6C227.15 62.42 229.07 60.54 230.27 58.82L228.83 58.26ZM227.41 66.2V76.6H228.87V64.82L228.81 64.78L227.41 66.2ZM250.85 62.62C252.35 63.36 254.17 64.54 255.03 65.38L256.09 64.4C255.19 63.56 253.35 62.44 251.85 61.74L250.85 62.62ZM260.09 59.9V60.14C257.91 64.08 252.15 66.78 247.11 67.72C247.39 68.04 247.69 68.66 247.83 69.04C253.11 67.88 259.03 65.08 261.63 60.42L260.65 59.82L260.39 59.9H260.09ZM253.41 59.9V61.16H260.47V59.9H253.41ZM254.89 58.18C253.51 59.86 250.87 61.74 247.27 63C247.61 63.26 248.07 63.76 248.29 64.12C252.01 62.64 254.73 60.66 256.57 58.54L254.89 58.18ZM253.41 69.96C254.99 70.82 256.89 72.16 257.79 73.1L258.97 72.14C258.01 71.18 256.09 69.92 254.51 69.1L253.41 69.96ZM263.01 66.9V67.12C260.85 72.16 254.81 74.54 248.63 75.28C248.87 75.62 249.17 76.24 249.27 76.66C255.81 75.7 262.05 73.2 264.57 67.36L263.59 66.82L263.31 66.9H263.01ZM256.51 66.9V68.18H263.41V66.9H256.51ZM258.13 65.02C256.57 66.92 253.53 69 249.29 70.32C249.61 70.6 250.05 71.14 250.23 71.48C254.61 69.94 257.77 67.76 259.79 65.4L258.13 65.02ZM272.85 67.06V68.3H282.77V67.06H272.85ZM272.47 70.48V71.76H283.19V70.48H272.47ZM279.13 67.46V76.24H280.49V67.46H279.13ZM275.03 67.52V71.16C275.03 72.26 274.61 74.38 272.59 75.62C272.93 75.82 273.39 76.24 273.59 76.52C275.85 75 276.33 72.38 276.33 71.16V67.52H275.03ZM270.37 61.84V62.92H275.99V61.84H270.37ZM279.59 61.84V62.92H285.25V61.84H279.59ZM284.67 59.06V74.66C284.67 74.96 284.57 75.08 284.25 75.08C283.93 75.1 282.85 75.1 281.75 75.06C281.97 75.48 282.17 76.18 282.23 76.58C283.75 76.58 284.75 76.56 285.35 76.3C285.95 76.04 286.15 75.56 286.15 74.66V59.06H284.67ZM270.49 59.06V60.22H275.49V64.66H270.49V65.8H276.91V59.06H270.49ZM285.39 59.06H278.67V65.82H285.39V64.68H280.11V60.22H285.39V59.06ZM269.59 59.06V76.62H271.07V59.06H269.59ZM295.91 63.8V73.84C295.91 75.8 296.53 76.34 298.65 76.34C299.11 76.34 302.09 76.34 302.57 76.34C304.75 76.34 305.21 75.22 305.43 71.44C304.99 71.34 304.37 71.06 304.01 70.76C303.85 74.22 303.67 74.96 302.49 74.96C301.81 74.96 299.29 74.96 298.79 74.96C297.69 74.96 297.45 74.78 297.45 73.84V63.8H295.91ZM296.07 59.44C298.49 60.3 301.41 61.8 302.95 62.96L303.91 61.64C302.33 60.56 299.43 59.12 297.01 58.3L296.07 59.44ZM292.57 65.4C292.29 68 291.63 70.92 290.29 72.68L291.65 73.5C293.09 71.58 293.71 68.38 294.01 65.7L292.57 65.4ZM304.23 65.42C305.93 67.68 307.43 70.8 307.87 72.9L309.37 72.18C308.87 70.06 307.37 67.04 305.57 64.76L304.23 65.42Z" fill="#451515"/>
<path d="M80.2341 12.212V14.732H91.1061V12.212H80.2341ZM85.1661 4.796C84.0861 11.528 82.1421 21.068 80.7021 26.504L82.8621 27.836C84.4101 21.824 86.4621 12.176 87.7581 5.048L85.1661 4.796ZM81.9261 25.244C85.4541 27.8 89.5581 31.544 91.4301 34.172L93.0501 32.048C91.1421 29.528 86.9301 25.928 83.4021 23.444L81.9261 25.244ZM90.1701 12.212V12.752C89.4501 24.884 86.0661 32.516 80.5221 35.72C81.0981 36.26 81.8181 37.232 82.1781 37.88C88.3701 33.884 91.8261 26.216 92.6541 12.392L91.0701 12.14L90.6381 12.212H90.1701ZM92.1861 8.72V11.06H113.246V8.72H92.1861ZM92.4741 25.1V27.44H113.246V25.1H92.4741ZM97.2981 14.264V16.388H108.098V14.264H97.2981ZM95.9661 4.76V21.896H109.61V4.76H107.054V19.664H98.4861V4.76H95.9661ZM101.402 21.536V37.88H104.03V21.536H101.402ZM100.574 26.18C98.6301 29.744 94.8141 33.236 91.0701 34.892C91.6461 35.396 92.5101 36.368 92.9421 37.016C96.7221 35 100.574 31.076 102.698 26.972L100.574 26.18ZM104.822 26.288L102.878 27.08C104.894 30.824 108.638 34.784 111.878 36.836C112.31 36.152 113.174 35.18 113.786 34.712C110.51 33.02 106.802 29.564 104.822 26.288ZM135.098 20.42V22.4H152.81V20.42H135.098ZM134.45 35.18V37.232H153.062V35.18H134.45ZM140.462 4.796V9.296H142.514V4.796H140.462ZM145.07 4.796V9.296H147.122V4.796H145.07ZM139.13 25.892H148.562V29.06H139.13V25.892ZM136.898 24.128V30.824H150.902V24.128H136.898ZM138.302 14.228H149.39V16.712H138.302V14.228ZM138.302 9.98H149.39V12.428H138.302V9.98ZM136.178 8.108V18.62H151.586V8.108H136.178ZM138.59 31.544C139.31 32.84 139.886 34.604 140.066 35.792L142.154 35.036C141.938 33.848 141.326 32.156 140.534 30.896L138.59 31.544ZM146.942 30.86C146.582 32.048 145.862 33.884 145.286 35.108L147.05 35.72C147.662 34.604 148.49 32.984 149.246 31.508L146.942 30.86ZM123.974 24.956V26.9H132.002V24.956H123.974ZM123.974 29.564V31.544H132.002V29.564H123.974ZM122.714 20.42V37.916H125.018V22.4H131.894V20.42H122.714ZM130.454 20.42V35.324C130.454 35.684 130.31 35.792 129.95 35.792C129.626 35.828 128.474 35.828 127.214 35.792C127.502 36.368 127.826 37.268 127.934 37.88C129.842 37.88 131.03 37.88 131.786 37.484C132.578 37.124 132.794 36.512 132.794 35.36V20.42H130.454ZM122.678 6.056V17H124.766V8.108H130.706V17H132.83V6.056H122.678ZM120.626 16.064V21.248H122.678V18.044H132.83V21.248H134.954V16.064H120.626ZM126.638 10.448V16.82H128.366V12.176H132.074V10.448H126.638ZM140.822 8.828V17.684H142.514V8.828H140.822ZM145.07 8.828V17.684H146.762V8.828H145.07ZM178.046 18.692V20.924H189.818V18.692H178.046ZM176.678 6.452V37.916H179.162V8.864H189.566V6.452H176.678ZM188.27 6.452V13.364C188.27 13.76 188.126 13.904 187.55 13.94C186.974 13.976 185.102 13.976 182.87 13.904C183.23 14.588 183.59 15.56 183.698 16.28C186.47 16.28 188.27 16.244 189.386 15.848C190.502 15.452 190.79 14.732 190.79 13.4V6.452H188.27ZM181.574 20.168L179.45 20.708C181.574 28.196 185.57 34.748 191.114 37.88C191.546 37.196 192.374 36.224 192.986 35.684C187.586 33.056 183.518 26.9 181.574 20.168ZM188.99 18.692V19.268C187.874 25.856 184.49 32.588 179.09 36.116C179.702 36.584 180.494 37.34 180.89 37.952C186.65 34.064 190.214 26.972 191.618 19.16L189.962 18.548L189.494 18.692H188.99ZM160.802 8.468V10.808H174.158V8.468H160.802ZM160.37 28.16V30.5H174.626V28.16H160.37ZM159.506 14.408V16.748H175.526V14.408H159.506ZM160.01 21.896V24.236H175.094V21.896H160.01ZM166.346 4.832V15.236H168.866V4.832H166.346ZM166.346 22.868V37.808H168.866V22.868H166.346ZM171.206 16.604C170.81 18.008 170.018 20.132 169.406 21.464L171.422 22.076C172.106 20.816 172.79 18.944 173.51 17.216L171.206 16.604ZM162.026 17.18C162.746 18.764 163.43 20.816 163.61 22.112L165.77 21.5C165.59 20.24 164.87 18.188 164.078 16.676L162.026 17.18ZM199.286 28.412V30.608H231.974V28.412H199.286ZM208.286 8.072V10.052H231.794V8.072H208.286ZM221.462 25.928V34.964C221.462 35.432 221.318 35.576 220.706 35.576C220.13 35.612 218.078 35.648 215.81 35.576C216.134 36.26 216.566 37.196 216.674 37.88C219.662 37.916 221.498 37.88 222.65 37.52C223.766 37.124 224.09 36.44 224.09 35V25.928H221.462ZM205.478 32.156C207.386 33.344 209.69 35.18 210.734 36.476L212.714 34.748C211.562 33.488 209.222 31.724 207.278 30.608L205.478 32.156ZM200.51 6.956C202.31 8.288 204.434 10.268 205.37 11.636L207.242 9.98C206.306 8.576 204.146 6.74 202.31 5.48L200.51 6.956ZM212.714 5.336C213.542 6.416 214.37 7.892 214.73 8.9L217.07 8.252C216.71 7.244 215.81 5.804 214.946 4.796L212.714 5.336ZM213.722 16.316H226.178V17.936H213.722V16.316ZM213.722 19.376H226.178V20.996H213.722V19.376ZM213.722 13.328H226.178V14.876H213.722V13.328ZM211.202 11.852V22.508H228.806V11.852H211.202ZM206.702 14.156H199.43V16.352H204.218V21.932H206.702V14.156ZM218.474 8.756C218.33 9.728 217.97 11.24 217.682 12.284L219.806 12.644C220.202 11.708 220.67 10.412 221.138 9.044L218.474 8.756ZM225.062 4.724C224.594 5.696 223.622 7.172 222.938 8.216L225.026 8.756C225.818 7.82 226.754 6.596 227.618 5.3L225.062 4.724ZM206.702 20.996H204.83C202.994 22.22 200.906 23.444 199.214 24.308L200.294 26.576C202.202 25.316 204.002 24.128 205.766 22.904C207.638 25.136 210.338 26.072 214.154 26.18C218.366 26.324 227.15 26.288 231.506 26.108C231.614 25.424 231.974 24.416 232.226 23.912C227.618 24.164 218.258 24.272 214.082 24.128C210.77 24.02 208.106 23.084 206.702 20.996Z" fill="#451515"/>
<path d="M23.3424 18.2836C22.9444 18.0562 22.4696 17.8284 22.0786 18.0721C21.6591 18.3336 21.5752 18.9836 21.541 19.5395L21.0821 26.9817L20.8789 27.4542C26.7801 29.2512 32.9857 29.1408 38.8378 27.135C33.6726 24.1845 28.5075 21.234 23.3424 18.2836Z" fill="#BD4E4E"/>
<path d="M65.0756 9.67497C62.9513 6.51349 59.2748 5.67587 56.1082 4.75465C48.7716 3.12905 41.2914 4.5262 33.937 5.26144C29.061 5.84084 24.1605 5.18894 19.2833 5.6377C18.7946 5.679 18.3057 5.72303 17.8173 5.76657C18.4379 5.85849 19.0142 5.95109 19.6336 6.05233C23.1769 6.55174 27.0843 7.72682 30.8091 8.06402C34.9447 8.51239 39.0999 8.17427 43.2422 8.05971C47.1326 7.96341 51.0507 7.58861 54.9206 8.2337C58.0301 8.86126 63.2236 10.5454 62.937 12.5427C63.0838 17.2727 62.8352 22.022 62.6112 26.746C62.2952 30.8451 62.3847 31.2984 61.3804 35.5536C60.861 37.4787 60.9672 37.4103 60.006 39.1679C59.3237 40.2473 58.5577 40.3352 55.1867 40.3669C50.5508 40.6728 45.9077 40.8059 41.2648 40.6712C33.2931 40.4479 25.3375 39.6986 17.3783 39.1562C15.0881 39.0054 12.799 38.8296 10.5058 38.7508C8.01587 38.5789 7.35476 38.6916 5.02064 37.9275C4.52054 37.7716 4.08706 37.3488 3.92202 37.2131C3.88399 37.1625 3.85695 37.1272 3.83447 37.0986C3.79469 37.0292 3.75034 36.9635 3.71584 36.8903C3.64388 36.6496 3.59427 36.4005 3.56789 36.1474C3.56209 34.757 4.6313 28.0123 4.65927 23.949C4.93216 18.9312 4.20465 10.1615 7.15636 7.20186C8.59792 6.1491 10.379 6.24558 11.6464 5.94833C13.4841 5.71876 16.4984 5.11354 18.7964 4.66824C16.4497 4.66195 14.1031 4.71896 11.7569 4.65135C10.0621 4.69374 8.27084 4.42229 6.67252 5.2229C1.66186 8.02606 2.26578 20.1869 1.80391 25.8511C1.59379 29.3277 1.35115 30.6745 1.00926 33.7615C0.314272 37.9199 1.62778 40.3557 5.18133 41.3032C8.4711 42.1461 11.8643 41.9393 15.2034 42.2736C22.0986 42.8015 29.0032 43.1332 35.8983 43.6628C42.0372 44.0506 48.1974 44.1532 54.3358 43.7067C56.2007 43.5219 58.1443 43.8566 59.951 43.1935C64.691 41.251 65.1022 30.6033 65.4071 25.5751C65.5357 21.6638 65.7583 17.7558 65.8301 13.8422C65.8158 12.4199 65.7883 10.8875 65.0756 9.67497Z" fill="black"/>
<path d="M38.4489 25.3359C36.6811 23.3993 34.6916 21.7124 32.7573 20.0025C30.8179 18.3531 25.486 13.8764 25.1768 19.3264C24.8477 22.3629 24.6836 25.4214 24.4629 28.4704C25.2989 25.5229 26.3471 21.5107 26.9927 19.0349C27.067 19.049 27.1404 19.069 27.2124 19.0947C27.2487 19.1061 27.309 19.1311 27.353 19.1496C27.4048 19.1801 27.4566 19.2105 27.5086 19.2409C28.4177 19.7901 29.2384 20.5127 30.0456 21.2437C29.964 21.1698 29.8824 21.0958 29.8008 21.0219C30.4661 21.6007 32.3156 23.362 34.9476 25.5926C32.4708 26.0544 29.9868 26.4642 27.5158 26.9671C29.0538 27.268 30.5997 27.5042 32.1535 27.6757C33.9767 27.8641 35.8284 28.0065 37.6508 27.7534C38.5675 27.5587 39.0885 26.1939 38.4489 25.3359Z" fill="black"/>
</svg>
