<svg width="208" height="127" viewBox="0 0 208 127" fill="none" xmlns="http://www.w3.org/2000/svg">
<g clip-path="url(#clip0_782_202)">
<path d="M54.0105 125.09C54.0105 126.145 42.6846 127 28.7001 127C14.7155 127 3.38965 126.145 3.38965 125.09C3.38965 124.035 14.7155 123.181 28.7001 123.181C42.6846 123.181 54.0105 124.035 54.0105 125.09Z" fill="#CFBF8B"/>
<path d="M203.866 125.09C203.866 126.145 192.54 127 178.556 127C164.571 127 153.245 126.145 153.245 125.09C153.245 124.035 164.571 123.181 178.556 123.181C192.54 123.181 203.866 124.035 203.866 125.09Z" fill="#CFBF8B"/>
<path d="M3.45605 95.7911C3.45605 109.8 14.7553 121.151 28.7 121.151C42.6447 121.151 53.9439 109.8 53.9439 95.7911C53.9439 81.7824 42.6447 70.4312 28.7 70.4312C14.7553 70.4312 3.45605 81.7824 3.45605 95.7911Z" stroke="#ED0F51" stroke-opacity="0.25" stroke-width="1.03" stroke-miterlimit="10"/>
<path d="M1.43555 95.7912C1.43555 110.922 13.6388 123.181 28.7001 123.181C43.7614 123.181 55.9646 110.922 55.9646 95.7912C55.9646 80.6607 43.7614 68.4014 28.7001 68.4014C13.6388 68.4014 1.43555 80.6607 1.43555 95.7912Z" stroke="#0B2B52" stroke-width="2.16" stroke-miterlimit="10"/>
<path d="M154.056 95.7911C154.056 109.8 165.355 121.151 179.3 121.151C193.244 121.151 204.544 109.8 204.544 95.7911C204.544 81.7824 193.244 70.4312 179.3 70.4312C165.355 70.4312 154.056 81.7824 154.056 95.7911Z" stroke="#ED0F51" stroke-opacity="0.25" stroke-width="1.03" stroke-miterlimit="10"/>
<path d="M152.049 95.7912C152.049 110.922 164.252 123.181 179.313 123.181C194.375 123.181 206.578 110.922 206.578 95.7912C206.578 80.6607 194.375 68.4014 179.313 68.4014C164.252 68.4014 152.049 80.6607 152.049 95.7912V95.7912Z" stroke="#0B2B52" stroke-width="2.16" stroke-miterlimit="10"/>
<path d="M135.99 82.5034L130.526 95.791" stroke="#0B2B52" stroke-width="0.83" stroke-miterlimit="10"/>
<path d="M131.856 83.3848H139.938V81.6487H131.856V83.3848Z" fill="#0B2B52"/>
<path d="M175.777 95.7909C175.777 97.7406 177.359 99.3298 179.3 99.3298C181.241 99.3298 182.823 97.7406 182.823 95.7909C182.823 93.8411 181.241 92.252 179.3 92.252C177.359 92.252 175.777 93.8411 175.777 95.7909Z" fill="#F7AC2D"/>
<path d="M84.0003 82.5034L78.5234 95.791" stroke="#0B2B52" stroke-width="0.83" stroke-miterlimit="10"/>
<path d="M79.8523 83.3848H87.9346V81.6487H79.8523V83.3848Z" fill="#0B2B52"/>
<path d="M86.3261 73.9702C86.3261 73.9702 83.9865 78.3905 84.7974 79.4321C85.6082 80.4738 88.8917 81.1415 88.8385 81.462C88.7986 81.7825 81.248 81.462 81.248 81.462L83.0958 73.7031L86.3261 73.9702V73.9702Z" fill="#6B3E00"/>
<path d="M69.0581 41.3853C69.0581 41.3853 86.8711 49.9053 90.8325 55.1937C94.7806 60.4954 86.7648 75.5057 86.7648 75.5057H80.0251L85.143 61.1497L65.9209 53.6312L69.0714 41.3853H69.0581Z" fill="#004AA1"/>
<path d="M135.99 77.1484L133.252 81.6355H143.78C143.78 81.6355 139.234 80.5805 138.622 79.9796C138.011 79.3786 139.407 77.1484 139.407 77.1484H135.977H135.99Z" fill="#6B3E00"/>
<path d="M129.609 43.0415L131.922 47.6087C131.922 47.6087 155.398 51.3346 152.766 59.641C150.134 67.9474 139.234 78.4706 139.234 78.4706H134.98L143.581 60.5491L123.548 56.8766L120.078 43.0415H129.623H129.609Z" fill="#004AA1"/>
<path d="M145.986 51.5616C139.858 48.8774 131.922 47.6087 131.922 47.6087L129.609 43.0415H120.064L123.534 56.8766L133.863 58.7729L145.986 51.5616Z" fill="#0B2B52"/>
<path d="M69.0587 41.3853L65.9082 53.6312L76.8885 57.9313L87.7756 52.2958C81.3417 47.2745 69.0587 41.3986 69.0587 41.3986V41.3853Z" fill="#0B2B52"/>
<path d="M167.535 56.8496L67.3571 60.0947L27.9824 96.3652H127.071L167.881 60.709" stroke="#006EED" stroke-width="2" stroke-linecap="round" stroke-linejoin="round"/>
<path d="M81.248 95.7911L120.902 61.1499" stroke="#006EED" stroke-width="2" stroke-linecap="round" stroke-linejoin="round"/>
<path d="M78.5233 94.7226L66.998 56.2754" stroke="#006EED" stroke-width="1.02" stroke-linecap="round" stroke-linejoin="round"/>
<path d="M130.819 94.7226L119.28 56.2754" stroke="#006EED" stroke-width="1.02" stroke-linecap="round" stroke-linejoin="round"/>
<path d="M178.98 94.7229L164.703 47.1013C164.012 44.7909 165.727 42.4673 168.133 42.4673H174.314C175.816 42.4673 176.774 44.0965 176.042 45.4186L173.437 50.1594" stroke="#006EED" stroke-width="2" stroke-linecap="round" stroke-linejoin="round"/>
<path d="M106.691 58.2385L102.438 44.0562" stroke="#006EED" stroke-width="2" stroke-linecap="round" stroke-linejoin="round"/>
<path d="M121.753 110.027H129.835V108.291H121.753V110.027Z" fill="#0B2B52"/>
<path d="M79.334 102.041H130.526" stroke="#787878" stroke-width="0.6" stroke-miterlimit="10"/>
<path d="M79.334 89.1538H130.526" stroke="#787878" stroke-width="0.6" stroke-miterlimit="10"/>
<path d="M80.6105 89.1538L28.7002 92.9865V98.395L81.3416 102.508" stroke="#787878" stroke-width="0.6" stroke-miterlimit="10"/>
<path d="M122.83 95.7911C122.83 100.051 126.273 103.51 130.514 103.51C134.754 103.51 138.197 100.051 138.197 95.7911C138.197 91.5311 134.754 88.0723 130.514 88.0723C126.273 88.0723 122.83 91.5311 122.83 95.7911Z" fill="#F7AC2D"/>
<path d="M25.1777 95.7909C25.1777 97.7406 26.7596 99.3298 28.7005 99.3298C30.6413 99.3298 32.2232 97.7406 32.2232 95.7909C32.2232 93.8411 30.6413 92.252 28.7005 92.252C26.7596 92.252 25.1777 93.8411 25.1777 95.7909Z" fill="#F7AC2D"/>
<path d="M130.527 95.8711L125.05 109.145" stroke="#0B2B52" stroke-width="0.83" stroke-miterlimit="10"/>
<path d="M69.7634 110.027H77.8457V108.291H69.7634V110.027Z" fill="#0B2B52"/>
<path d="M70.8398 95.7911C70.8398 100.051 74.2828 103.51 78.5234 103.51C82.7639 103.51 86.2069 100.051 86.2069 95.7911C86.2069 91.5311 82.7639 88.0723 78.5234 88.0723C74.2828 88.0723 70.8398 91.5311 70.8398 95.7911V95.7911Z" fill="#F7AC2D"/>
<path d="M78.5231 95.8711L73.0596 109.145" stroke="#0B2B52" stroke-width="0.83" stroke-miterlimit="10"/>
<path d="M166.857 15.7449C166.857 15.7449 176.694 14.9837 177.904 14.8902C179.114 14.7968 178.489 15.7449 177.186 16.012C175.884 16.2791 175.751 17.8683 174.129 17.9484C172.507 18.0419 170.659 17.0002 168.851 17.3608C167.044 17.7214 166.857 15.7316 166.857 15.7316V15.7449Z" fill="#E68CA3"/>
<path d="M166.445 40.9445C166.445 40.9445 167.974 41.8259 168.785 42.1597C169.596 42.4802 172.427 40.0097 173.544 40.9445C174.66 41.8793 174.222 42.4268 172.866 43.415C171.523 44.4033 172.108 45.899 170.3 45.1778C168.506 44.4567 164.797 42.4802 164.797 42.4802L166.432 40.9445H166.445Z" fill="#E68CA3"/>
<path d="M127.988 102.041C127.988 102.041 127.921 105.7 128.865 106.234C129.809 106.781 133.039 107.049 133.265 107.903C133.491 108.758 124.199 108.277 124.199 108.277V102.027H128.001L127.988 102.041Z" fill="#6B3E00"/>
<path d="M74.176 98.9961C74.176 98.9961 75.0267 105.219 76.1035 106.221C77.1802 107.209 80.4903 107.663 80.5169 108.384C80.5434 109.105 73.3252 108.384 72.3282 108.384C71.3312 108.384 72.5542 106.261 72.3282 105.219C72.1022 104.178 70.3076 98.9961 70.3076 98.9961H74.176Z" fill="#6B3E00"/>
<path d="M68.9122 40.8647L76.8349 99.9845H68.9122L65.6819 74.7982C65.6819 74.7982 54.6618 54.593 59.2081 41.4657L68.9122 40.8647V40.8647Z" fill="#004AA1"/>
<path d="M79.5734 8.37326C80.2513 8.76054 80.7432 10.323 80.8363 11.4982C80.9293 12.6734 81.4212 13.7951 81.4212 13.7951H81.0224C81.0224 13.7951 81.9662 16.279 80.5039 16.7732C79.0417 17.2673 78.2308 16.1856 77.4332 17.1738C76.6223 18.162 75.7316 20.7394 75.7316 20.7394L70.5605 19.1636C70.5605 19.1636 72.2222 13.7017 72.3551 10.7236C72.4881 7.7456 76.9413 6.85086 79.5867 8.3599L79.5734 8.37326Z" fill="#E68CA3"/>
<path d="M58.6361 42.4804H69.51C72.0225 42.4804 72.2617 40.2102 73.4847 36.8716C74.721 33.533 77.3265 31.2894 77.4062 28.3515C77.4993 25.4135 77.3132 21.3538 75.9706 19.818C74.628 18.2823 70.507 17.9217 68.0345 20.3656C65.5486 22.7961 63.0362 35.6163 61.3347 38.0601C59.6331 40.4906 52.2554 42.4938 58.6361 42.4938V42.4804Z" fill="#ED0F51" fill-opacity="0.25"/>
<path d="M73.4854 14.2359C73.4854 14.2359 76.0377 9.7622 79.5737 8.3867L76.3966 6.51709C76.3966 6.51709 73.4854 9.64201 73.4854 14.2359Z" fill="#ED0F51" fill-opacity="0.25"/>
<path d="M71.2248 19.8046C75.4255 18.3089 86.8444 32.9453 86.8444 32.9453L100.709 40.6507C100.709 40.6507 105.335 40.4771 105.335 42.0529C105.335 43.6287 101.759 44.5903 100.271 43.5486C98.7818 42.4936 87.8015 38.7277 83.8667 36.364C79.9452 34.0002 73.7505 27.0693 71.2248 24.7991C68.6991 22.5288 69.4834 20.4322 71.2248 19.8179V19.8046Z" fill="#E68CA3"/>
<path d="M73.4851 14.2362C72.7407 17.1074 72.3818 19.8183 71.079 21.8482C69.7763 23.8781 68.3805 29.4335 61.92 28.1648C55.4461 26.8961 56.2171 22.1153 57.161 19.9118C58.1048 17.695 59.9924 17.3878 62.1858 15.7586C64.3925 14.1294 63.6215 11.6989 65.9079 10.7908C68.1944 9.88269 68.1146 10.6572 69.2711 9.6156C70.441 8.57396 72.2621 3.59278 76.383 6.51739L73.4718 14.2362H73.4851Z" fill="#092242"/>
<path d="M128.453 42.4805L129.623 103.457H122.843L119.839 72.047C119.839 72.047 111.93 51.1608 115.532 42.4805H128.467H128.453Z" fill="#004AA1"/>
<path d="M139.513 6.51728L140.47 10.0962H139.3V13.8355H136.216L135.099 17.7349L128.506 17.0405L129.888 12.1261L129.144 5.92969L139.513 6.51728Z" fill="#E68CA3"/>
<path d="M134.488 17.0939L168.599 15.2109L168.971 18.3626L136.004 24.4121L134.488 17.0939Z" fill="#8A0830"/>
<path d="M115.692 44.0564H131.683C131.683 44.0564 130.992 41.8262 132.228 38.2205C133.451 34.6148 136.522 27.8442 136.522 27.8442L142.424 33.8536C144.365 35.8301 146.771 37.2991 149.403 38.127L165.86 43.2818L167.535 41.4656L150.281 32.999C150.281 32.999 138.995 15.7451 134.023 15.7451C127.057 15.7451 126.02 16.5597 123.694 22.8763C121.355 29.193 107.516 43.3085 115.692 44.0564Z" fill="#ED0F51" fill-opacity="0.25"/>
<path d="M136.522 27.8439L130.819 23.063L132.946 36.2705L136.522 27.8439Z" fill="#8A0830"/>
<path d="M127.761 6.75734H146.877C146.877 6.75734 140.709 5.63557 140.151 4.31349C139.592 2.99141 137.97 -0.160221 134.288 3.11748e-05C130.593 0.146929 127.562 4.42033 127.761 6.75734V6.75734Z" fill="#092242"/>
</g>
<defs>
<clipPath id="clip0_782_202">
<rect width="208" height="127" fill="white"/>
</clipPath>
</defs>
</svg>
