<svg width="153" height="109" viewBox="0 0 153 109" fill="none" xmlns="http://www.w3.org/2000/svg">
<path d="M54.6193 107.031C54.6193 107.909 42.3988 108.619 27.3096 108.619C12.2205 108.619 0 107.909 0 107.031C0 106.154 12.2205 105.444 27.3096 105.444C42.3988 105.444 54.6193 106.154 54.6193 107.031Z" fill="#CFBF8B"/>
<path d="M152.498 107.031C152.498 107.909 140.278 108.619 125.189 108.619C110.099 108.619 97.8789 107.909 97.8789 107.031C97.8789 106.154 110.099 105.444 125.189 105.444C140.278 105.444 152.498 106.154 152.498 107.031Z" fill="#CFBF8B"/>
<path d="M5.00586 88.5796C5.00586 97.8943 14.7593 105.444 26.7933 105.444C38.8274 105.444 48.5808 97.8943 48.5808 88.5796C48.5808 79.2648 38.8274 71.7153 26.7933 71.7153C14.7593 71.7153 5.00586 79.2648 5.00586 88.5796V88.5796Z" stroke="#ED0F51" stroke-opacity="0.36" stroke-width="2.16" stroke-miterlimit="10"/>
<path d="M53.185 88.5796C53.185 77.2997 41.3805 68.1626 26.8077 68.1626C23.2936 68.1626 19.9516 68.6955 16.8965 69.6503" stroke="#E09941" stroke-width="2" stroke-miterlimit="10"/>
<path d="M151.58 88.5796C151.58 77.2997 139.775 68.1626 125.203 68.1626C110.63 68.1626 98.8252 77.2997 98.8252 88.5796" stroke="#E09941" stroke-width="2" stroke-linecap="round" stroke-linejoin="round"/>
<path d="M22.9922 88.5793C22.9922 90.2002 24.699 91.5214 26.7932 91.5214C28.8873 91.5214 30.5941 90.2002 30.5941 88.5793C30.5941 86.9584 28.8873 85.6372 26.7932 85.6372C24.699 85.6372 22.9922 86.9584 22.9922 88.5793Z" fill="#006EED"/>
<path d="M6.62695 88.5793C6.62695 97.2057 15.6632 104.2 26.808 104.2C37.9527 104.2 46.989 97.2057 46.989 88.5793C46.989 79.9529 37.9527 72.9585 26.808 72.9585C15.6632 72.9585 6.62695 79.9529 6.62695 88.5793V88.5793Z" stroke="#092242" stroke-width="0.76" stroke-miterlimit="10"/>
<path d="M103.4 88.5796C103.4 97.8943 113.154 105.444 125.188 105.444C137.222 105.444 146.975 97.8943 146.975 88.5796C146.975 79.2648 137.222 71.7153 125.188 71.7153C113.154 71.7153 103.4 79.2648 103.4 88.5796Z" stroke="#ED0F51" stroke-opacity="0.36" stroke-width="2.16" stroke-miterlimit="10"/>
<path d="M105.021 88.5793C105.021 97.2057 114.058 104.2 125.203 104.2C136.347 104.2 145.384 97.2057 145.384 88.5793C145.384 79.9529 136.347 72.9585 125.203 72.9585C114.058 72.9585 105.021 79.9529 105.021 88.5793V88.5793Z" stroke="#092242" stroke-width="0.76" stroke-miterlimit="10"/>
<path d="M26.793 88.5793L32.8602 76.8109L42.5419 35.2109H56.1681" stroke="#E09941" stroke-width="2" stroke-linecap="round" stroke-linejoin="round"/>
<path d="M92.3852 45.5693L80.1934 86.703" stroke="#E09941" stroke-width="2" stroke-linecap="round" stroke-linejoin="round"/>
<path d="M79.003 83.0615L125.203 86.1923V90.5333L78.2715 94.1637" stroke="#787878" stroke-width="0.6" stroke-miterlimit="10"/>
<path d="M72.3623 77.5327L78.2717 88.5794" stroke="#0B2B52" stroke-width="0.83" stroke-miterlimit="10"/>
<path d="M76.8223 76.811H68.1016V78.2543H76.8223V76.811Z" fill="#0B2B52"/>
<path d="M59.1377 59.4805C59.1377 59.4805 70.0673 74.3463 69.9812 75.2012C69.8952 76.0561 64.789 76.7555 65.3197 77.0331C65.8504 77.3106 74.3703 77.3772 75.0014 77.0331C75.6325 76.6889 67.4712 59.4805 67.4712 59.4805H59.1377V59.4805Z" fill="#E68CA3"/>
<path d="M104.448 64.8652C105.079 65.709 105.84 66.2974 105.481 66.686C105.123 67.0635 100.69 68.3846 100.69 68.3846L101.68 65.4648L104.463 64.8652H104.448Z" fill="#006EED"/>
<path d="M100.188 56.5828L101.349 65.8087L105.021 65.187L106.9 55.9722L100.188 56.5828Z" fill="#256B62"/>
<path d="M69.9668 75.2121C69.8808 76.067 64.7746 76.7664 65.3053 77.044C65.836 77.3215 74.3559 77.3882 74.987 77.044C75.1161 76.9774 74.8722 76.1891 74.4133 75.0012L69.766 74.7236C69.8951 74.9679 69.9668 75.1455 69.9668 75.2121Z" fill="#006EED"/>
<path d="M39.3291 49C39.3291 49 53.3712 74.4796 83.8077 74.4796" stroke="#E09941" stroke-width="2" stroke-linecap="round" stroke-linejoin="round"/>
<path d="M36.8906 59.4805L79.0026 87.2582" stroke="#E09941" stroke-width="2" stroke-linecap="round" stroke-linejoin="round"/>
<path d="M87.9674 60.4795L125.203 88.5792H80.1934" stroke="#E09941" stroke-width="2" stroke-linecap="round" stroke-linejoin="round"/>
<path d="M121.401 88.5793C121.401 90.2002 123.108 91.5214 125.202 91.5214C127.296 91.5214 129.003 90.2002 129.003 88.5793C129.003 86.9584 127.296 85.6372 125.202 85.6372C123.108 85.6372 121.401 86.9584 121.401 88.5793Z" fill="#006EED"/>
<path d="M87.7237 98.96H79.0029V100.403H87.7237V98.96Z" fill="#0B2B52"/>
<path d="M86.5623 88.5792C86.5623 92.1208 82.8474 94.9963 78.2719 94.9963C73.6964 94.9963 69.9814 92.1208 69.9814 88.5792C69.9814 85.0376 73.6964 82.1621 78.2719 82.1621C82.8474 82.1621 86.5623 85.0376 86.5623 88.5792Z" fill="#006EED"/>
<path d="M78.2715 88.646L84.1666 99.6927" stroke="#0B2B52" stroke-width="0.83" stroke-miterlimit="10"/>
<path d="M88.2686 59.4805H121.875C124.543 59.4805 126.307 61.6232 125.188 63.4884L114.861 80.7634" stroke="#E09941" stroke-miterlimit="10"/>
<path d="M33.0467 49.8328C33.0467 49.8328 39.1426 32.4356 35.8006 31.5141C32.4586 30.5926 28.9875 41.0398 28.9875 41.0398C28.9875 41.0398 30.2498 34.9336 26.8074 35.2111C23.365 35.4887 21.5721 42.8939 21.5721 42.8939C21.5721 42.8939 21.3282 39.3745 18.8181 39.8408C16.3081 40.3071 19.4206 49.8328 19.4206 49.8328H33.0467Z" fill="#CFBF8B"/>
<path d="M36.8912 47.146L33.0472 62.5004H21.0849L14.5156 47.146H36.8912Z" fill="#006EED"/>
<path d="M130.868 60.4795H107.058C105.036 60.4795 103.4 59.2139 103.4 57.6484C103.4 56.083 105.036 54.8174 107.058 54.8174H130.868C132.89 54.8174 134.525 56.083 134.525 57.6484C134.525 59.2139 132.89 60.4795 130.868 60.4795V60.4795Z" fill="#995900"/>
<path d="M86.562 73.3695C86.562 73.3695 85.4002 95.3741 86.562 97.1727C87.7239 98.9712 88.3119 98.9712 86.0457 98.9712C83.7794 98.9712 78.5298 99.0601 77.411 98.9712C76.2922 98.8824 82.4455 97.7167 83.0336 96.9062C83.6073 96.0958 78.2716 72.5591 78.2716 72.5591L86.562 73.3695V73.3695Z" fill="#E68CA3"/>
<path d="M96.875 36.9542C96.875 36.9542 100.418 40.3847 98.8257 45.5695C97.2336 50.7542 87.7957 63.8881 87.6666 75.4566C87.6666 75.4566 83.7222 76.2005 74.6429 72.9586C65.5636 69.7168 61.3753 60.9016 57.4309 59.4805C57.4309 59.4805 54.3184 53.1634 56.183 49.0001C58.0477 44.8367 81.9436 41.1286 82.0584 39.1857C82.1731 37.2428 81.8145 36.4102 81.8145 36.4102L96.875 36.9542V36.9542Z" fill="#0B2B52"/>
<path d="M86.0454 98.9602C88.3116 98.9602 87.7235 98.9602 86.5617 97.1616C86.5043 97.0728 86.4613 96.9396 86.4183 96.7619C85.1561 96.6731 83.8365 96.551 83.0763 96.4844C83.0763 96.6953 83.0763 96.8396 83.0333 96.8841C82.4595 97.6945 76.3063 98.8602 77.4107 98.9491C78.5295 99.0379 83.7791 98.9491 86.0454 98.9491V98.9602Z" fill="#006EED"/>
<path d="M82.1149 12.7511C87.8953 12.1405 89.7025 12.0739 94.3785 12.1516C99.0544 12.2293 99.6568 9.38715 106.111 8.08819C112.566 6.77813 119.149 7.1223 122.305 4.90186L127.354 12.7178C127.354 12.7178 129.003 13.2174 124.471 12.518C119.924 11.8074 117.715 9.75352 113.412 11.1191C109.109 12.4847 108.076 14.4053 101.88 15.5156C95.6693 16.6147 88.2826 13.717 83.621 15.1159L82.1006 12.7622L82.1149 12.7511Z" fill="#F7AC2D"/>
<path d="M70.7989 5.21303L70.2539 8.94338L71.0858 9.15432C71.0858 9.15432 70.7703 11.4303 72.807 11.7189C74.8581 12.0076 76.6367 11.9965 77.067 13.2954C77.4829 14.5944 77.8415 16.1487 77.8415 16.1487L84.3103 15.8712L80.3946 3.28125L70.7989 5.20193V5.21303Z" fill="#E68CA3"/>
<path d="M70.5693 5.85682L76.0054 5.62367C76.7943 5.59037 77.4827 6.03446 77.5831 6.63398C77.8413 8.2549 78.4437 11.3968 79.5912 13.8393C79.8064 14.2945 80.3944 14.5832 81.0255 14.5721L88.5845 14.4721C89.7463 14.461 90.4634 13.4729 89.8467 12.6958C88.9 11.4967 87.7525 9.85362 87.2218 8.31041C86.2322 5.43494 84.0663 0.17249 77.9274 0.00595715C72.7925 -0.127269 69.6943 1.99325 69.0058 4.44684C68.7907 5.19069 69.5939 5.89013 70.5836 5.84572L70.5693 5.85682Z" fill="#092242"/>
<path d="M80.1938 13.7725C84.3104 13.9945 86.7344 15.7154 88.6134 19.6011C90.4923 23.4869 94.0782 30.4924 96.0575 32.9904C98.0369 35.4884 101.522 37.5645 99.6434 38.3306C97.7644 39.0966 87.0069 38.3306 82.2593 38.3306C77.5116 38.3306 79.6631 37.2203 78.1428 34.0229C76.6224 30.8255 74.0693 25.6962 73.1226 22.6431C72.1759 19.59 73.7537 13.4172 80.2082 13.7614L80.1938 13.7725Z" fill="#256B62"/>
<path d="M58.8648 31.9248C58.8648 31.9248 48.2938 32.1135 46.7878 32.2468C45.2961 32.38 42.3127 35.6218 43.5605 36.2214C44.8084 36.8209 45.9559 37.3316 46.9599 36.5433C47.9639 35.7551 47.3185 34.6893 49.3552 34.2341C51.392 33.7678 60.6434 35.2111 60.6434 35.2111L58.8505 31.9248H58.8648Z" fill="#E68CA3"/>
<path d="M77.425 15.4379C73.7675 15.2047 63.7989 31.4583 63.7989 31.4583H56.1826L59.6824 39.5852C59.6824 39.5852 67.8437 40.4178 69.9952 39.1633C72.1467 37.9087 78.3287 27.1618 80.2076 22.51C82.0866 17.8581 80.7384 15.6377 77.425 15.4268V15.4379Z" fill="#2F877C"/>
<path d="M113.958 29.4711C113.958 29.4711 113.241 31.0032 112.71 31.4139C112.179 31.8247 110.974 32.8017 113.341 34.023L113.671 35.5773L119.408 35.9436C119.408 35.9436 118.806 35.3885 119.881 34.4115C120.957 33.4346 122.148 31.6804 122.148 31.6804L113.958 29.46V29.4711Z" fill="#E68CA3"/>
<path d="M102.009 29.2493C102.009 29.2493 100.876 24.764 99.9152 24.8529C98.9542 24.9417 97.9502 26.8846 98.8968 27.8616C99.8578 28.8386 100.934 29.7267 100.934 29.7267L102.009 29.2493V29.2493Z" fill="#E68CA3"/>
<path d="M113.01 35.9547C113.01 35.9547 104.462 31.7026 102.009 28.3164L100.188 29.8929C100.188 29.8929 107.244 38.5748 111.447 39.8516C115.635 41.1284 113.01 35.9436 113.01 35.9436V35.9547Z" fill="#092242"/>
<path d="M106.471 27.8501L127.67 34.0341C127.67 34.0341 124.213 32.7129 124.041 31.2918C123.869 29.8708 124.328 26.8843 120.642 25.774C115.808 24.3196 114.273 27.5726 112.308 27.9279C110.343 28.2831 106.485 27.8501 106.485 27.8501H106.471Z" fill="#995900"/>
<path d="M97.7205 36.41C96.0567 35.866 95.7985 34.4116 94.0487 34.4116C92.2988 34.4116 92.0262 35.3886 93.0159 36.1436C94.0056 36.8985 97.9931 37.9088 97.9931 37.9088L97.7205 36.41Z" fill="#E68CA3"/>
<path d="M111.232 36.9543C111.232 36.9543 111.935 35.0669 114.445 34.7894C116.955 34.5118 127.354 34.8782 126.996 35.944C126.637 37.0098 122.693 38.5197 122.607 39.852C122.521 41.1842 125.203 50.2659 123.324 51.3095C121.933 52.0755 108.708 52.2087 108.536 50.6877C108.364 49.1667 109.97 41.8726 109.97 41.8726L95.8994 37.9868L97.4198 35.9551L111.247 36.9543H111.232Z" fill="#0B2B52"/>
<path d="M95.6124 65.4644C95.6124 65.4644 95.6124 68.1955 94.594 67.918C93.5756 67.6404 88.9141 66.1305 88.9141 66.1305C88.9141 66.1305 92.2561 64.443 93.9342 64.9537L95.6124 65.4644V65.4644Z" fill="#006EED"/>
<path d="M122.449 50.843C122.449 50.843 123.051 54.862 119.881 56.5274C116.712 58.1927 105.065 57.4489 105.065 57.4489L95.8851 66.1197L92.873 64.9872C92.873 64.9872 97.6494 54.4846 100.518 52.6416C103.387 50.7875 112.595 50.6543 112.595 50.6543L122.449 50.843Z" fill="#2F877C"/>
</svg>
