<svg width="64" height="37" viewBox="0 0 64 37" fill="none" xmlns="http://www.w3.org/2000/svg">
<g clip-path="url(#clip0_617_2)">
<path d="M19.0725 20.6288C18.9857 20.2713 18.8627 19.9226 18.7052 19.5876L18.7031 19.5827L18.7025 19.5815L18.7045 19.5859L18.7014 19.579C18.2013 18.4877 17.3617 16.8866 15.8637 17.1666C15.2336 17.3228 14.8258 17.8545 14.5643 18.391C14.1627 19.1319 13.7703 19.8773 13.3645 20.6162C12.1525 22.7662 10.7939 24.8384 9.52407 26.9579C9.22775 27.2975 8.94105 27.6515 8.85332 28.0771C8.69862 28.8722 9.67095 29.4768 10.3856 29.0653C10.4347 29.0405 10.4252 29.0414 10.3926 29.0529C10.5648 28.9713 10.738 28.8648 10.6752 28.8769C10.9719 28.7394 11.214 28.518 11.4858 28.3387C12.3943 27.6933 13.3131 27.0612 14.2093 26.4002C15.9687 25.0236 18.1086 23.7642 18.9963 21.6813C19.2361 20.8291 19.0767 20.9186 19.0725 20.6288ZM15.2141 22.2041L15.2145 22.2036C15.4965 21.7919 15.763 21.3707 16.0299 20.9501C15.9511 21.0264 15.8714 21.1021 15.789 21.175C14.6332 22.2611 13.3822 23.2571 12.1851 24.304C12.808 23.6277 13.4251 22.9467 14.0238 22.2511C14.9682 21.1208 15.3731 20.5336 16.1455 19.439C16.1797 19.508 16.2089 19.5687 16.2278 19.6081C16.383 19.964 16.498 20.3346 16.5709 20.7135C16.5658 20.7334 16.5597 20.7531 16.5544 20.7729C16.1709 21.373 16.4662 20.9948 15.8067 21.6814C15.6112 21.8576 15.4127 22.0308 15.2141 22.2041V22.2041Z" fill="#64A38A"/>
<path d="M18.627 19.4141C18.6519 19.4686 18.6761 19.5239 18.7006 19.5789L18.7017 19.5814C18.6759 19.5222 18.6429 19.4473 18.627 19.4141Z" fill="#64A38A"/>
<path d="M37.3492 16.4841C36.4385 14.447 34.5647 12.4829 32.0203 13.0397C29.9758 13.5697 28.1978 17.0572 27.3965 18.8174C28.8289 17.2494 30.4438 15.5112 31.9684 14.7592C32.051 14.7313 32.1351 14.7074 32.2203 14.6877C32.3517 14.6765 32.4838 14.6762 32.6152 14.6867C32.6374 14.6906 32.6599 14.6932 32.6821 14.6976C32.8589 14.7346 33.0322 14.7856 33.2001 14.8501C33.6735 15.0774 33.6239 15.0334 33.8396 15.2647C33.6814 15.2566 33.5228 15.2586 33.3648 15.2707C31.5129 15.3038 30.1682 16.7529 29.0578 18.003C28.8109 18.2776 29.1869 17.9712 29.3173 17.9178C29.8844 17.6002 30.4748 17.3219 31.0715 17.0583C32.5979 16.2505 34.0902 16.7815 34.6367 17.2425C35.214 17.6288 35.6387 18.3261 36.3744 18.4348C37.5994 18.5198 37.8775 17.3589 37.3492 16.4841Z" fill="#64A38A"/>
<path d="M51.6833 17.5643C50.334 15.4593 46.9804 14.5193 47.0258 17.9241C47.691 15.965 48.7469 16.1631 49.6883 17.3111C50.5886 18.5927 50.9433 19.8729 51.2591 20.4816C51.8909 22.057 52.5318 23.6306 53.0367 25.248C53.3279 26.1206 53.5868 27.0029 53.7918 27.8975C53.9331 27.1121 54.0021 26.3166 53.9981 25.5199C53.9978 22.7383 53.347 19.8886 51.6833 17.5643Z" fill="#64A38A"/>
<path d="M26.7466 10.8369C26.276 10.8617 25.8168 10.9841 25.4012 11.1955C24.9857 11.4069 24.6239 11.7023 24.3413 12.0608C23.5066 12.9566 24.119 13.943 24.5775 14.8482C24.5662 14.6374 24.542 14.4275 24.5051 14.2194C24.5205 14.2456 24.5374 14.271 24.5558 14.2955C24.6294 14.3798 24.7278 14.4412 24.8384 14.4719C24.7095 15.1049 24.8219 15.6878 25.603 15.9546C26.4086 16.1642 27.081 15.5463 27.5846 15.028C28.2446 14.2906 28.8022 13.409 28.8774 12.4241C28.9703 10.9396 27.5219 10.8376 26.7466 10.8369ZM24.4475 13.4836C24.4544 13.2667 24.5219 13.0554 24.6433 12.8716C24.7669 12.7436 24.9031 12.6271 25.0498 12.5235L25.0449 12.5295C24.7917 12.814 24.5898 13.1364 24.4475 13.4836Z" fill="#64A38A"/>
<path d="M58.5369 31.2494C57.111 30.8795 55.6542 30.6432 54.2058 30.3706C52.5501 30.0594 50.8815 29.7127 49.1881 29.7065C48.9615 28.9238 48.7025 28.1498 48.426 27.3818C49.0106 27.7474 49.4796 28.2811 49.9451 28.7695C50.0555 28.896 50.1525 29.0178 50.2566 29.161C50.1149 28.745 49.9122 28.35 49.6546 27.9877C49.3794 27.5851 48.1709 26.0665 47.7333 26.9057C47.7051 27.3146 47.9825 27.687 48.133 28.0579C48.4176 28.6223 48.7323 29.1727 49.0759 29.7067C48.9799 29.7072 48.8841 29.7042 48.788 29.7071C45.5773 29.7432 42.3615 29.7149 39.1507 29.798C38.9512 28.6076 38.6362 26.9142 38.3543 25.8793C38.3577 25.882 38.361 25.8848 38.3643 25.8874C38.9449 26.3935 39.523 26.9353 39.8634 27.621C39.9354 27.7567 40.0011 27.8955 40.0646 28.0349C40.006 27.5465 39.8528 27.0727 39.6127 26.6374C39.383 26.2323 37.9253 24.089 37.4767 25.0223C37.3819 25.4002 37.6491 25.8537 37.7201 26.2359C38.0811 27.4511 38.5268 28.6421 39.0544 29.8009C37.1477 29.8516 35.2428 29.9418 33.3418 30.1093C33.377 28.9442 33.2675 27.7793 33.0155 26.6387C32.9076 27.8022 32.9698 28.9743 33.2003 30.1216C33.099 30.1308 32.9976 30.1387 32.8964 30.1482C31.5345 30.3163 30.1676 30.4164 28.7983 30.4706C29.0481 29.4117 29.0829 28.3173 28.901 27.246C28.7331 28.3134 28.6844 29.3947 28.7558 30.4719C27.15 30.5344 25.541 30.5328 23.9329 30.4998C24.128 29.9522 24.2822 29.3922 24.3946 28.8241C24.4719 29.0173 24.5451 29.2013 24.6105 29.3663C24.556 29.0904 24.5025 28.814 24.4481 28.5378C24.5914 27.7101 24.6403 26.8701 24.5941 26.0323C24.4418 26.5131 24.3194 26.9727 24.2178 27.4264C24.0841 26.8047 23.9174 26.1898 23.7184 25.5841C23.2483 24.2732 22.6728 22.9985 22.1957 21.6895C22.1429 21.5561 22.0902 21.4226 22.0378 21.2888C23.5991 19.1762 25.1991 17.3551 27.0742 15.2753C28.1661 14.0916 29.2159 12.8513 30.4279 11.7752C30.552 11.8997 30.6766 12.0265 30.8024 12.1596C30.7167 12.0016 30.6259 11.8429 30.5325 11.6845C30.8375 11.4182 31.15 11.1594 31.4796 10.9182C32.7648 9.93723 33.3117 10.2849 35.5265 12.78C36.044 13.3847 37.5596 15.3809 38.5739 16.591C39.7812 18.0585 40.5232 18.8416 41.5068 20.1685C42.4571 21.4536 43.403 22.743 44.2922 24.0672C45.0867 25.2857 45.8639 26.5157 46.6034 27.7651C46.5793 27.6951 46.5555 27.6249 46.5312 27.5549C45.4275 24.4819 43.9885 21.5272 42.2376 18.739C43.2862 16.9825 44.3381 15.5297 45.9185 14.1485C48.2229 12.4432 50.1887 11.6649 51.2987 13.683C52.0328 14.8302 52.4041 16.3143 53.3402 18.4071C54.8885 21.9104 56.0222 25.5534 57.316 29.1437C57.3652 29.2572 57.4699 29.6375 57.421 29.3317C57.2207 27.6242 56.9336 25.9271 56.6544 24.23C56.1171 20.9535 54.9587 17.8103 53.7669 14.7058C53.1102 12.9841 51.8944 11.0236 49.7323 10.9951C48.0618 10.9326 46.6965 12.0212 45.5354 13.0358C43.9546 14.6095 42.9399 16.6079 42.1802 18.6456C41.9232 18.2425 41.659 17.8437 41.3875 17.4492C39.6919 15.1812 38.0675 12.8495 36.1774 10.7218C35.0642 9.50331 33.5697 8.14003 31.7334 8.76699C30.9119 9.12838 30.1726 9.63888 29.557 10.2698C28.7367 9.27146 27.6994 8.4533 26.3739 8.18379C25.2979 7.96415 24.1755 8.09063 23.1834 8.54335C21.3125 9.35196 20.6034 11.6337 21.4974 13.3483C22.1379 14.7382 23.5984 15.5186 24.8855 16.3099C23.827 17.8992 22.8705 19.5479 22.0213 21.247C21.1437 19.012 20.2935 16.759 18.917 15.3189C18.0676 14.4236 16.5946 13.5358 15.4055 14.399C14.3708 15.2151 13.6263 16.3207 12.8268 17.3378C9.58491 21.6394 7.05626 26.3735 4.84029 31.2155C3.31435 31.4812 1.79096 31.7625 0.263672 32.0161C4.23511 31.9015 8.19179 31.4739 12.168 31.4919C16.9168 31.6192 21.6525 32.0821 26.4069 32.0541C29.0317 32.1173 31.6365 31.8166 34.2447 31.5909C37.0302 31.418 39.8219 31.343 42.613 31.3193C45.195 31.3323 47.7684 31.1377 50.3452 31.0447C51.7828 31.0636 53.2141 31.2064 54.6472 31.3025C56.0473 31.3763 57.4481 31.45 58.8401 31.6169C59.4375 31.6857 60.0496 31.7746 60.6628 31.9017C59.9695 31.6416 59.2594 31.4237 58.5369 31.2494V31.2494ZM22.5482 13.313C21.9383 11.6286 22.5292 10.2043 24.1458 9.57427C25.8986 8.91238 27.4932 9.33449 29.178 10.6546C28.7225 11.1368 28.2995 11.6491 27.8859 12.1425C26.8404 13.4894 25.8372 14.8706 24.899 16.2897C23.945 15.2728 22.8903 14.2746 22.5482 13.313ZM22.2113 30.4542C21.1421 30.412 20.0721 30.3597 19.0018 30.3127C19.4191 28.8881 19.8714 27.436 19.7462 25.9529C19.6667 25.3609 19.5279 24.7217 19.1038 24.2612C18.7848 23.9109 18.1595 23.8061 17.8716 24.2451C17.5161 24.8991 17.5517 25.6946 17.575 26.4139C17.613 27.1298 17.7894 28.259 17.8716 28.7444C18.0065 29.4518 17.8672 29.6947 17.2031 30.035C17.0951 30.0883 16.984 30.1356 16.8703 30.1769C17.011 30.1625 17.1504 30.1393 17.2878 30.1073C18.4439 29.8692 18.3991 29.1503 18.4225 28.2079C18.4444 27.3241 18.4462 26.3389 18.546 25.5985C19.0032 27.024 18.7924 28.614 18.7996 30.3039C17.665 30.255 16.5299 30.215 15.3951 30.2025C15.9446 28.5237 16.5316 26.5985 15.7459 24.913C15.4878 24.4886 14.8341 24.2726 14.4045 24.5929C13.9338 24.9595 13.9899 25.629 14.0645 26.1473C14.5829 28.0329 15.3515 27.8137 14.3079 29.8974C14.2132 30.0778 14.3544 29.8756 14.4122 29.8201C14.7922 29.3563 15.2327 28.8733 15.3022 28.2665C15.3979 27.7376 15.1332 27.2447 14.9913 26.7466C14.8489 26.3396 14.8004 25.9083 14.8488 25.4819C14.8588 25.4163 14.8772 25.352 14.9036 25.2907L14.9092 25.2926C14.9143 25.297 14.9201 25.3008 14.9263 25.3038C14.9607 25.3404 14.9903 25.3808 15.0145 25.4243C15.5193 26.9538 15.434 28.3072 15.3767 30.2022C14.1105 30.1885 12.8445 30.2093 11.5795 30.2951C9.32725 30.4709 7.10145 30.8223 4.88127 31.2085C8.39638 25.8764 12.8041 19.7961 16.1405 15.9801C16.2197 15.8915 16.3057 15.8087 16.3978 15.7322C16.4161 15.7209 16.4334 15.7082 16.4523 15.6978C16.4782 15.686 16.4979 15.6769 16.514 15.6694C16.5302 15.664 16.547 15.6606 16.5635 15.6559C17.3226 15.864 18.1352 16.6881 18.7841 17.7613C19.9548 19.6844 20.8339 21.7505 21.9118 23.7196C22.4375 24.6729 23.0302 25.5944 23.4691 26.5889C23.6001 26.8721 23.8418 27.4553 24.0896 28.0663C23.95 28.8707 23.8726 29.6837 23.858 30.4987C23.309 30.4871 22.76 30.4723 22.2113 30.4542Z" fill="black"/>
<path d="M42.7768 26.8258C42.7305 26.7254 42.6847 26.6249 42.6395 26.524C42.207 25.5137 41.6122 24.2536 41.0032 23.1548C39.7896 20.9527 38.2719 18.4294 35.5967 17.6948C34.7313 17.5299 33.9013 17.9088 33.1172 18.2077C33.8842 18.0553 34.925 17.9141 35.3965 18.1131C35.6826 18.2303 35.9514 18.3825 36.1959 18.566C36.6637 18.9168 37.0868 19.3182 37.4569 19.7621C38.9057 21.6575 40.1526 23.6888 41.6804 25.5319C42.0308 25.9746 42.3864 26.4142 42.7768 26.8258Z" fill="black"/>
<path d="M48.8562 25.0817C48.5589 22.4586 47.1582 19.9689 44.6797 18.6704C45.4681 19.5607 46.0291 20.1318 46.5934 21.2102C47.2764 22.4388 47.9781 23.6606 48.5344 24.9476C48.6651 25.2441 48.8068 25.5363 48.9365 25.833C48.9213 25.5816 48.8899 25.3314 48.8562 25.0817Z" fill="black"/>
<path d="M17.7047 18.4892C16.701 17.9354 15.8725 18.4933 15.1751 19.1936C13.8101 20.5868 12.864 22.2959 11.9335 23.9673C10.9729 25.685 9.91813 27.3536 8.77344 28.9661C10.3497 27.6275 11.7382 26.1017 12.9046 24.4262C13.7121 23.2532 14.3191 21.9702 15.0065 20.7329C15.2988 20.1875 15.6387 19.6663 16.0225 19.1748C16.3052 18.8305 16.5653 18.5799 17.0035 18.5206C17.3108 18.492 17.621 18.5314 17.9096 18.6357C18.1053 18.7106 17.7667 18.5256 17.7047 18.4892Z" fill="black"/>
<path d="M35.3771 27.5752C35.3186 27.3289 35.2536 27.0841 35.1755 26.8426C34.7039 25.4481 33.9366 24.1604 32.9208 23.0589C32.7053 22.8471 32.4755 22.619 32.1715 22.5312C32.085 22.5079 31.9943 22.5016 31.9051 22.5126C31.8159 22.5236 31.73 22.5517 31.6526 22.5953C31.5752 22.6389 31.508 22.6969 31.4549 22.766C31.4019 22.835 31.3642 22.9136 31.3441 22.9969C31.243 23.6162 31.801 24.1011 32.1421 24.5698C32.8919 25.5073 33.7602 26.3528 34.526 27.2764C35.1094 28.1062 35.3349 28.8632 35.7682 29.7977C35.6631 29.0561 35.596 28.2958 35.3771 27.5752Z" fill="black"/>
</g>
<defs>
<clipPath id="clip0_617_2">
<rect width="64" height="37" fill="white"/>
</clipPath>
</defs>
</svg>
