<svg width="80" height="44" viewBox="0 0 80 44" fill="none" xmlns="http://www.w3.org/2000/svg">
<g clip-path="url(#clip0_674_572)">
<path d="M24.7626 22.3556C24.647 21.8122 24.483 21.2821 24.273 20.773L24.2702 20.7656L24.2694 20.7638L24.272 20.7704L24.2679 20.76C23.6011 19.1012 22.4816 16.6675 20.4843 17.0931C19.6442 17.3305 19.1004 18.1388 18.7517 18.9541C18.2163 20.0804 17.693 21.2134 17.152 22.3365C15.536 25.6044 13.7245 28.7542 12.0314 31.9759C11.6363 32.4921 11.2541 33.0301 11.1371 33.677C10.9308 34.8856 12.2273 35.8045 13.1802 35.1791C13.2456 35.1415 13.233 35.1428 13.1895 35.1603C13.419 35.0363 13.65 34.8744 13.5663 34.8927C13.9618 34.6838 14.2847 34.3472 14.6471 34.0747C15.8584 33.0937 17.0835 32.1328 18.2784 31.1282C20.6242 29.0357 23.4775 27.1215 24.661 23.9554C24.9808 22.6601 24.7682 22.796 24.7626 22.3556ZM19.6182 24.75L19.6186 24.7493C19.9947 24.1235 20.35 23.4833 20.7058 22.844C20.6009 22.96 20.4946 23.0751 20.3847 23.1858C18.8436 24.8368 17.1757 26.3507 15.5795 27.9419C16.4101 26.9139 17.2328 25.8788 18.0311 24.8215C19.2903 23.1034 19.8302 22.2109 20.86 20.5472C20.9057 20.6519 20.9446 20.7443 20.9698 20.8041C21.1766 21.3451 21.33 21.9084 21.4272 22.4844C21.4204 22.5146 21.4122 22.5445 21.4052 22.5747C20.8939 23.4868 21.2876 22.9119 20.4083 23.9556C20.1476 24.2234 19.8829 24.4867 19.6182 24.75V24.75Z" fill="#64A38A"/>
<path d="M24.1699 20.5098C24.2032 20.5927 24.2354 20.6768 24.2681 20.7604L24.2696 20.7641C24.2352 20.6742 24.1912 20.5603 24.1699 20.5098Z" fill="#64A38A"/>
<path d="M49.1317 16.056C47.9174 12.9596 45.419 9.97416 42.0264 10.8205C39.3004 11.6261 36.9298 16.9271 35.8613 19.6026C37.7713 17.2192 39.9244 14.5772 41.9572 13.4341C42.0674 13.3917 42.1795 13.3554 42.2931 13.3255C42.4682 13.3085 42.6444 13.308 42.8196 13.3239C42.8493 13.3298 42.8793 13.3339 42.9088 13.3406C43.1446 13.3967 43.3756 13.4742 43.5995 13.5723C44.2307 13.9178 44.1646 13.8509 44.4521 14.2025C44.2412 14.1902 44.0297 14.1933 43.8191 14.2116C41.3499 14.262 39.557 16.4646 38.0764 18.3647C37.7472 18.7821 38.2486 18.3164 38.4224 18.2353C39.1785 17.7525 39.9657 17.3294 40.7613 16.9288C42.7966 15.7009 44.7863 16.508 45.5149 17.2087C46.2847 17.7959 46.8509 18.8559 47.8319 19.0211C49.4652 19.1503 49.836 17.3857 49.1317 16.056Z" fill="#64A38A"/>
<path d="M68.2457 17.6981C66.4466 14.4984 61.9751 13.0696 62.0358 18.245C62.9227 15.2671 64.3305 15.5681 65.5856 17.3131C66.7861 19.2612 67.259 21.2071 67.6802 22.1323C68.5224 24.5269 69.377 26.9188 70.0502 29.3772C70.4385 30.7035 70.7837 32.0448 71.057 33.4044C71.2454 32.2107 71.3374 31.0015 71.332 29.7905C71.3318 25.5625 70.4639 21.2309 68.2457 17.6981Z" fill="#64A38A"/>
<path d="M34.9948 7.47168C34.3673 7.50931 33.7551 7.69535 33.201 8.01673C32.6469 8.3381 32.1645 8.78702 31.7877 9.33195C30.6748 10.6936 31.4914 12.1929 32.1027 13.5688C32.0876 13.2485 32.0554 12.9293 32.0061 12.613C32.0267 12.6529 32.0493 12.6915 32.0737 12.7288C32.1718 12.8568 32.3031 12.9502 32.4505 12.9968C32.2787 13.959 32.4286 14.845 33.47 15.2506C34.5442 15.5691 35.4407 14.6299 36.1121 13.8421C36.9922 12.7213 37.7356 11.3813 37.8358 9.88421C37.9597 7.6277 36.0286 7.4727 34.9948 7.47168ZM31.9294 11.4946C31.9385 11.1649 32.0286 10.8438 32.1904 10.5644C32.3553 10.3699 32.5368 10.1928 32.7324 10.0353L32.7259 10.0444C32.3883 10.4768 32.1191 10.9669 31.9294 11.4946Z" fill="#64A38A"/>
<path d="M77.3813 38.4989C75.48 37.9367 73.5376 37.5775 71.6064 37.1632C69.3988 36.6901 67.1741 36.1632 64.9161 36.1537C64.614 34.964 64.2687 33.7875 63.9 32.6201C64.6795 33.1758 65.3048 33.9871 65.9255 34.7294C66.0728 34.9218 66.202 35.1069 66.3409 35.3246C66.1519 34.6922 65.8817 34.0918 65.5382 33.5411C65.1712 32.9292 63.56 30.6208 62.9765 31.8964C62.9388 32.518 63.3087 33.0841 63.5094 33.6477C63.8888 34.5058 64.3084 35.3423 64.7665 36.154C64.6385 36.1547 64.5109 36.1502 64.3827 36.1545C60.1017 36.2094 55.814 36.1664 51.5329 36.2928C51.2669 34.4833 50.847 31.9094 50.4711 30.3364C50.4756 30.3404 50.48 30.3447 50.4845 30.3487C51.2586 31.1179 52.0293 31.9415 52.4832 32.9837C52.5793 33.1901 52.6668 33.401 52.7515 33.6128C52.6734 32.8705 52.4691 32.1503 52.149 31.4886C51.8428 30.8729 49.8991 27.615 49.3009 29.0338C49.1746 29.6082 49.5309 30.2975 49.6256 30.8783C50.1068 32.7255 50.7011 34.5358 51.4045 36.2972C48.8623 36.3743 46.3224 36.5113 43.7878 36.7659C43.8347 34.995 43.6887 33.2243 43.3528 31.4906C43.2088 33.2591 43.2917 35.0408 43.5991 36.7847C43.464 36.7986 43.3289 36.8106 43.1938 36.8251C41.378 37.0806 39.5554 37.2327 37.7298 37.3151C38.0628 35.7056 38.1093 34.042 37.8667 32.4137C37.6429 34.0362 37.578 35.6798 37.673 37.3171C35.532 37.412 33.3867 37.4096 31.2426 37.3595C31.5027 36.5271 31.7084 35.676 31.8582 34.8124C31.9612 35.1061 32.0588 35.3857 32.146 35.6365C32.0734 35.2172 32.002 34.7972 31.9295 34.3773C32.1205 33.1191 32.1858 31.8423 32.1242 30.569C31.9211 31.2997 31.7579 31.9983 31.6224 32.6879C31.4442 31.7429 31.222 30.8083 30.9566 29.8876C30.3298 27.8951 29.5624 25.9575 28.9263 23.9678C28.8558 23.7651 28.7856 23.5621 28.7157 23.3588C30.7975 20.1476 32.9308 17.3796 35.431 14.2183C36.8868 12.4191 38.2865 10.5338 39.9025 8.89812C40.0681 9.08731 40.2342 9.28008 40.4019 9.48238C40.2876 9.24224 40.1665 9.00106 40.042 8.76021C40.4487 8.35541 40.8654 7.96203 41.3049 7.59541C43.0185 6.10439 43.7476 6.63286 46.7007 10.4254C47.3907 11.3446 49.4114 14.3787 50.7638 16.2182C52.3736 18.4487 53.363 19.639 54.6745 21.6559C55.9416 23.6092 57.2027 25.5691 58.3884 27.5819C59.4476 29.4341 60.4839 31.3037 61.4699 33.2028C61.4378 33.0963 61.406 32.9896 61.3736 32.8832C59.9021 28.2123 57.9833 23.7212 55.6488 19.4832C57.0469 16.8133 58.4495 14.605 60.5567 12.5056C63.6292 9.91349 66.2504 8.7304 67.7303 11.7979C68.7091 13.5417 69.2042 15.7975 70.4523 18.9786C72.5167 24.3035 74.0284 29.8409 75.7533 35.2982C75.819 35.4707 75.9585 36.0488 75.8934 35.584C75.6264 32.9885 75.2435 30.409 74.8712 27.8293C74.1548 22.8492 72.6103 18.0714 71.0213 13.3526C70.1457 10.7357 68.5246 7.75566 65.6418 7.71236C63.4145 7.61735 61.5941 9.27201 60.0459 10.8142C57.9381 13.2062 56.5853 16.2438 55.5723 19.341C55.2296 18.7283 54.8773 18.1222 54.5154 17.5226C52.2546 14.0752 50.0887 10.531 47.5686 7.29689C46.0843 5.44483 44.0916 3.37265 41.6433 4.32563C40.5479 4.87495 39.5621 5.6509 38.7414 6.60988C37.6476 5.09242 36.2646 3.84883 34.4972 3.43917C33.0625 3.10531 31.5661 3.29756 30.2432 3.98569C27.7487 5.21478 26.8033 8.68299 27.9953 11.2893C28.8493 13.4018 30.7966 14.5881 32.5127 15.7909C31.1013 18.2066 29.826 20.7127 28.6937 23.2952C27.5237 19.898 26.39 16.4735 24.5548 14.2845C23.4222 12.9237 21.4582 11.5742 19.8728 12.8863C18.4931 14.1267 17.5005 15.8073 16.4345 17.3533C12.1119 23.8916 8.74037 31.0876 5.78575 38.4474C3.75117 38.8513 1.71998 39.2788 -0.316406 39.6644C4.97884 39.4901 10.2544 38.8401 15.556 38.8675C21.8878 39.0609 28.202 39.7646 34.5412 39.7221C38.0409 39.818 41.514 39.3611 44.9917 39.018C48.7057 38.7551 52.4279 38.6412 56.1493 38.6052C59.5921 38.6249 63.0233 38.3291 66.459 38.1877C68.3758 38.2165 70.2842 38.4335 72.195 38.5796C74.0618 38.6917 75.9295 38.8039 77.7855 39.0575C78.5821 39.162 79.3981 39.2971 80.2158 39.4905C79.2914 39.095 78.3446 38.7638 77.3813 38.4989V38.4989ZM29.3963 11.2356C28.5831 8.67527 29.371 6.51039 31.5264 5.5527C33.8635 4.54662 35.9897 5.18823 38.2361 7.19477C37.6286 7.92779 37.0647 8.70636 36.5133 9.4564C35.1192 11.5038 33.7816 13.6031 32.5307 15.7602C31.2587 14.2144 29.8524 12.6973 29.3963 11.2356ZM28.9471 37.2903C27.5215 37.226 26.0949 37.1465 24.6677 37.0751C25.2241 34.9097 25.8273 32.7025 25.6603 30.4481C25.5543 29.5483 25.3693 28.5769 24.8038 27.8768C24.3784 27.3444 23.5446 27.1851 23.1608 27.8523C22.6868 28.8465 22.7343 30.0555 22.7654 31.1489C22.816 32.2371 23.0513 33.9534 23.1608 34.6913C23.3407 35.7666 23.1549 36.1357 22.2695 36.653C22.1255 36.734 21.9773 36.806 21.8258 36.8687C22.0133 36.8468 22.1993 36.8115 22.3825 36.7629C23.924 36.4009 23.8641 35.3082 23.8953 33.8759C23.9246 32.5324 23.927 31.035 24.0601 29.9096C24.6697 32.0763 24.3885 34.4931 24.3982 37.0618C22.8853 36.9874 21.3719 36.9267 19.8588 36.9076C20.5916 34.3558 21.3741 31.4295 20.3266 28.8675C19.9824 28.2224 19.1108 27.8942 18.538 28.381C17.9105 28.9382 17.9852 29.9558 18.0847 30.7437C18.7759 33.6098 19.8007 33.2767 18.4093 36.4438C18.283 36.7181 18.4713 36.4107 18.5484 36.3263C19.055 35.6214 19.6423 34.8872 19.735 33.9649C19.8626 33.1609 19.5096 32.4118 19.3204 31.6546C19.1306 31.036 19.0658 30.3804 19.1305 29.7323C19.1437 29.6325 19.1683 29.5349 19.2035 29.4416L19.2109 29.4446C19.2178 29.4513 19.2255 29.457 19.2338 29.4615C19.2797 29.5172 19.3191 29.5787 19.3513 29.6447C20.0244 31.9696 19.9107 34.0268 19.8344 36.9071C18.146 36.8863 16.458 36.918 14.7713 37.0484C11.7684 37.3156 8.80063 37.8497 5.8404 38.4367C10.5272 30.3319 16.4042 21.0898 20.8527 15.2896C20.9582 15.1549 21.0729 15.029 21.1957 14.9128C21.2202 14.8956 21.2433 14.8762 21.2685 14.8604C21.3029 14.8425 21.3293 14.8286 21.3507 14.8172C21.3723 14.8091 21.3947 14.8039 21.4167 14.7967C22.4288 15.1131 23.5124 16.3657 24.3775 17.997C25.9384 20.9201 27.1106 24.0605 28.5478 27.0536C29.2487 28.5026 30.0389 29.9034 30.6242 31.415C30.7989 31.8454 31.1211 32.7319 31.4515 33.6606C31.2654 34.8832 31.1622 36.119 31.1427 37.3579C30.4106 37.3403 29.6787 37.3177 28.9471 37.2903Z" fill="black"/>
<path d="M56.3678 31.7759C56.3061 31.6233 56.245 31.4704 56.1847 31.3172C55.6081 29.7815 54.8149 27.8662 54.003 26.1959C52.3849 22.8488 50.3612 19.0134 46.7943 17.8967C45.6405 17.6462 44.5338 18.222 43.4883 18.6764C44.511 18.4447 45.8987 18.2301 46.5274 18.5326C46.9089 18.7107 47.2672 18.9421 47.5933 19.221C48.2169 19.7543 48.7811 20.3644 49.2745 21.039C51.2063 23.9201 52.8689 27.0076 54.9059 29.8091C55.373 30.482 55.8473 31.1503 56.3678 31.7759Z" fill="black"/>
<path d="M64.4749 29.1241C64.0785 25.137 62.211 21.3527 58.9062 19.3789C59.9574 20.7322 60.7054 21.6002 61.4579 23.2395C62.3685 25.1069 63.3041 26.964 64.0459 28.9202C64.2201 29.3708 64.409 29.815 64.582 30.266C64.5617 29.884 64.5199 29.5036 64.4749 29.1241Z" fill="black"/>
<path d="M22.9396 19.1038C21.6014 18.262 20.4967 19.1099 19.5669 20.1744C17.7468 22.2922 16.4853 24.89 15.2447 27.4306C13.9639 30.0414 12.5575 32.5776 11.0312 35.0287C13.133 32.9941 14.9843 30.6748 16.5394 28.128C17.6162 26.345 18.4255 24.3949 19.342 22.5142C19.7318 21.6852 20.1849 20.893 20.6966 20.1459C21.0736 19.6225 21.4204 19.2417 22.0046 19.1514C22.4144 19.1081 22.8279 19.168 23.2128 19.3265C23.4737 19.4404 23.0223 19.1591 22.9396 19.1038Z" fill="black"/>
<path d="M46.5028 32.9142C46.4248 32.5398 46.3381 32.1676 46.234 31.8005C45.6052 29.681 44.5821 27.7236 43.2277 26.0493C42.9404 25.7274 42.634 25.3806 42.2287 25.2473C42.1133 25.2118 41.9924 25.2022 41.8735 25.2189C41.7546 25.2357 41.64 25.2785 41.5368 25.3447C41.4337 25.4109 41.344 25.4992 41.2733 25.6041C41.2025 25.709 41.1522 25.8285 41.1255 25.9551C40.9906 26.8965 41.7347 27.6335 42.1894 28.3458C43.1893 29.7708 44.347 31.0561 45.368 32.46C46.1459 33.7212 46.4466 34.8718 47.0243 36.2923C46.8842 35.165 46.7947 34.0094 46.5028 32.9142Z" fill="black"/>
</g>
<defs>
<clipPath id="clip0_674_572">
<rect width="80" height="44" fill="white"/>
</clipPath>
</defs>
</svg>
