<svg width="201" height="132" viewBox="0 0 201 132" fill="none" xmlns="http://www.w3.org/2000/svg">
<path d="M9.81768 124.047C9.81768 125.005 23.6154 125.787 40.6403 125.787C57.6652 125.787 71.4629 125.005 71.4629 124.047C71.4629 123.089 57.6652 122.307 40.6403 122.307C23.6154 122.307 9.81768 123.089 9.81768 124.047Z" fill="#CFBF8B"/>
<path d="M135.789 124.047C135.789 125.005 149.587 125.787 166.612 125.787C183.637 125.787 197.45 125.005 197.45 124.047C197.45 123.089 183.653 122.307 166.628 122.307C149.603 122.307 135.805 123.089 135.805 124.047H135.789Z" fill="#CFBF8B"/>
<path d="M120.682 115.379H109.566V113.592H120.682V115.379Z" fill="#0B2B52"/>
<path d="M22.4895 114.384C12.4556 106.867 12.4556 94.6797 22.4895 87.1626C32.5233 79.6456 48.7914 79.6456 58.8253 87.1626C68.8591 94.6797 68.8591 106.867 58.8253 114.384C48.7914 121.901 32.5233 121.901 22.4895 114.384Z" stroke="#092242" stroke-width="1.11" stroke-miterlimit="10"/>
<path d="M20.3285 116.003C9.10129 107.592 9.1013 93.9549 20.3285 85.5439C31.5557 77.1328 49.7586 77.1328 60.9858 85.5438C72.213 93.9549 72.213 107.592 60.9858 116.003C49.7586 124.414 31.5557 124.414 20.3285 116.003Z" stroke="#006EED" stroke-width="3" stroke-miterlimit="10"/>
<path d="M141.429 104.538C138.646 94.1142 147.67 83.9735 161.584 81.8886C175.499 79.8038 189.035 86.5642 191.818 96.9885C194.6 107.413 185.577 117.553 171.662 119.638C157.748 121.723 144.212 114.963 141.429 104.538Z" stroke="#092242" stroke-width="1.11" stroke-miterlimit="10"/>
<path d="M138.58 105.503C135.081 93.9004 144.8 82.3698 160.288 79.7486C175.775 77.1275 191.166 84.4084 194.665 96.0111C198.164 107.614 188.445 119.144 172.958 121.766C157.47 124.387 142.079 117.106 138.58 105.503Z" stroke="#006EED" stroke-width="3" stroke-miterlimit="10"/>
<path d="M101.101 87.1484L108.631 100.767" stroke="#0B2B52" stroke-width="0.98" stroke-miterlimit="10"/>
<path d="M106.791 88.0371H95.6748V86.2501H106.791V88.0371Z" fill="#0B2B52"/>
<path d="M110.673 93.959L166.612 97.8951V103.443L109.566 107.671" stroke="#787878" stroke-width="0.74" stroke-miterlimit="10"/>
<path d="M119.201 100.769C119.201 105.149 114.462 108.688 108.631 108.688C102.8 108.688 98.0603 105.137 98.0603 100.769C98.0603 96.4003 102.8 92.8496 108.631 92.8496C114.462 92.8496 119.201 96.4003 119.201 100.769Z" fill="#CE7A56"/>
<path d="M171.461 100.767C171.461 102.776 169.294 104.4 166.612 104.4C163.931 104.4 161.764 102.776 161.764 100.767C161.764 98.7583 163.931 97.1348 166.612 97.1348C169.294 97.1348 171.461 98.7583 171.461 100.767Z" fill="#CE7A56"/>
<path d="M45.5049 100.767C45.5049 102.776 43.3378 104.4 40.6562 104.4C37.9746 104.4 35.8075 102.776 35.8075 100.767C35.8075 98.7583 37.9746 97.1348 40.6562 97.1348C43.3378 97.1348 45.5049 98.7583 45.5049 100.767Z" fill="#CE7A56"/>
<path d="M108.631 100.85L116.146 114.48" stroke="#0B2B52" stroke-width="0.98" stroke-miterlimit="10"/>
<path d="M109.566 98.0331L120.589 61.5332" stroke="#256B62" stroke-width="2" stroke-linecap="round" stroke-linejoin="round"/>
<path d="M101.24 80.0586C101.24 80.0586 107.18 86.249 104.873 86.249H91.2935C90.6231 86.249 90.4048 85.5715 90.9973 85.338L98.0598 82.6399L96.7502 80.0586H101.24Z" fill="#6B3E00"/>
<path d="M109.566 45.9068C108.895 49.4225 86.7412 51.0226 82.9059 56.5706C79.0706 62.1186 96.2358 81.5074 96.2358 81.5074L103.002 80.9467L96.7971 61.5346C96.7971 61.5346 115.132 59.1285 121.851 58.2876C128.571 57.4466 130.52 44.3066 130.52 44.3066L109.566 45.9068Z" fill="#9E693D"/>
<path d="M119.201 63.8711H55.2953" stroke="#256B62" stroke-width="2" stroke-linecap="round" stroke-linejoin="round"/>
<path d="M109.566 45.9068L130.52 44.3066C130.52 44.3066 128.571 57.4466 121.867 58.2876C118.468 58.7081 112.091 59.5373 106.619 60.2498L92.2446 51.8519C99.8528 49.621 109.129 48.1494 109.566 45.8951V45.9068Z" fill="#6B3E00"/>
<path d="M68.9375 45.4746C63.8706 46.0586 55.2957 46.8295 55.2957 59.3504" stroke="#256B62" stroke-width="2" stroke-linecap="round" stroke-linejoin="round"/>
<path d="M55.2956 59.3496C55.2956 59.3496 55.5606 88.0473 40.656 100.767" stroke="#256B62" stroke-width="1.98" stroke-linecap="round" stroke-linejoin="round"/>
<path d="M44.6778 54.8906C49.0899 54.8906 52.6602 56.409 52.6602 58.2895C52.6602 60.17 49.0899 61.6884 44.6778 61.6884V54.9023V54.8906Z" fill="#256B62"/>
<path d="M166.613 100.767H95.6287C95.6287 100.767 96.6577 91.6562 108.616 91.6562C120.574 91.6562 166.613 96.7137 166.613 96.7137C166.613 96.7137 172.553 96.4217 172.553 100.802L166.613 100.755V100.767Z" fill="#256B62"/>
<path d="M54.7033 68.2383C65.6323 68.2383 70.3095 83.0018 81.6127 89.5659C92.9159 96.1301 110.112 96.2352 110.112 96.2352" stroke="#256B62" stroke-width="1.98" stroke-linecap="round" stroke-linejoin="round"/>
<path d="M119.201 66.125C144.317 71.4394 166.44 99.156 166.44 99.156" stroke="#256B62" stroke-width="1.98" stroke-linecap="round" stroke-linejoin="round"/>
<path d="M119.887 63.8711H157.414L167.36 99.1563" stroke="#256B62" stroke-linecap="round" stroke-linejoin="round"/>
<path d="M137.536 64.8985H168.717C169.793 64.8985 170.666 64.2444 170.666 63.4385C170.666 62.6326 169.793 61.9785 168.717 61.9785H137.536C136.46 61.9785 135.587 62.6326 135.587 63.4385C135.587 64.2444 136.46 64.8985 137.536 64.8985Z" fill="#E09941"/>
<path d="M112.388 57.4473H130.52V61.5353H112.388V57.4473Z" fill="#9E693D"/>
<path d="M141.807 42.4141H167.766V61.978H141.807V42.4141Z" fill="#9E693D"/>
<path d="M154.795 42.4141V61.978" stroke="#CE7A56" stroke-width="0.5" stroke-miterlimit="10"/>
<path d="M154.701 42.5779C154.701 42.5779 160.158 33.8179 163.276 35.3246C166.394 36.8314 159.893 44.4701 154.109 42.2859C148.325 40.0901 146.438 34.7874 143.008 37.3686C139.563 39.9499 153.142 43.7459 154.701 42.5779Z" stroke="#CE7A56" stroke-width="0.5" stroke-miterlimit="10"/>
<path d="M85.292 44.9363L75.7661 46.3028C75.7661 46.3028 67.1913 43.3828 64.5877 43.6748C61.9841 43.9668 62.1244 45.4735 62.1244 45.4735H63.6834C63.6834 45.4735 65.1178 48.1483 68.2359 48.1483H84.2162L85.292 44.9363Z" fill="#E68CA3"/>
<path d="M119.201 107.671V110.743C119.201 110.743 120.542 112.927 119.201 113.592C117.86 114.247 104.328 114.609 103.236 113.663C101.381 112.062 111.281 111.058 112.154 109.937C113.027 108.815 113.183 107.309 113.183 107.309L119.201 107.671Z" fill="#6B3E00"/>
<path d="M133.248 42.8008C134.807 48.6875 133.638 57.0153 130.52 64.8993C127.402 72.7833 119.871 108.699 119.871 108.699L110.096 108.617C110.096 108.617 109.363 81.4031 110.096 74.839C110.829 68.2748 111.016 45.4989 111.016 45.4989L133.232 42.8241L133.248 42.8008Z" fill="#9E693D"/>
<path d="M100.041 19.8033C100.041 19.8033 101.74 24.9892 102.644 29.4626C103.549 33.9361 104.079 45.908 107.197 46.8892C110.315 47.8703 113.043 46.5037 118.235 46.5037C123.427 46.5037 135.899 46.3052 135.572 43.1983C135.244 40.0797 135.759 35.6063 130.053 28.5049C124.331 21.4034 112.669 12.0127 110.097 12.6434C107.524 13.2742 100.025 17.6542 100.025 19.8266L100.041 19.8033Z" fill="#E09941"/>
<path d="M107.134 4.59497C106.167 2.66777 103.236 -0.077021 98.6527 0.577058C94.0691 1.23114 90.265 7.00105 90.265 7.00105L88.7059 7.94713L89.7817 8.75305C89.7817 8.75305 89.2984 11.381 89.6881 12.771C90.0779 14.1609 91.3407 14.7449 93.7729 14.593C96.205 14.4412 97.6705 14.7332 98.6371 15.691C99.6038 16.6487 100.383 17.443 100.383 17.443L108.568 12.6308C108.568 12.6308 107.43 5.22569 107.103 4.59497H107.134Z" fill="#E68CA3"/>
<path d="M105.356 2.42188C105.356 2.42188 104.889 3.50811 101.677 4.09211C98.4654 4.67611 97.5923 5.62219 98.0756 7.59611C98.5589 9.57002 98.7616 10.6563 100.024 11.7542C101.287 12.8521 107.523 11.2403 108.599 9.78026C109.675 8.32027 112.06 4.25563 105.356 2.42188Z" fill="#787878"/>
<path d="M109.909 11.556C109.909 11.556 99.6662 15.1535 99.9313 19.2415C100.196 23.3295 117.471 36.8549 119.809 38.2214C122.148 39.588 127.34 42.4029 127.34 42.4029L141.808 33.3976L138.518 32.3814C138.518 32.3814 139.298 30.1389 136.055 26.9853C132.812 23.82 126.997 20.5146 120.869 16.4266C114.742 12.3386 111.842 10.7852 109.909 11.556Z" fill="#0B2B52"/>
<path d="M109.566 17.0111C103.798 17.0929 100.96 25.5726 99.5415 31.4126C98.1227 37.2526 96.0336 40.9551 96.0336 40.9551L82.9063 44.2605V49.8085C82.9063 49.8085 98.3722 49.5165 103.049 47.0871C107.727 44.6577 112.014 32.9777 113.963 28.5977C115.912 24.2177 118.172 16.8943 109.566 17.0111Z" fill="#0B2B52"/>
</svg>
