<svg width="116" height="99" viewBox="0 0 116 99" fill="none" xmlns="http://www.w3.org/2000/svg">
<g clip-path="url(#clip0_615_5)">
<path d="M24.8002 57.7242C30.8352 54.3284 35.2366 48.9077 41.1416 45.4143C43.8292 43.8247 42.7093 41.3744 42.4538 39.4692C40.9373 28.1493 40.5285 16.695 40.4111 5.18757C40.3993 4.29054 40.3093 3.32572 40.6007 2.48037C41.1408 0.904551 41.7888 -0.737339 43.7684 1.22425C49.1114 6.50768 54.5282 11.7205 59.8988 16.9847C62.2269 19.268 64.6265 21.4919 66.7724 23.9405C68.2282 25.6088 69.8258 24.0469 70.6844 23.6154C78.4898 19.6966 86.1858 15.5337 93.8401 11.2963C95.2082 10.5364 96.8378 9.48959 97.8668 10.1082C98.9518 10.763 98.5747 12.6302 98.2571 14.069C96.5726 21.727 94.7115 29.3673 92.0202 36.8343C90.1463 42.0505 90.9226 46.6653 93.1123 51.3182C96.7912 59.1248 100.154 67.0961 103.547 75.037C103.894 75.8407 104.347 76.9569 103.566 77.9095C102.696 78.971 101.491 78.6735 100.53 78.3566C92.2486 75.6397 83.7719 73.3333 76.0327 69.4542C73.2984 68.0871 71.9052 67.2709 70.755 71.7163C68.5634 80.2197 64.7103 88.3306 59.7249 95.8953C59.1444 96.7826 59.2586 98.4567 57.5473 98.4479C55.7065 98.4449 55.0552 96.9867 54.7485 95.6831C53.5134 90.4278 52.461 85.1106 52.3287 79.6111C52.2987 78.5854 52.3642 77.5494 52.3047 76.5254C51.911 69.9925 49.9033 68.475 43.0561 68.5544C34.445 68.6524 25.6954 70.1959 17.2285 68.5049C16.1065 68.2815 14.5931 68.6434 14.1264 67.2727C13.5672 65.6085 15.6207 65.6512 16.211 64.7192C18.2995 61.4085 22.1155 60.1982 24.7982 57.7068L24.8002 57.7242Z" fill="#1A1A1A"/>
<path d="M24.4495 98.5193C23.6775 98.7958 23.13 100.141 22.0479 99.1824C20.8875 98.156 21.9327 97.0375 22.528 96.4793C27.3346 91.916 31.4668 86.8443 35.3799 81.577C35.826 80.9818 36.7575 79.8769 37.7347 80.7297C38.7745 81.6425 38.3757 82.6573 37.5269 83.8363C34.6521 87.8579 31.4726 91.6496 27.8997 95.0849C26.725 96.2092 26.2159 97.9614 24.4495 98.5193V98.5193Z" fill="#1A1A1A"/>
<path d="M100.236 49.4327C101.254 48.4369 102.646 48.2828 103.343 48.5302C109.127 50.6002 115.35 50.1281 121.457 50.0482C123.099 50.0305 123.851 50.6067 124.004 51.6028C124.214 53.0026 122.911 53.0192 121.762 53.1539C115 53.9564 108.598 52.5736 102.127 51.6352C100.914 51.4571 100.773 50.2445 100.243 49.4279L100.236 49.4327Z" fill="#1A1A1A"/>
<path d="M89.7084 -6.34019C90.6752 -5.01802 89.726 -4.59856 89.0806 -4.15604C83.6044 -0.387589 79.2694 4.46783 75.3888 9.69349C74.4686 10.9319 73.4667 11.6429 72.4791 10.8633C71.9125 10.4208 72.1498 9.16068 72.9612 7.91358C76.5587 2.38634 81.8956 -1.46373 86.4733 -6.04588C87.6096 -7.18102 88.9128 -7.32967 89.7039 -6.34652L89.7084 -6.34019Z" fill="#1A1A1A"/>
<path d="M26.4469 38.9367C24.7759 39.2203 22.8199 39.5808 20.8511 39.8938C17.0386 40.5076 13.2275 41.1675 9.41053 41.643C8.23683 41.7858 6.68455 41.6374 6.53443 40.2054C6.4035 38.9769 7.84553 38.2783 8.79226 38.2661C14.6435 38.158 20.3963 36.7797 26.1762 35.8068C27.2347 35.6315 28.109 35.4719 28.3872 36.5879C28.7017 37.8293 27.2725 37.9153 26.4424 38.9304L26.4469 38.9367Z" fill="#1A1A1A"/>
<path d="M64.927 -5.18901C64.9289 -4.90748 65.0269 -4.40083 64.9235 -3.93236C64.2666 -0.982884 64.1189 1.93077 64.6431 4.83595C64.776 5.55388 64.6928 6.5646 63.7613 6.87734C63.0263 7.11855 62.1746 7.0171 61.6749 6.24479C60.5628 4.52451 60.9652 -3.15994 62.2994 -4.84859C62.9862 -5.71614 63.6937 -6.73018 64.927 -5.18901V-5.18901Z" fill="#1A1A1A"/>
<path d="M40.4808 100.392C39.5055 101.405 38.6838 101.273 37.9389 101.031C37.1286 100.769 37.3521 100.046 37.4974 99.3884C38.1616 96.4054 38.7874 93.4116 39.4856 90.4332C39.6771 89.5918 40.357 88.9932 41.2324 89.0404C41.9512 89.084 42.3632 89.8045 42.282 90.4366C41.8836 93.5352 41.3878 96.6266 40.8806 99.7164C40.8269 100.065 40.4877 100.388 40.4852 100.399L40.4808 100.392Z" fill="#1A1A1A"/>
<path d="M104.461 40.7685C102.446 41.3968 100.397 44.9251 98.9203 42.7719C97.2308 40.3149 101.164 39.4186 102.813 38.1506C104.278 37.0304 106.479 34.2167 107.885 36.24C109.558 38.6431 105.581 39.1548 104.468 40.7637L104.461 40.7685Z" fill="#1A1A1A"/>
<path d="M19.2353 26.9649C21.951 24.2712 25.1126 26.3953 28.0759 26.065C28.649 26.0032 29.5967 27.2539 29.2126 28.2018C28.9541 28.8449 28.0547 29.2767 27.1153 29.1234C24.4036 28.6835 21.075 30.1938 19.2422 26.9601L19.2353 26.9649Z" fill="#1A1A1A"/>
<path d="M57.6345 93.3793C55.8776 86.3959 55.4504 79.9618 55.4216 73.4658C55.3971 69.2206 53.709 67.3378 49.4814 66.4787C40.6167 64.6891 31.432 66.3298 22.4314 66.1065C21.3832 66.0766 20.4128 66.143 19.0605 65.5906C27.4099 60.1309 34.1987 53.2933 42.4191 48.3389C45.02 46.7723 45.9141 44.8071 45.6937 42.057C44.9973 33.1994 44.3919 24.3251 43.8457 15.4472C43.6617 12.4264 43.7666 9.36356 43.7362 6.12204C47.558 8.3968 49.9806 11.9153 53.0989 14.711C57.574 18.7255 61.7832 23.0206 66.0318 27.2691C67.0204 28.2555 67.8598 28.4127 69.1955 27.6944C77.377 23.2858 85.5826 18.9264 94.7852 14.0104C93.6414 19.0077 92.7359 23.4798 91.5611 27.9047C90.2652 32.7728 88.571 37.5708 87.343 42.4479C86.4804 45.881 88.7691 48.4748 89.9343 51.3272C93.1101 59.0901 96.407 66.8058 99.599 74.4158C90.4576 72.4804 81.8042 68.5719 73.0858 64.8787C69.7553 63.467 68.9276 64.7349 68.3831 67.4926C66.6238 76.4666 62.7583 84.7653 57.6276 93.3841L57.6345 93.3793Z" fill="#CFBF8B"/>
</g>
<defs>
<clipPath id="clip0_615_5">
<rect width="116" height="99" fill="white"/>
</clipPath>
</defs>
</svg>
