<svg width="1809" height="825" viewBox="0 0 1809 825" fill="none" xmlns="http://www.w3.org/2000/svg">
<g clip-path="url(#clip0_628_2)">
<path d="M1717.8 57.7242C1723.84 54.3284 1728.24 48.9077 1734.14 45.4143C1736.83 43.8247 1735.71 41.3744 1735.45 39.4692C1733.94 28.1493 1733.53 16.695 1733.41 5.18757C1733.4 4.29054 1733.31 3.32572 1733.6 2.48037C1734.14 0.904551 1734.79 -0.737339 1736.77 1.22425C1742.11 6.50768 1747.53 11.7205 1752.9 16.9847C1755.23 19.268 1757.63 21.4919 1759.77 23.9405C1761.23 25.6088 1762.83 24.0469 1763.68 23.6154C1771.49 19.6966 1779.19 15.5337 1786.84 11.2963C1788.21 10.5363 1789.84 9.48959 1790.87 10.1082C1791.95 10.763 1791.57 12.6302 1791.26 14.069C1789.57 21.727 1787.71 29.3673 1785.02 36.8343C1783.15 42.0505 1783.92 46.6653 1786.11 51.3182C1789.79 59.1248 1793.15 67.0961 1796.55 75.037C1796.89 75.8407 1797.35 76.9569 1796.57 77.9095C1795.7 78.971 1794.49 78.6735 1793.53 78.3566C1785.25 75.6397 1776.77 73.3333 1769.03 69.4542C1766.3 68.0871 1764.91 67.2709 1763.75 71.7163C1761.56 80.2197 1757.71 88.3306 1752.72 95.8953C1752.14 96.7826 1752.26 98.4567 1750.55 98.4479C1748.71 98.4449 1748.06 96.9867 1747.75 95.6831C1746.51 90.4278 1745.46 85.1106 1745.33 79.6111C1745.3 78.5854 1745.36 77.5494 1745.3 76.5255C1744.91 69.9925 1742.9 68.475 1736.06 68.5544C1727.44 68.6524 1718.7 70.1959 1710.23 68.5049C1709.11 68.2815 1707.59 68.6434 1707.13 67.2727C1706.57 65.6085 1708.62 65.6512 1709.21 64.7192C1711.3 61.4085 1715.12 60.1982 1717.8 57.7068L1717.8 57.7242Z" fill="#1A1A1A"/>
<path d="M1717.45 98.5193C1716.68 98.7958 1716.13 100.141 1715.05 99.1824C1713.89 98.156 1714.93 97.0375 1715.53 96.4793C1720.33 91.916 1724.47 86.8443 1728.38 81.577C1728.83 80.9818 1729.76 79.8769 1730.73 80.7297C1731.77 81.6425 1731.38 82.6573 1730.53 83.8363C1727.65 87.8579 1724.47 91.6496 1720.9 95.0849C1719.73 96.2092 1719.22 97.9614 1717.45 98.5193Z" fill="#1A1A1A"/>
<path d="M1793.24 49.4327C1794.25 48.4369 1795.65 48.2828 1796.34 48.5302C1802.13 50.6002 1808.35 50.1281 1814.46 50.0482C1816.1 50.0305 1816.85 50.6067 1817 51.6028C1817.21 53.0026 1815.91 53.0192 1814.76 53.1539C1808 53.9564 1801.6 52.5736 1795.13 51.6352C1793.91 51.4571 1793.77 50.2445 1793.24 49.4279L1793.24 49.4327Z" fill="#1A1A1A"/>
<path d="M1782.71 -6.34019C1783.68 -5.01802 1782.73 -4.59856 1782.08 -4.15604C1776.6 -0.387589 1772.27 4.46783 1768.39 9.69349C1767.47 10.9319 1766.47 11.6429 1765.48 10.8633C1764.91 10.4208 1765.15 9.16068 1765.96 7.91358C1769.56 2.38634 1774.9 -1.46373 1779.47 -6.04588C1780.61 -7.18102 1781.91 -7.32967 1782.7 -6.34652L1782.71 -6.34019Z" fill="#1A1A1A"/>
<path d="M1719.45 38.9367C1717.78 39.2203 1715.82 39.5808 1713.85 39.8938C1710.04 40.5076 1706.23 41.1675 1702.41 41.643C1701.24 41.7858 1699.68 41.6374 1699.53 40.2054C1699.4 38.9769 1700.85 38.2783 1701.79 38.2661C1707.64 38.158 1713.4 36.7797 1719.18 35.8068C1720.23 35.6315 1721.11 35.4719 1721.39 36.5879C1721.7 37.8293 1720.27 37.9153 1719.44 38.9304L1719.45 38.9367Z" fill="#1A1A1A"/>
<path d="M1757.93 -5.18901C1757.93 -4.90748 1758.03 -4.40083 1757.92 -3.93236C1757.27 -0.982884 1757.12 1.93077 1757.64 4.83595C1757.78 5.55388 1757.69 6.5646 1756.76 6.87734C1756.03 7.11855 1755.17 7.0171 1754.67 6.24479C1753.56 4.52451 1753.97 -3.15994 1755.3 -4.84859C1755.99 -5.71614 1756.69 -6.73018 1757.93 -5.18901Z" fill="#1A1A1A"/>
<path d="M1733.48 100.392C1732.51 101.405 1731.68 101.273 1730.94 101.031C1730.13 100.769 1730.35 100.046 1730.5 99.3884C1731.16 96.4054 1731.79 93.4116 1732.49 90.4332C1732.68 89.5918 1733.36 88.9932 1734.23 89.0404C1734.95 89.084 1735.36 89.8045 1735.28 90.4366C1734.88 93.5352 1734.39 96.6266 1733.88 99.7164C1733.83 100.065 1733.49 100.388 1733.49 100.399L1733.48 100.392Z" fill="#1A1A1A"/>
<path d="M1797.46 40.7685C1795.45 41.3968 1793.4 44.9251 1791.92 42.7719C1790.23 40.3149 1794.16 39.4186 1795.81 38.1506C1797.28 37.0304 1799.48 34.2167 1800.89 36.24C1802.56 38.6431 1798.58 39.1548 1797.47 40.7637L1797.46 40.7685Z" fill="#1A1A1A"/>
<path d="M1712.24 26.9649C1714.95 24.2712 1718.11 26.3953 1721.08 26.065C1721.65 26.0032 1722.6 27.2539 1722.21 28.2018C1721.95 28.8449 1721.05 29.2767 1720.12 29.1234C1717.4 28.6835 1714.08 30.1938 1712.24 26.9601L1712.24 26.9649Z" fill="#1A1A1A"/>
<path d="M1750.63 93.3793C1748.88 86.3959 1748.45 79.9618 1748.42 73.4658C1748.4 69.2206 1746.71 67.3378 1742.48 66.4787C1733.62 64.6891 1724.43 66.3298 1715.43 66.1065C1714.38 66.0766 1713.41 66.143 1712.06 65.5906C1720.41 60.1309 1727.2 53.2933 1735.42 48.3389C1738.02 46.7723 1738.91 44.8071 1738.69 42.057C1738 33.1994 1737.39 24.3251 1736.85 15.4472C1736.66 12.4264 1736.77 9.36356 1736.74 6.12204C1740.56 8.39679 1742.98 11.9153 1746.1 14.711C1750.57 18.7255 1754.78 23.0206 1759.03 27.2691C1760.02 28.2555 1760.86 28.4127 1762.2 27.6944C1770.38 23.2858 1778.58 18.9264 1787.79 14.0104C1786.64 19.0077 1785.74 23.4798 1784.56 27.9047C1783.27 32.7728 1781.57 37.5708 1780.34 42.4479C1779.48 45.881 1781.77 48.4748 1782.93 51.3272C1786.11 59.0901 1789.41 66.8058 1792.6 74.4158C1783.46 72.4804 1774.8 68.5719 1766.09 64.8787C1762.76 63.467 1761.93 64.7349 1761.38 67.4926C1759.62 76.4666 1755.76 84.7653 1750.63 93.3841L1750.63 93.3793Z" fill="#CFBF8B"/>
</g>
<g clip-path="url(#clip1_628_2)">
<path d="M31 673.15C39.19 674.03 47.17 671.55 55.3 672.23C59 672.54 59.58 669.11 60.63 666.9C66.87 653.77 74.28 641.32 82.01 629.03C82.61 628.07 83.18 626.98 84.04 626.3C85.64 625.03 87.39 623.77 87.98 627.32C89.58 636.89 91.3 646.44 92.94 656.01C93.65 660.16 94.47 664.3 94.89 668.49C95.17 671.34 97.79 670.87 98.92 671.05C109.19 672.69 119.52 673.99 129.86 675.18C131.71 675.39 134.01 675.49 134.59 676.91C135.2 678.41 133.56 680.11 132.27 681.4C125.41 688.27 118.39 694.99 110.68 700.91C105.3 705.05 102.91 710.52 101.87 717.08C100.13 728.09 97.97 739.04 95.86 749.98C95.65 751.09 95.33 752.61 93.92 753.04C92.35 753.52 91.38 752.31 90.66 751.26C84.45 742.23 77.77 733.49 72.88 723.63C71.15 720.15 70.35 718.25 66.2 722.11C58.27 729.5 48.99 735.24 38.98 739.56C37.81 740.07 36.78 741.93 35.12 740.65C33.33 739.28 33.69 737.25 34.28 735.64C36.66 729.15 39.26 722.73 42.88 716.8C43.55 715.69 44.32 714.64 44.96 713.51C49.03 706.29 48.11 703.19 41.39 698.19C32.94 691.9 23.37 687.04 16.28 678.96C15.34 677.89 13.62 677.15 14.1 675.35C14.69 673.17 16.66 674.74 17.87 674.19C22.16 672.23 26.7 673.78 31.01 673.13L31 673.15Z" fill="#1A1A1A"/>
<path d="M2.85 716.15C1.91 715.87 0.460003 716.89 0.0600027 715.07C-0.369997 713.12 1.41 712.71 2.37 712.56C10.16 711.29 17.64 708.98 25.04 706.3C25.88 706 27.54 705.52 27.91 707.15C28.3 708.89 27.22 709.67 25.59 710.29C20.05 712.42 14.37 714.08 8.55 715.07C6.64 715.39 4.95 716.87 2.85 716.15Z" fill="#1A1A1A"/>
<path d="M110.09 720.37C111.76 720.07 113.22 720.94 113.73 721.72C117.95 728.21 124.33 732.33 130.33 736.78C131.94 737.98 132.28 739.15 131.75 740.32C131 741.96 129.72 741.01 128.51 740.3C121.38 736.13 116.09 729.91 110.43 724.11C109.37 723.02 110.06 721.63 110.1 720.37H110.09Z" fill="#1A1A1A"/>
<path d="M137.86 653.41C137.9 655.53 136.69 655.27 135.76 655.26C127.86 655.19 120.33 657.12 112.99 659.78C111.25 660.41 109.79 660.42 109.36 658.86C109.11 657.97 110.2 656.81 111.84 656.09C119.11 652.9 126.93 652.78 134.51 651.32C136.39 650.96 137.76 651.77 137.86 653.4V653.41Z" fill="#1A1A1A"/>
<path d="M45.41 654.45C43.59 653.51 41.44 652.44 39.31 651.31C35.18 649.13 31.02 647 26.98 644.67C25.74 643.95 24.33 642.64 25.16 641.01C25.87 639.61 27.75 639.94 28.68 640.63C34.45 644.86 40.99 647.67 47.28 650.93C48.43 651.53 49.39 652.01 48.9 653.4C48.36 654.95 46.91 653.98 45.41 654.44V654.45Z" fill="#1A1A1A"/>
<path d="M112.95 636.23C112.76 636.53 112.51 637.14 112.09 637.56C109.44 640.2 107.31 643.18 105.84 646.65C105.48 647.51 104.71 648.52 103.59 648.16C102.71 647.87 101.95 647.13 101.99 645.94C102.08 643.29 107.71 635.44 110.16 634.64C111.42 634.23 112.8 633.68 112.95 636.23Z" fill="#1A1A1A"/>
<path d="M17.1799 730.04C15.5399 730.39 14.8299 729.64 14.2699 728.83C13.6599 727.95 14.3699 727.35 14.9599 726.76C17.6399 724.09 20.2899 721.38 22.9999 718.74C23.7599 717.99 24.8299 717.86 25.6499 718.56C26.3199 719.14 26.2299 720.21 25.7199 720.82C23.2199 723.81 20.6299 726.72 18.0299 729.62C17.7399 729.95 17.1899 730.04 17.1799 730.05V730.04Z" fill="#1A1A1A"/>
<path d="M120.11 714.32C117.72 713.49 113.32 715.71 113.35 712.33C113.38 708.47 117.82 710.44 120.29 710.32C122.48 710.22 126.54 708.87 126.53 712.06C126.52 715.85 122.3 713.44 120.12 714.32H120.11Z" fill="#1A1A1A"/>
<path d="M46.5501 636.4C51.0301 635.56 52.6601 640.16 55.7701 642.01C56.3701 642.37 56.4401 644.4 55.4201 645.12C54.7301 645.61 53.5601 645.4 52.7501 644.54C50.4101 642.06 46.1401 641.19 46.5601 636.4H46.5501Z" fill="#1A1A1A"/>
<path d="M38.66 735.34C41.71 726.63 45.6801 719.49 50.0801 712.58C52.9501 708.06 52.59 704.81 49.0601 700.76C41.6501 692.28 31.59 687.2 22.98 680.28C21.98 679.47 20.99 678.82 20.05 677.23C31.9 677.64 43.17 675.43 54.55 676.28C58.15 676.55 60.3601 675.13 62.0201 672.05C67.3801 662.14 72.84 652.28 78.3601 642.46C80.2401 639.12 82.43 635.95 84.61 632.49C86.78 637.74 86.7401 643.27 87.8701 648.55C89.4901 656.13 90.6601 663.81 91.9001 671.47C92.1901 673.25 92.9 674.04 94.69 674.27C105.66 675.67 116.62 677.14 128.93 678.76C124.41 683.21 120.48 687.28 116.32 691.1C111.74 695.3 106.82 699.13 102.3 703.39C99.12 706.39 99.58 710.84 98.7701 714.73C96.5701 725.32 94.5201 735.95 92.44 746.39C84.86 737.55 79.1 726.98 73.13 716.59C70.85 712.62 69.18 713.35 66.77 715.87C58.94 724.08 49.5201 730.01 38.6501 735.34H38.66Z" fill="#AABA9C"/>
</g>
<g clip-path="url(#clip2_628_2)">
<path d="M46.0204 75.1572C40.5264 74.3734 34.1584 76.5066 27.6822 75.9571C21.9135 75.4642 16.0783 75.2622 10.6259 73.0401C5.45662 70.931 3.5587 68.1756 4.08313 63.804C4.50766 60.2728 7.37951 58.3012 12.6154 57.3638C19.4662 56.1356 26.3337 55.0366 32.9431 52.6852C36.0397 51.5862 37.0303 50.1722 35.7567 47.2147C31.9858 38.4715 30.3959 29.2193 29.0723 19.9186C28.6395 16.8884 29.2305 13.9067 30.579 11.1109C32.8765 6.35952 39.2112 4.63836 43.2734 8.03219C47.4688 11.5391 52.43 13.4785 57.4079 15.3774C61.9113 17.0985 65.7404 19.4096 68.4957 23.4094C70.8848 26.8841 73.2988 27.0376 76.8116 24.3468C81.8644 20.4924 85.6352 15.4582 89.6558 10.6988C94.2008 5.31713 99.6865 1.64857 106.645 0.169829C110.441 -0.638224 112.764 1.40615 112.114 5.39793C110.741 13.8825 109.051 22.3509 105.622 30.3183C101.684 39.4655 102.15 41.7603 113.846 45.3481C120.022 47.247 125.741 50.1237 130.777 54.0993C134.065 56.7012 133.649 59.9819 129.995 62.4222C124.085 66.3817 117.567 68.3049 110.375 68.8059C106.454 69.0806 102.683 69.6543 98.7125 68.8059C96.1986 68.2725 94.1675 69.7836 92.9938 72.2805C87.6913 83.5609 83.7956 95.2615 81.3982 107.447C80.9987 109.475 80.3827 111.487 79.6085 113.402C78.4847 116.174 76.4536 117.742 73.1573 117.968C69.6112 118.218 68.0462 116.077 66.423 113.709C64.3752 110.72 64.5251 107.221 64.0007 103.908C62.7104 95.7706 61.8114 87.5689 59.6638 79.5691C58.7814 76.2804 57.0416 74.543 53.2541 75.0925C51.223 75.3915 49.1087 75.141 46.037 75.141L46.0204 75.1572Z" fill="#1A1A1A"/>
<path d="M123.635 54.0103C125.392 54.0103 126.141 55.4728 127.331 56.3213C129.512 57.897 128.804 59.3273 126.99 60.305C122.054 62.9716 116.901 65.2664 111.132 65.4281C106.978 65.5412 102.933 66.6886 98.6292 65.5897C94.7502 64.6038 91.895 66.8179 90.1635 70.2683C84.3865 81.7831 80.5741 93.9039 78.0602 106.453C77.7105 108.214 77.0529 109.928 76.387 111.608C75.7377 113.232 74.6306 114.752 72.6661 114.598C70.7598 114.453 69.5362 112.917 69.0034 111.261C67.5384 106.768 67.0805 102.065 66.4729 97.4108C65.5655 90.4211 64.5333 83.4638 62.3358 76.7085C61.2703 73.4439 59.389 71.8198 55.6514 71.8682C46.4282 71.9814 37.2133 72.2965 27.9985 72.5551C22.1799 72.7167 16.1781 71.9652 10.7258 69.1936C8.83617 68.232 7.45436 66.923 7.52927 65.0887C7.61252 63.1736 9.25238 61.913 11.2835 61.4363C18.1676 59.8282 25.0517 58.1798 31.9441 56.6122C39.2777 54.9476 41.5919 51.6023 38.8116 45.0409C35.2405 36.6129 33.7005 27.8132 32.3603 18.9246C31.9691 16.3388 32.8931 13.8662 34.2666 11.8541C35.715 9.72088 38.3288 8.76737 40.593 10.6582C45.5042 14.755 51.4477 16.7671 57.283 19.0296C60.5877 20.3145 62.8102 22.8275 65.2076 25.1547C71.5423 31.2878 75.3714 31.3929 81.8393 25.0335C86.9254 20.0316 91.0709 14.1894 96.3567 9.31685C98.9872 6.88461 101.917 5.1877 105.305 4.20996C106.171 3.95946 107.045 2.55345 108.194 3.91906C109.009 4.88872 108.568 5.68061 108.385 6.7634C106.812 16.0479 104.007 24.9608 100.585 33.7443C98.3795 39.4007 100.211 43.5379 106.196 46.2853C110.874 48.4347 115.885 49.8973 120.663 51.8608C121.787 52.3214 123.402 52.5154 123.743 54.1315C122.944 55.287 121.521 54.8749 120.322 55.3355C122.861 57.8647 123.219 55.8769 123.627 54.0183L123.635 54.0103Z" fill="#F1D07F"/>
<path d="M79.0093 59.8848C78.7263 61.2666 78.4349 62.6241 77.2445 62.9069C76.2623 63.1332 75.896 61.9373 75.4632 61.0565C74.1896 58.495 75.0137 55.6264 74.0231 53.0002C73.6152 51.9093 74.6807 51.0609 75.9876 50.972C77.6441 50.8508 76.9033 52.2164 77.3111 52.8871C78.6846 55.1496 77.2695 57.9536 79.0093 59.8848Z" fill="#1A1A1A"/>
<path d="M63.4181 56.5799C62.6106 56.6688 61.8781 56.1031 61.8281 55.6021C61.7532 54.9557 62.0862 53.9375 62.594 53.6143C64.9913 52.079 66.8892 50.0346 68.9786 48.1761C69.3865 47.8125 70.2855 47.6913 70.8599 47.8206C71.7006 48.0226 71.4509 48.8953 71.4259 49.5013C71.3427 51.4811 65.3992 56.7092 63.4181 56.5799Z" fill="#1A1A1A"/>
<path d="M59.031 31.4009C58.4899 32.912 57.3828 33.72 56.1841 33.0493C53.8867 31.7564 51.7557 30.1484 49.6663 28.5404C48.5425 27.6758 48.5758 26.2455 49.4082 25.3567C50.0242 24.7021 51.0564 25.2435 51.8972 25.9061C53.6536 27.2798 55.6098 28.4192 57.4244 29.7282C58.0571 30.1807 58.5149 30.8595 59.0227 31.4009H59.031Z" fill="#1A1A1A"/>
<path d="M58.024 57.8162C57.1583 58.2768 57.6661 59.8202 56.3009 59.7959C53.5706 59.7474 51.1066 60.8626 48.5095 61.412C47.5355 61.6141 46.3951 61.4767 46.0538 60.4747C45.7958 59.6909 46.2786 58.5434 47.1027 58.3495C50.0661 57.6627 52.913 56.3536 56.0845 56.588C57.0334 56.6607 57.4746 57.2182 58.0157 57.8243L58.024 57.8162Z" fill="#1A1A1A"/>
<path d="M39.3943 62.115C40.6013 62.0989 41.8833 62.3332 42.0248 63.4725C42.0914 63.9735 41.7001 65.3957 40.0936 65.5573C37.7378 65.7836 35.4403 66.5755 33.1012 67.0765C31.9858 67.3108 31.0618 66.6724 30.8121 65.7917C30.5207 64.7493 31.4114 64.1432 32.4436 63.8847C34.7578 63.2948 37.0802 62.7049 39.3943 62.1231V62.115Z" fill="#1A1A1A"/>
<path d="M21.1643 67.9976C19.0832 67.4805 16.6359 66.8825 14.1886 66.2603C13.2729 66.026 12.4322 65.824 12.9483 64.4988C13.3395 63.5049 13.7557 62.8099 14.9461 63.0604C17.5516 63.618 20.1737 64.1432 22.7459 64.8381C23.7614 65.1129 24.2692 66.0502 23.9862 67.0926C23.6282 68.4017 22.4212 67.7067 21.1726 67.9895L21.1643 67.9976Z" fill="#1A1A1A"/>
<path d="M82.7885 32.4029C83.3295 32.3463 83.854 32.508 83.8623 33.1706C83.8706 34.0594 84.0954 34.924 83.3462 35.7806C81.8728 37.4694 79.7085 38.5603 78.8178 40.7743C78.5181 41.5177 77.5858 41.3885 77.0198 41.1864C76.2789 40.9198 75.6546 40.3622 75.588 39.4411C75.5048 38.1643 81.39 32.3221 82.7801 32.4029H82.7885Z" fill="#1A1A1A"/>
<path d="M71.3427 42.6652C71.5258 44.0308 71.0597 44.4995 70.5269 44.9601C69.8277 45.558 69.2949 45.2186 68.7705 44.7096C67.1057 43.0935 65.4409 41.4774 63.7843 39.8612C62.8437 38.9401 62.8687 38.0189 63.7427 37.0492C64.9664 35.6917 65.7239 36.8634 66.3898 37.5906C68.1046 39.4572 70.3771 40.8551 71.3427 42.6652Z" fill="#1A1A1A"/>
<path d="M92.253 50.7215C94.334 51.2629 96.2652 51.7154 98.1632 52.2649C99.2453 52.58 100.186 53.1618 99.5866 54.4951C99.0788 55.6264 98.0216 56.1516 96.8979 55.691C95.2996 55.0365 93.7347 54.3093 91.9866 54.1961C90.4882 54.0911 89.6392 53.3962 89.764 51.9497C89.9222 50.0912 91.587 51.5457 92.2447 50.7215H92.253Z" fill="#1A1A1A"/>
<path d="M94.7168 21.6881C94.7418 23.4335 90.896 27.4011 89.4143 27.2475C88.9981 27.199 88.3904 26.7869 88.2822 26.4314C87.9492 25.292 87.6829 24.0719 88.8732 23.1669C90.4215 21.9871 91.7867 20.4276 93.9343 20.3629C94.9249 20.3306 94.5836 21.3003 94.7085 21.6962L94.7168 21.6881Z" fill="#1A1A1A"/>
<path d="M39.2694 14.65C40.9426 14.4641 45.1963 19.1751 44.805 20.8074C44.7218 21.171 44.5387 21.7851 44.3472 21.8093C41.4504 22.1164 40.6679 19.4094 38.8948 18.0923C37.6962 17.1954 38.0624 15.9752 38.5286 14.8358C38.5869 14.6985 39.0114 14.7066 39.2611 14.6419L39.2694 14.65Z" fill="#1A1A1A"/>
<path d="M73.9396 84.9102C73.9396 83.8032 73.9729 82.9951 73.9313 82.1952C73.873 81.0962 74.4557 80.2074 75.4213 80.1265C76.7282 80.0215 77.2527 81.0396 77.2527 82.2598C77.2527 82.9305 77.3359 83.6173 77.236 84.2719C76.9863 85.9445 78.2349 88.7323 75.3131 88.7161C72.3247 88.7 74.7637 85.9122 73.9313 84.9183L73.9396 84.9102Z" fill="#1A1A1A"/>
<path d="M84.5531 49.0003C84.9027 51.4487 84.2118 52.079 83.0964 51.7154C80.7323 50.9316 77.6773 50.9396 76.7367 48.1357C76.437 47.2468 78.1851 46.5681 79.2007 46.9721C81.1985 47.764 84.0703 47.2711 84.5531 49.0003Z" fill="#1A1A1A"/>
<path d="M74.6389 71.5369C75.3881 70.4299 73.6317 68.1754 75.9125 68.0057C78.6761 67.8037 78.0768 70.2117 78.0602 71.852C78.0435 73.3469 78.7178 75.7711 76.4952 75.7468C73.8648 75.7226 75.13 73.0964 74.6389 71.5288V71.5369Z" fill="#1A1A1A"/>
<path d="M71.4258 106.445C71.584 104.966 70.8681 102.599 73.2655 102.784C75.4298 102.954 74.7222 105.289 74.7305 106.792C74.7305 108.279 75.3215 110.647 72.9325 110.461C70.7765 110.291 71.584 107.948 71.4258 106.445Z" fill="#1A1A1A"/>
<path d="M108.069 55.8041C106.154 56.0546 104.406 55.3759 104.015 53.186C103.874 52.3861 105.131 51.3922 106.104 51.8285C108.077 52.7174 111.332 51.982 111.782 54.7052C111.998 56.0546 109.642 55.7314 108.069 55.8041Z" fill="#1A1A1A"/>
<path d="M123.635 54.0102C123.752 55.2789 126.157 55.5698 125.15 57.2748C124.717 58.0182 123.86 58.5353 123.061 58.1556C121.413 57.3717 119.057 57.5818 118.158 55.9334C117.508 54.7456 118.358 53.0002 120.189 53.6709C121.437 54.1234 122.553 54.083 123.752 54.1314L123.627 54.0183L123.635 54.0102Z" fill="#1A1A1A"/>
<path d="M75.5962 95.7947C75.5545 97.2087 75.9541 99.2531 73.8731 99.1885C71.8419 99.1238 72.2915 97.0714 72.2831 95.6654C72.2748 94.2432 71.9252 92.1988 73.9979 92.2715C76.0207 92.3362 75.5545 94.3806 75.5962 95.8027V95.7947Z" fill="#1A1A1A"/>
<path d="M99.9362 15.4823C98.7792 15.2076 98.0466 14.6258 98.0799 13.5834C98.1382 11.9269 99.2786 10.9976 100.819 10.6501C101.901 10.4077 102.975 11.1996 102.891 12.0319C102.733 13.7127 101.018 14.4237 99.9279 15.4823H99.9362Z" fill="#1A1A1A"/>
</g>
<g clip-path="url(#clip3_628_2)">
<path d="M1660.44 751.555C1655.46 755.987 1652.56 763.544 1647.04 769.067C1642.12 773.984 1637.42 779.193 1631.11 782.443C1625.11 785.522 1621.04 785.077 1617.3 781.117C1614.28 777.917 1614.63 773.706 1617.78 768.142C1621.91 760.86 1626.17 753.666 1629.04 745.713C1630.39 741.989 1629.82 739.953 1626.03 738.772C1614.83 735.288 1604.83 729.391 1594.99 723.21C1591.78 721.198 1589.41 718.283 1587.8 714.817C1585.07 708.924 1588.33 701.725 1594.69 700.686C1601.25 699.615 1606.92 696.592 1612.57 693.522C1617.67 690.747 1622.82 689.061 1628.74 689.707C1633.88 690.273 1635.89 688.173 1636.05 682.8C1636.3 675.084 1634.44 667.61 1633.03 660.123C1631.44 651.66 1632.2 643.693 1636.17 636.113C1638.33 631.977 1642.07 631.466 1645.35 635.239C1652.33 643.252 1659.05 651.544 1663.96 661.038C1669.59 671.937 1672.13 673.334 1684.56 665.425C1691.13 661.251 1698.27 658.277 1705.93 656.805C1710.93 655.849 1713.72 658.842 1713.22 664.146C1712.41 672.734 1709.2 680.262 1704.12 687.28C1701.35 691.106 1698.98 695.033 1695.11 698.012C1692.66 699.901 1692.53 702.972 1693.99 706.039C1700.59 719.892 1708.67 732.784 1718.37 744.684C1719.99 746.665 1721.42 748.832 1722.64 751.068C1724.4 754.307 1724.31 757.423 1721.98 760.637C1719.48 764.099 1716.24 763.836 1712.75 763.446C1708.33 762.953 1705.13 760.031 1701.58 757.879C1692.87 752.593 1684.4 746.896 1675.16 742.509C1671.36 740.705 1668.37 740.924 1665.97 744.846C1664.68 746.953 1662.81 748.7 1660.44 751.527L1660.44 751.555Z" fill="#1A1A1A"/>
<path d="M1700.33 663.307C1701.69 661.691 1703.65 662.165 1705.37 661.744C1708.55 660.991 1709.36 662.779 1708.89 665.227C1707.6 671.891 1705.8 678.458 1701.5 683.896C1698.4 687.808 1696.36 692.444 1692 695.53C1688.07 698.316 1687.96 702.704 1689.9 707.043C1696.35 721.519 1704.9 734.669 1714.85 746.965C1716.25 748.688 1717.37 750.656 1718.45 752.606C1719.49 754.495 1720.07 756.722 1718.41 758.408C1716.8 760.047 1714.4 759.951 1712.42 759.124C1707.03 756.898 1702.22 753.579 1697.33 750.435C1690.01 745.71 1682.61 741.126 1674.51 737.774C1670.6 736.158 1667.6 736.597 1664.76 740.075C1657.75 748.653 1650.93 757.384 1644.06 766.07C1639.72 771.553 1634.37 776.478 1627.54 779.291C1625.17 780.265 1622.86 780.496 1621.18 778.967C1619.43 777.367 1619.5 774.856 1620.61 772.607C1624.4 764.993 1628.16 757.346 1631.99 749.757C1636.08 741.684 1634.69 736.893 1626.33 734.232C1615.58 730.814 1606.05 725.231 1596.59 719.394C1593.83 717.697 1592.2 714.88 1591.36 712.015C1590.45 708.985 1591.57 705.822 1595.11 705.242C1602.78 703.981 1609.28 700.112 1615.93 696.542C1619.7 694.523 1623.8 694.477 1627.86 694.122C1638.56 693.171 1641.62 689.731 1640.59 678.72C1639.77 670.06 1637.43 661.598 1636.9 652.858C1636.62 648.502 1637.28 644.456 1638.96 640.56C1639.4 639.564 1638.74 637.642 1640.92 637.671C1642.47 637.691 1642.88 638.727 1643.76 639.757C1651.35 648.591 1657.63 658.262 1663.32 668.398C1666.98 674.927 1672.31 676.533 1679.54 673.211C1685.19 670.615 1690.45 667.167 1696 664.332C1697.3 663.664 1698.73 662.332 1700.53 663.304C1701.01 664.958 1699.52 665.941 1699.03 667.41C1703.39 667.085 1701.78 665.175 1700.33 663.321L1700.33 663.307Z" fill="#EDDD81"/>
<path d="M1671.44 709.048C1672.53 710.407 1673.59 711.755 1672.94 713.076C1672.4 714.16 1670.98 713.545 1669.81 713.243C1666.4 712.377 1664.32 709.337 1661.06 708.16C1659.71 707.667 1659.73 706.012 1660.66 704.738C1661.82 703.118 1662.54 704.886 1663.49 705.044C1666.7 705.58 1668.26 709.112 1671.44 709.048Z" fill="#1A1A1A"/>
<path d="M1656.27 720.767C1655.73 721.58 1654.63 721.805 1654.11 721.452C1653.44 721.007 1652.73 719.89 1652.82 719.166C1653.21 715.739 1652.74 712.366 1652.59 708.965C1652.56 708.3 1653.14 707.376 1653.71 706.95C1654.55 706.337 1655.18 707.261 1655.74 707.767C1657.55 709.418 1657.92 719.046 1656.27 720.767Z" fill="#1A1A1A"/>
<path d="M1629.01 704.774C1630.02 706.474 1629.94 708.136 1628.37 708.706C1625.37 709.791 1622.2 710.473 1619.07 711.117C1617.38 711.463 1616.05 710.295 1615.85 708.822C1615.7 707.734 1617.01 707.215 1618.29 706.969C1620.95 706.445 1623.54 705.551 1626.18 704.922C1627.1 704.7 1628.1 704.819 1629 704.782L1629.01 704.774Z" fill="#1A1A1A"/>
<path d="M1653.27 726.714C1653.04 727.877 1654.9 728.638 1653.82 729.875C1651.67 732.349 1650.82 735.503 1649.34 738.33C1648.77 739.387 1647.76 740.328 1646.55 739.845C1645.61 739.459 1644.89 738.102 1645.35 737.189C1646.98 733.915 1647.94 730.254 1650.61 727.522C1651.41 726.707 1652.28 726.744 1653.27 726.728L1653.27 726.714Z" fill="#1A1A1A"/>
<path d="M1642.96 747.278C1643.88 746.154 1645.09 745.161 1646.28 745.937C1646.81 746.274 1647.85 747.766 1646.77 749.373C1645.16 751.721 1644.14 754.465 1642.81 757.016C1642.17 758.229 1640.85 758.571 1639.82 758.1C1638.61 757.539 1638.72 756.238 1639.27 755.082C1640.5 752.483 1641.74 749.877 1642.97 747.284L1642.96 747.278Z" fill="#1A1A1A"/>
<path d="M1634.46 768.734C1632.37 770.237 1629.91 772.014 1627.43 773.771C1626.5 774.427 1625.66 775.04 1624.8 773.511C1624.16 772.361 1623.82 771.425 1624.98 770.529C1627.52 768.574 1630.04 766.579 1632.69 764.765C1633.73 764.049 1635.01 764.327 1635.78 765.417C1636.75 766.788 1635.16 767.346 1634.46 768.72L1634.46 768.734Z" fill="#1A1A1A"/>
<path d="M1648.3 683.709C1648.67 683.166 1649.23 682.812 1649.86 683.331C1650.71 684.03 1651.7 684.511 1651.94 685.882C1652.4 688.582 1651.76 691.441 1653.17 694.022C1653.65 694.889 1652.81 695.644 1652.18 696.004C1651.35 696.474 1650.34 696.605 1649.42 695.934C1648.14 694.995 1647.15 684.931 1648.3 683.716L1648.3 683.709Z" fill="#1A1A1A"/>
<path d="M1649.19 702.405C1650.63 703.323 1650.72 704.125 1650.74 704.981C1650.77 706.101 1650.03 706.321 1649.15 706.398C1646.33 706.645 1643.51 706.892 1640.7 707.13C1639.1 707.263 1638.25 706.507 1638 704.932C1637.66 702.726 1639.36 702.961 1640.56 702.926C1643.65 702.833 1646.73 701.854 1649.19 702.405Z" fill="#1A1A1A"/>
<path d="M1672.98 689.571C1675.1 688.086 1677.02 686.669 1679.01 685.36C1680.14 684.614 1681.42 684.212 1682.22 685.824C1682.9 687.191 1682.58 688.582 1681.28 689.249C1679.42 690.199 1677.52 691.061 1676.07 692.58C1674.81 693.875 1673.5 694.104 1672.22 692.838C1670.58 691.214 1673.25 690.839 1672.97 689.578L1672.98 689.571Z" fill="#1A1A1A"/>
<path d="M1647.36 664.208C1649.03 665.573 1649.82 672.269 1648.53 673.51C1648.17 673.854 1647.31 674.086 1646.89 673.903C1645.55 673.303 1644.19 672.577 1644.25 670.762C1644.32 668.398 1643.9 665.902 1645.5 663.874C1646.23 662.936 1646.89 664.022 1647.36 664.222L1647.36 664.208Z" fill="#1A1A1A"/>
<path d="M1597.87 709.635C1598.99 707.948 1606.74 707.781 1607.98 709.439C1608.26 709.805 1608.7 710.462 1608.58 710.658C1606.63 713.568 1603.46 712.134 1600.84 712.718C1599.07 713.108 1598.19 711.8 1597.47 710.465C1597.39 710.302 1597.72 709.918 1597.86 709.637L1597.87 709.635Z" fill="#1A1A1A"/>
<path d="M1691.25 733.62C1690.2 732.739 1689.46 732.066 1688.67 731.468C1687.58 730.647 1687.19 729.404 1687.86 728.451C1688.77 727.165 1690.14 727.492 1691.29 728.463C1691.93 728.996 1692.65 729.466 1693.19 730.079C1694.58 731.639 1698.19 732.708 1695.92 735.384C1693.59 738.121 1692.84 733.659 1691.25 733.634L1691.25 733.62Z" fill="#1A1A1A"/>
<path d="M1665.4 695.287C1667.99 696.913 1668.06 698.051 1666.85 698.788C1664.28 700.34 1661.93 703.158 1658.55 701.793C1657.47 701.362 1658.18 699.213 1659.35 698.6C1661.64 697.391 1663.39 694.356 1665.4 695.287Z" fill="#1A1A1A"/>
<path d="M1679.11 722.338C1678.64 720.768 1675.15 720.591 1676.75 718.357C1678.69 715.653 1680.51 718.12 1682.05 719.441C1683.46 720.645 1686.27 721.953 1684.54 723.979C1682.48 726.38 1680.97 723.127 1679.1 722.332L1679.11 722.338Z" fill="#1A1A1A"/>
<path d="M1709.72 753.064C1708.44 751.742 1705.65 750.517 1707.67 748.459C1709.51 746.602 1711.17 749.111 1712.6 750.299C1714.01 751.482 1716.71 752.821 1714.69 754.872C1712.87 756.721 1711.27 754.114 1709.72 753.064Z" fill="#1A1A1A"/>
<path d="M1690.01 679.059C1688.77 681.02 1686.78 682.089 1684.4 680.707C1683.53 680.201 1683.56 678.254 1684.72 677.704C1687.09 676.596 1688.91 673.016 1691.84 674.768C1693.28 675.643 1691.16 677.553 1690.01 679.059Z" fill="#1A1A1A"/>
<path d="M1700.33 663.307C1701.62 664.209 1703.76 662.226 1704.59 664.51C1704.97 665.499 1704.79 666.7 1703.82 667.133C1701.8 668.026 1700.18 670.361 1697.92 669.877C1696.3 669.53 1695.3 667.36 1697.35 666.208C1698.74 665.419 1699.56 664.361 1700.53 663.296L1700.33 663.321L1700.33 663.307Z" fill="#1A1A1A"/>
<path d="M1702.85 740.754C1704.16 741.917 1706.4 743.176 1704.73 745.039C1703.1 746.857 1701.51 744.811 1700.17 743.7C1698.81 742.576 1696.6 741.272 1698.27 739.422C1699.9 737.612 1701.47 739.667 1702.85 740.76L1702.85 740.754Z" fill="#1A1A1A"/>
<path d="M1645.5 654.468C1644.35 655.314 1643.23 655.526 1642.27 654.666C1640.75 653.295 1640.75 651.506 1641.61 649.812C1642.21 648.624 1643.79 648.265 1644.52 649.004C1645.99 650.487 1645.34 652.63 1645.5 654.476L1645.5 654.468Z" fill="#1A1A1A"/>
</g>
<defs>
<clipPath id="clip0_628_2">
<rect width="116" height="99" fill="white" transform="translate(1693)"/>
</clipPath>
<clipPath id="clip1_628_2">
<rect width="137.86" height="128.16" fill="white" transform="translate(0 625)"/>
</clipPath>
<clipPath id="clip2_628_2">
<rect width="129" height="118" fill="white" transform="translate(4)"/>
</clipPath>
<clipPath id="clip3_628_2">
<rect width="154.97" height="146.03" fill="white" transform="translate(1556.75 730.439) rotate(-50)"/>
</clipPath>
</defs>
</svg>
