<svg width="129" height="118" viewBox="0 0 129 118" fill="none" xmlns="http://www.w3.org/2000/svg">
<g clip-path="url(#clip0_615_33)">
<path d="M42.0204 75.1572C36.5264 74.3734 30.1584 76.5066 23.6822 75.9571C17.9135 75.4642 12.0783 75.2622 6.62594 73.0401C1.45662 70.931 -0.441297 68.1756 0.0831273 63.804C0.507661 60.2728 3.37951 58.3012 8.61542 57.3638C15.4662 56.1356 22.3337 55.0366 28.9431 52.6852C32.0397 51.5862 33.0303 50.1722 31.7567 47.2147C27.9858 38.4715 26.3959 29.2193 25.0723 19.9186C24.6395 16.8884 25.2305 13.9067 26.579 11.1109C28.8765 6.35952 35.2112 4.63836 39.2734 8.03219C43.4688 11.5391 48.43 13.4785 53.4079 15.3774C57.9113 17.0985 61.7404 19.4096 64.4957 23.4094C66.8848 26.8841 69.2988 27.0376 72.8116 24.3468C77.8644 20.4924 81.6352 15.4582 85.6558 10.6988C90.2008 5.31713 95.6865 1.64857 102.645 0.169829C106.441 -0.638224 108.764 1.40615 108.114 5.39793C106.741 13.8825 105.051 22.3509 101.622 30.3183C97.6843 39.4655 98.1504 41.7603 109.846 45.3481C116.022 47.247 121.741 50.1237 126.777 54.0993C130.065 56.7012 129.649 59.9819 125.995 62.4222C120.085 66.3817 113.567 68.3049 106.375 68.8059C102.454 69.0806 98.6832 69.6543 94.7125 68.8059C92.1986 68.2725 90.1675 69.7836 88.9938 72.2805C83.6913 83.5609 79.7956 95.2615 77.3982 107.447C76.9987 109.475 76.3827 111.487 75.6085 113.402C74.4847 116.174 72.4536 117.742 69.1573 117.968C65.6112 118.218 64.0462 116.077 62.423 113.709C60.3752 110.72 60.5251 107.221 60.0007 103.908C58.7104 95.7706 57.8114 87.5689 55.6638 79.5691C54.7814 76.2804 53.0416 74.543 49.2541 75.0925C47.223 75.3915 45.1087 75.141 42.037 75.141L42.0204 75.1572Z" fill="#1A1A1A"/>
<path d="M119.635 54.0103C121.392 54.0103 122.141 55.4728 123.331 56.3213C125.512 57.897 124.804 59.3273 122.99 60.305C118.054 62.9716 112.901 65.2664 107.132 65.4281C102.978 65.5412 98.9328 66.6886 94.6292 65.5897C90.7502 64.6038 87.895 66.8179 86.1635 70.2683C80.3865 81.7831 76.5741 93.9039 74.0602 106.453C73.7105 108.214 73.0529 109.928 72.387 111.608C71.7377 113.232 70.6306 114.752 68.6661 114.598C66.7598 114.453 65.5362 112.917 65.0034 111.261C63.5384 106.768 63.0805 102.065 62.4729 97.4108C61.5655 90.4211 60.5333 83.4638 58.3358 76.7085C57.2703 73.4439 55.389 71.8198 51.6514 71.8682C42.4282 71.9814 33.2133 72.2965 23.9985 72.5551C18.1799 72.7167 12.1781 71.9652 6.72576 69.1936C4.83617 68.232 3.45436 66.923 3.52927 65.0887C3.61252 63.1736 5.25238 61.913 7.28348 61.4363C14.1676 59.8282 21.0517 58.1798 27.9441 56.6122C35.2777 54.9476 37.5919 51.6023 34.8116 45.0409C31.2405 36.6129 29.7005 27.8132 28.3603 18.9246C27.9691 16.3388 28.8931 13.8662 30.2666 11.8541C31.715 9.72088 34.3288 8.76738 36.593 10.6582C41.5042 14.755 47.4477 16.7671 53.283 19.0296C56.5877 20.3145 58.8102 22.8275 61.2076 25.1547C67.5423 31.2878 71.3714 31.3929 77.8393 25.0335C82.9254 20.0316 87.0709 14.1894 92.3567 9.31685C94.9872 6.88461 97.9173 5.1877 101.305 4.20996C102.171 3.95946 103.045 2.55345 104.194 3.91906C105.009 4.88872 104.568 5.68061 104.385 6.7634C102.812 16.0479 100.007 24.9608 96.5854 33.7443C94.3795 39.4007 96.2108 43.5379 102.196 46.2853C106.874 48.4347 111.885 49.8973 116.663 51.8608C117.787 52.3214 119.402 52.5154 119.743 54.1315C118.944 55.287 117.521 54.8749 116.322 55.3355C118.861 57.8647 119.219 55.8769 119.627 54.0183L119.635 54.0103Z" fill="#F1D07F"/>
<path d="M75.0093 59.8848C74.7263 61.2666 74.4349 62.6241 73.2445 62.9069C72.2623 63.1332 71.896 61.9373 71.4632 61.0565C70.1896 58.495 71.0137 55.6264 70.0231 53.0002C69.6152 51.9093 70.6807 51.0609 71.9876 50.972C73.6441 50.8508 72.9033 52.2164 73.3111 52.8871C74.6846 55.1496 73.2695 57.9536 75.0093 59.8848V59.8848Z" fill="#1A1A1A"/>
<path d="M59.4181 56.5799C58.6106 56.6688 57.8781 56.1031 57.8281 55.6021C57.7532 54.9557 58.0862 53.9375 58.594 53.6143C60.9913 52.079 62.8892 50.0346 64.9786 48.1761C65.3865 47.8125 66.2855 47.6913 66.8599 47.8206C67.7006 48.0226 67.4509 48.8953 67.4259 49.5013C67.3427 51.4811 61.3992 56.7092 59.4181 56.5799V56.5799Z" fill="#1A1A1A"/>
<path d="M55.031 31.4009C54.4899 32.912 53.3828 33.72 52.1841 33.0493C49.8867 31.7564 47.7557 30.1484 45.6663 28.5404C44.5425 27.6758 44.5758 26.2455 45.4082 25.3567C46.0242 24.7021 47.0564 25.2435 47.8972 25.9061C49.6536 27.2798 51.6098 28.4192 53.4244 29.7282C54.0571 30.1807 54.5149 30.8595 55.0227 31.4009H55.031Z" fill="#1A1A1A"/>
<path d="M54.024 57.8162C53.1583 58.2768 53.6661 59.8202 52.3009 59.7959C49.5706 59.7474 47.1066 60.8626 44.5095 61.412C43.5355 61.6141 42.3951 61.4767 42.0538 60.4747C41.7958 59.6909 42.2786 58.5434 43.1027 58.3495C46.0661 57.6627 48.913 56.3536 52.0845 56.588C53.0334 56.6607 53.4746 57.2182 54.0157 57.8243L54.024 57.8162Z" fill="#1A1A1A"/>
<path d="M35.3943 62.115C36.6013 62.0989 37.8833 62.3332 38.0248 63.4725C38.0914 63.9735 37.7001 65.3957 36.0936 65.5573C33.7378 65.7836 31.4403 66.5755 29.1012 67.0765C27.9858 67.3108 27.0618 66.6724 26.8121 65.7917C26.5207 64.7493 27.4114 64.1432 28.4436 63.8847C30.7578 63.2948 33.0802 62.7049 35.3943 62.1231V62.115Z" fill="#1A1A1A"/>
<path d="M17.1643 67.9976C15.0832 67.4805 12.6359 66.8825 10.1886 66.2603C9.27292 66.026 8.43218 65.824 8.94828 64.4988C9.33952 63.5049 9.75573 62.8099 10.9461 63.0604C13.5516 63.618 16.1737 64.1432 18.7459 64.8381C19.7614 65.1129 20.2692 66.0502 19.9862 67.0926C19.6282 68.4017 18.4212 67.7067 17.1726 67.9895L17.1643 67.9976Z" fill="#1A1A1A"/>
<path d="M78.7885 32.4029C79.3295 32.3463 79.854 32.508 79.8623 33.1706C79.8706 34.0594 80.0954 34.924 79.3462 35.7806C77.8728 37.4694 75.7085 38.5603 74.8178 40.7743C74.5181 41.5177 73.5858 41.3885 73.0198 41.1864C72.2789 40.9198 71.6546 40.3622 71.588 39.4411C71.5048 38.1643 77.39 32.3221 78.7801 32.4029H78.7885Z" fill="#1A1A1A"/>
<path d="M67.3427 42.6652C67.5258 44.0308 67.0597 44.4995 66.5269 44.9601C65.8277 45.558 65.2949 45.2186 64.7705 44.7096C63.1057 43.0935 61.4409 41.4774 59.7843 39.8612C58.8437 38.9401 58.8687 38.0189 59.7427 37.0492C60.9664 35.6917 61.7239 36.8634 62.3898 37.5906C64.1046 39.4572 66.3771 40.8551 67.3427 42.6652V42.6652Z" fill="#1A1A1A"/>
<path d="M88.253 50.7215C90.334 51.2629 92.2652 51.7154 94.1632 52.2649C95.2453 52.58 96.1859 53.1618 95.5866 54.4951C95.0788 55.6264 94.0216 56.1516 92.8979 55.691C91.2996 55.0365 89.7347 54.3093 87.9866 54.1961C86.4882 54.0911 85.6392 53.3962 85.764 51.9497C85.9222 50.0912 87.587 51.5457 88.2447 50.7215H88.253Z" fill="#1A1A1A"/>
<path d="M90.7168 21.6881C90.7418 23.4335 86.896 27.4011 85.4143 27.2475C84.9981 27.199 84.3904 26.7869 84.2822 26.4314C83.9492 25.292 83.6829 24.0719 84.8732 23.1669C86.4215 21.9871 87.7867 20.4276 89.9343 20.3629C90.9249 20.3306 90.5836 21.3003 90.7085 21.6962L90.7168 21.6881Z" fill="#1A1A1A"/>
<path d="M35.2694 14.65C36.9426 14.4641 41.1963 19.1751 40.805 20.8074C40.7218 21.171 40.5387 21.7851 40.3472 21.8093C37.4504 22.1164 36.6679 19.4094 34.8948 18.0923C33.6962 17.1954 34.0624 15.9752 34.5286 14.8358C34.5869 14.6985 35.0114 14.7066 35.2611 14.6419L35.2694 14.65Z" fill="#1A1A1A"/>
<path d="M69.9396 84.9102C69.9396 83.8032 69.9729 82.9951 69.9313 82.1952C69.873 81.0962 70.4557 80.2074 71.4213 80.1265C72.7282 80.0215 73.2527 81.0396 73.2527 82.2598C73.2527 82.9305 73.3359 83.6173 73.236 84.2719C72.9863 85.9445 74.2349 88.7323 71.3131 88.7161C68.3247 88.7 70.7637 85.9122 69.9313 84.9183L69.9396 84.9102Z" fill="#1A1A1A"/>
<path d="M80.5531 49.0003C80.9027 51.4487 80.2118 52.079 79.0964 51.7154C76.7323 50.9316 73.6773 50.9396 72.7367 48.1357C72.437 47.2468 74.1851 46.5681 75.2007 46.9721C77.1985 47.764 80.0703 47.2711 80.5531 49.0003V49.0003Z" fill="#1A1A1A"/>
<path d="M70.6389 71.5369C71.3881 70.4299 69.6317 68.1754 71.9125 68.0057C74.6761 67.8037 74.0768 70.2117 74.0602 71.852C74.0435 73.3469 74.7178 75.7711 72.4952 75.7468C69.8648 75.7226 71.13 73.0964 70.6389 71.5288V71.5369Z" fill="#1A1A1A"/>
<path d="M67.4258 106.445C67.584 104.966 66.8681 102.599 69.2655 102.784C71.4298 102.954 70.7222 105.289 70.7305 106.792C70.7305 108.279 71.3215 110.647 68.9325 110.461C66.7765 110.291 67.584 107.948 67.4258 106.445Z" fill="#1A1A1A"/>
<path d="M104.069 55.8041C102.154 56.0546 100.406 55.3759 100.015 53.186C99.8736 52.3861 101.131 51.3922 102.104 51.8285C104.077 52.7174 107.332 51.982 107.782 54.7052C107.998 56.0546 105.642 55.7314 104.069 55.8041Z" fill="#1A1A1A"/>
<path d="M119.635 54.0102C119.752 55.2789 122.157 55.5698 121.15 57.2748C120.717 58.0182 119.86 58.5353 119.061 58.1556C117.413 57.3717 115.057 57.5818 114.158 55.9334C113.508 54.7456 114.358 53.0002 116.189 53.6709C117.437 54.1234 118.553 54.083 119.752 54.1314L119.627 54.0183L119.635 54.0102Z" fill="#1A1A1A"/>
<path d="M71.5962 95.7947C71.5545 97.2087 71.9541 99.2531 69.8731 99.1885C67.8419 99.1238 68.2915 97.0714 68.2831 95.6654C68.2748 94.2432 67.9252 92.1988 69.9979 92.2715C72.0207 92.3362 71.5545 94.3806 71.5962 95.8027V95.7947Z" fill="#1A1A1A"/>
<path d="M95.9362 15.4823C94.7792 15.2076 94.0466 14.6258 94.0799 13.5834C94.1382 11.9269 95.2786 10.9976 96.8186 10.6501C97.9008 10.4077 98.9746 11.1996 98.8913 12.0319C98.7332 13.7127 97.0184 14.4237 95.9279 15.4823H95.9362Z" fill="#1A1A1A"/>
</g>
<defs>
<clipPath id="clip0_615_33">
<rect width="129" height="118" fill="white"/>
</clipPath>
</defs>
</svg>
