<svg width="213" height="214" viewBox="0 0 213 214" fill="none" xmlns="http://www.w3.org/2000/svg">
<g clip-path="url(#clip0_615_58)">
<path d="M104.444 140.555C99.4583 144.987 96.5633 152.544 91.0415 158.067C86.1197 162.984 81.4223 168.193 75.1054 171.443C69.1143 174.522 65.0365 174.077 61.2972 170.117C58.2774 166.917 58.6259 162.706 61.7804 157.142C65.9061 149.86 70.1673 142.666 73.0419 134.713C74.3912 130.989 73.8156 128.953 70.0284 127.772C58.8279 124.288 48.829 118.391 38.9898 112.21C35.7829 110.198 33.4126 107.283 31.8034 103.817C29.0731 97.9236 32.3331 90.7249 38.6872 89.6863C45.2515 88.6151 50.9211 85.5922 56.5651 82.5218C61.6743 79.7466 66.822 78.0612 72.7415 78.7074C77.8803 79.2728 79.89 77.1734 80.0516 71.8002C80.2993 64.0843 78.4387 56.6095 77.0313 49.1235C75.4391 40.6599 76.1972 32.6934 80.1691 25.113C82.3341 20.9771 86.0656 20.466 89.3485 24.2389C96.3314 32.2522 103.055 40.5437 107.96 50.0377C113.591 60.9374 116.126 62.3339 128.559 54.425C135.128 50.2515 142.271 47.2771 149.929 45.805C154.935 44.8489 157.724 47.8417 157.215 53.1458C156.405 61.7344 153.195 69.2624 148.117 76.2795C145.349 80.1061 142.982 84.0327 139.111 87.0118C136.664 88.901 136.528 91.9722 137.989 95.0385C144.589 108.892 152.673 121.784 162.373 133.684C163.988 135.665 165.419 137.832 166.637 140.068C168.397 143.307 168.315 146.423 165.984 149.637C163.483 153.099 160.244 152.836 156.746 152.446C152.331 151.953 149.13 149.031 145.584 146.879C136.873 141.593 128.404 135.896 119.162 131.509C115.362 129.705 112.372 129.924 109.968 133.846C108.683 135.953 106.813 137.7 104.441 140.527L104.444 140.555Z" fill="#1A1A1A"/>
<path d="M144.33 52.307C145.686 50.6906 147.651 51.1646 149.375 50.7441C152.553 49.9905 153.362 51.7794 152.888 54.2271C151.604 60.891 149.801 67.4583 145.499 72.8956C142.399 76.8081 140.363 81.4438 135.998 84.5301C132.068 87.3157 131.962 91.7044 133.896 96.0425C140.351 110.519 148.898 123.669 158.854 135.965C160.254 137.688 161.37 139.656 162.449 141.606C163.487 143.495 164.073 145.722 162.41 147.408C160.8 149.047 158.4 148.951 156.418 148.124C151.027 145.898 146.216 142.579 141.334 139.435C134.007 134.71 126.614 130.126 118.513 126.774C114.596 125.158 111.603 125.597 108.763 129.075C101.748 137.653 94.9312 146.384 88.0607 155.07C83.7208 160.553 78.3739 165.478 71.5361 168.291C69.1654 169.265 66.8574 169.496 65.1763 167.967C63.4251 166.367 63.4963 163.856 64.6128 161.607C68.4042 153.993 72.1573 146.346 75.9935 138.757C80.0784 130.684 78.6939 125.893 70.3267 123.232C59.5793 119.814 50.0479 114.231 40.5865 108.394C37.8331 106.697 36.2025 103.88 35.3556 101.015C34.4517 97.9854 35.5661 94.8215 39.1071 94.242C46.7834 92.9813 53.2803 89.1123 59.9312 85.5421C63.7011 83.5229 67.7997 83.4767 71.8571 83.1217C82.563 82.1709 85.6194 78.7306 84.5851 67.7197C83.7707 59.0603 81.4333 50.5981 80.8958 41.8577C80.6212 37.5022 81.2751 33.4559 82.9643 29.5603C83.3954 28.5643 82.7374 26.6415 84.919 26.6707C86.4682 26.6913 86.8783 27.7273 87.7634 28.7571C95.3503 37.5906 101.634 47.2621 107.319 57.3976C110.978 63.9272 116.314 65.5329 123.54 62.2106C129.19 59.6152 134.446 56.1671 139.997 53.332C141.302 52.6642 142.733 51.3323 144.528 52.3038C145.007 53.9584 143.517 54.9405 143.028 56.41C147.386 56.0855 145.778 54.1748 144.331 52.3211L144.33 52.307Z" fill="#EDDD81"/>
<path d="M115.439 98.0477C116.531 99.4073 117.593 100.755 116.941 102.076C116.397 103.16 114.981 102.545 113.812 102.243C110.4 101.377 108.317 98.3372 105.062 97.1597C103.713 96.6673 103.731 95.0119 104.656 93.7385C105.821 92.1176 106.543 93.8857 107.494 94.0439C110.699 94.5797 112.265 98.1125 115.439 98.0477V98.0477Z" fill="#1A1A1A"/>
<path d="M100.267 109.767C99.7274 110.58 98.6255 110.805 98.112 110.452C97.4413 110.007 96.7332 108.89 96.8189 108.166C97.2147 104.739 96.7421 101.366 96.5936 97.9645C96.5639 97.2999 97.1432 96.3762 97.7093 95.9505C98.55 95.3374 99.1845 96.2615 99.7397 96.7665C101.552 98.418 101.919 108.046 100.267 109.767V109.767Z" fill="#1A1A1A"/>
<path d="M73.0092 93.7745C74.0239 95.4744 73.9351 97.1361 72.3736 97.7057C69.3739 98.7915 66.2039 99.4734 63.0661 100.117C61.3786 100.463 60.0485 99.295 59.8486 97.8219C59.7038 96.7344 61.0141 96.2152 62.2914 95.9685C64.95 95.4449 67.5407 94.5511 70.1829 93.9224C71.1004 93.7002 72.0975 93.8188 73.0028 93.7822L73.0092 93.7745Z" fill="#1A1A1A"/>
<path d="M97.2734 115.714C97.0416 116.877 98.8968 117.638 97.8196 118.875C95.6653 121.349 94.8198 124.503 93.3352 127.33C92.7747 128.387 91.7638 129.328 90.5504 128.845C89.6081 128.459 88.8931 127.102 89.3456 126.189C90.9828 122.915 91.9401 119.254 94.6113 116.522C95.413 115.707 96.2823 115.744 97.2746 115.728L97.2734 115.714Z" fill="#1A1A1A"/>
<path d="M86.9632 136.278C87.8799 135.154 89.092 134.161 90.2814 134.937C90.8077 135.274 91.8539 136.766 90.7665 138.373C89.1619 140.721 88.1385 143.465 86.8072 146.016C86.1681 147.229 84.8494 147.571 83.8216 147.1C82.6084 146.539 82.7216 145.238 83.2736 144.082C84.5013 141.483 85.7355 138.877 86.9709 136.284L86.9632 136.278Z" fill="#1A1A1A"/>
<path d="M78.463 157.734C76.3658 159.237 73.9091 161.014 71.4295 162.771C70.5002 163.427 69.6595 164.04 68.8017 162.511C68.1616 161.361 67.8242 160.425 68.9809 159.529C71.5214 157.574 74.0441 155.579 76.6891 153.765C77.7337 153.049 79.0144 153.327 79.7841 154.417C80.7487 155.788 79.1578 156.346 78.4618 157.72L78.463 157.734Z" fill="#1A1A1A"/>
<path d="M92.3042 72.7086C92.6684 72.1657 93.2266 71.8117 93.8612 72.3311C94.7102 73.0305 95.7034 73.5115 95.9369 74.8822C96.4002 77.5816 95.7632 80.4411 97.1743 83.022C97.6477 83.8891 96.8052 84.6442 96.1766 85.0044C95.3517 85.4741 94.3411 85.6051 93.4164 84.9336C92.1417 83.9946 91.1477 73.9313 92.2978 72.7163L92.3042 72.7086Z" fill="#1A1A1A"/>
<path d="M93.1947 91.4052C94.6307 92.3229 94.7151 93.1247 94.7404 93.9814C94.7673 95.1005 94.0342 95.3208 93.1466 95.3985C90.3289 95.645 87.5113 95.8915 84.7 96.1304C83.1004 96.2632 82.2464 95.5075 82.0021 93.9318C81.66 91.7258 83.3557 91.9607 84.5594 91.9264C87.6531 91.8332 90.7331 90.8539 93.1947 91.4052V91.4052Z" fill="#1A1A1A"/>
<path d="M116.979 78.5707C119.099 77.0863 121.019 75.669 123.006 74.3595C124.14 73.6143 125.418 73.2115 126.219 74.8237C126.9 76.1909 126.581 77.5816 125.277 78.2493C123.422 79.1995 121.524 80.0611 120.067 81.5798C118.811 82.8752 117.496 83.1037 116.221 81.8382C114.582 80.2143 117.246 79.8392 116.973 78.5784L116.979 78.5707Z" fill="#1A1A1A"/>
<path d="M91.3577 53.2079C93.0317 54.5733 93.8233 61.2685 92.5336 62.5099C92.1662 62.8544 91.3063 63.0858 90.8857 62.9025C89.5484 62.3026 88.186 61.5772 88.2472 59.7618C88.3244 57.3985 87.9001 54.9016 89.4972 52.8738C90.2315 51.9365 90.8872 53.0219 91.359 53.222L91.3577 53.2079Z" fill="#1A1A1A"/>
<path d="M41.8694 98.6354C42.9852 96.9478 50.7359 96.7808 51.9812 98.4393C52.2616 98.8051 52.7024 99.4622 52.5776 99.6576C50.6317 102.568 47.4613 101.134 44.8435 101.718C43.0676 102.108 42.1937 100.8 41.4735 99.465C41.3883 99.3021 41.7238 98.9179 41.8553 98.6366L41.8694 98.6354Z" fill="#1A1A1A"/>
<path d="M135.249 122.62C134.199 121.739 133.459 121.066 132.669 120.468C131.582 119.647 131.189 118.404 131.858 117.451C132.768 116.165 134.138 116.492 135.295 117.463C135.93 117.996 136.646 118.466 137.189 119.079C138.582 120.639 142.189 121.708 139.918 124.384C137.595 127.121 136.835 122.659 135.25 122.634L135.249 122.62Z" fill="#1A1A1A"/>
<path d="M109.401 84.2875C111.993 85.9134 112.057 87.0506 110.851 87.7878C108.282 89.3399 105.931 92.1577 102.546 90.7929C101.472 90.3616 102.178 88.2129 103.346 87.5998C105.639 86.3912 107.389 83.3562 109.401 84.2875V84.2875Z" fill="#1A1A1A"/>
<path d="M123.111 111.338C122.64 109.768 119.146 109.591 120.747 107.357C122.689 104.653 124.509 107.12 126.051 108.441C127.456 109.645 130.275 110.953 128.535 112.979C126.481 115.38 124.969 112.127 123.103 111.332L123.111 111.338Z" fill="#1A1A1A"/>
<path d="M153.723 142.064C152.443 140.742 149.646 139.517 151.673 137.459C153.505 135.602 155.173 138.111 156.604 139.299C158.014 140.482 160.715 141.821 158.694 143.872C156.868 145.721 155.27 143.114 153.723 142.064Z" fill="#1A1A1A"/>
<path d="M134.01 68.059C132.769 70.0202 130.776 71.0889 128.398 69.707C127.53 69.2009 127.559 67.2535 128.724 66.7044C131.09 65.5959 132.907 62.0157 135.835 63.7683C137.282 64.6425 135.156 66.5533 134.01 68.059Z" fill="#1A1A1A"/>
<path d="M144.33 52.307C145.623 53.2089 147.756 51.2265 148.595 53.5097C148.965 54.4994 148.793 55.6998 147.816 56.1331C145.8 57.0263 144.181 59.3614 141.924 58.8774C140.296 58.53 139.297 56.3602 141.347 55.2084C142.74 54.4193 143.563 53.3607 144.535 52.2962L144.331 52.3211L144.33 52.307Z" fill="#1A1A1A"/>
<path d="M146.847 129.754C148.155 130.917 150.402 132.176 148.734 134.039C147.104 135.857 145.505 133.811 144.166 132.7C142.811 131.576 140.603 130.272 142.273 128.422C143.896 126.612 145.474 128.667 146.854 129.76L146.847 129.754Z" fill="#1A1A1A"/>
<path d="M89.5048 43.4682C88.3508 44.3144 87.2336 44.5257 86.2711 43.6659C84.7458 42.2945 84.7454 40.5059 85.6052 38.8123C86.211 37.6236 87.7909 37.2653 88.5157 38.004C89.9869 39.4865 89.3369 41.6302 89.4983 43.4758L89.5048 43.4682Z" fill="#1A1A1A"/>
</g>
<defs>
<clipPath id="clip0_615_58">
<rect width="154.97" height="146.03" fill="white" transform="translate(0.746094 119.439) rotate(-50)"/>
</clipPath>
</defs>
</svg>
