<svg width="138" height="129" viewBox="0 0 138 129" fill="none" xmlns="http://www.w3.org/2000/svg">
<g clip-path="url(#clip0_615_19)">
<path d="M31 48.15C39.19 49.03 47.17 46.55 55.3 47.23C59 47.54 59.58 44.11 60.63 41.9C66.87 28.77 74.28 16.32 82.01 4.03C82.61 3.07 83.18 1.98 84.04 1.3C85.64 0.0299999 87.39 -1.23 87.98 2.32C89.58 11.89 91.3 21.44 92.94 31.01C93.65 35.16 94.47 39.3 94.89 43.49C95.17 46.34 97.79 45.87 98.92 46.05C109.19 47.69 119.52 48.99 129.86 50.18C131.71 50.39 134.01 50.49 134.59 51.91C135.2 53.41 133.56 55.11 132.27 56.4C125.41 63.27 118.39 69.99 110.68 75.91C105.3 80.05 102.91 85.52 101.87 92.08C100.13 103.09 97.97 114.04 95.86 124.98C95.65 126.09 95.33 127.61 93.92 128.04C92.35 128.52 91.38 127.31 90.66 126.26C84.45 117.23 77.77 108.49 72.88 98.63C71.15 95.15 70.35 93.25 66.2 97.11C58.27 104.5 48.99 110.24 38.98 114.56C37.81 115.07 36.78 116.93 35.12 115.65C33.33 114.28 33.69 112.25 34.28 110.64C36.66 104.15 39.26 97.73 42.88 91.8C43.55 90.69 44.32 89.64 44.96 88.51C49.03 81.29 48.11 78.19 41.39 73.19C32.94 66.9 23.37 62.04 16.28 53.96C15.34 52.89 13.62 52.15 14.1 50.35C14.69 48.17 16.66 49.74 17.87 49.19C22.16 47.23 26.7 48.78 31.01 48.13L31 48.15Z" fill="#1A1A1A"/>
<path d="M2.85 91.15C1.91 90.87 0.460003 91.89 0.0600027 90.07C-0.369997 88.12 1.41 87.71 2.37 87.56C10.16 86.29 17.64 83.98 25.04 81.3C25.88 81 27.54 80.52 27.91 82.15C28.3 83.89 27.22 84.67 25.59 85.29C20.05 87.42 14.37 89.08 8.55 90.07C6.64 90.39 4.95 91.87 2.85 91.15V91.15Z" fill="#1A1A1A"/>
<path d="M110.09 95.37C111.76 95.07 113.22 95.94 113.73 96.72C117.95 103.21 124.33 107.33 130.33 111.78C131.94 112.98 132.28 114.15 131.75 115.32C131 116.96 129.72 116.01 128.51 115.3C121.38 111.13 116.09 104.91 110.43 99.11C109.37 98.02 110.06 96.63 110.1 95.37H110.09Z" fill="#1A1A1A"/>
<path d="M137.86 28.41C137.9 30.53 136.69 30.27 135.76 30.26C127.86 30.19 120.33 32.12 112.99 34.78C111.25 35.41 109.79 35.42 109.36 33.86C109.11 32.97 110.2 31.81 111.84 31.09C119.11 27.9 126.93 27.78 134.51 26.32C136.39 25.96 137.76 26.77 137.86 28.4V28.41Z" fill="#1A1A1A"/>
<path d="M45.41 29.45C43.59 28.51 41.44 27.44 39.31 26.31C35.18 24.13 31.02 22 26.98 19.67C25.74 18.95 24.33 17.64 25.16 16.01C25.87 14.61 27.75 14.94 28.68 15.63C34.45 19.86 40.99 22.67 47.28 25.93C48.43 26.53 49.39 27.01 48.9 28.4C48.36 29.95 46.91 28.98 45.41 29.44V29.45Z" fill="#1A1A1A"/>
<path d="M112.95 11.23C112.76 11.53 112.51 12.14 112.09 12.56C109.44 15.2 107.31 18.18 105.84 21.65C105.48 22.51 104.71 23.52 103.59 23.16C102.71 22.87 101.95 22.13 101.99 20.94C102.08 18.29 107.71 10.44 110.16 9.64C111.42 9.23 112.8 8.67999 112.95 11.23V11.23Z" fill="#1A1A1A"/>
<path d="M17.1799 105.04C15.5399 105.39 14.8299 104.64 14.2699 103.83C13.6599 102.95 14.3699 102.35 14.9599 101.76C17.6399 99.09 20.2899 96.38 22.9999 93.74C23.7599 92.99 24.8299 92.86 25.6499 93.56C26.3199 94.14 26.2299 95.21 25.7199 95.82C23.2199 98.81 20.6299 101.72 18.0299 104.62C17.7399 104.95 17.1899 105.04 17.1799 105.05V105.04Z" fill="#1A1A1A"/>
<path d="M120.11 89.32C117.72 88.49 113.32 90.71 113.35 87.33C113.38 83.47 117.82 85.44 120.29 85.32C122.48 85.22 126.54 83.87 126.53 87.06C126.52 90.85 122.3 88.44 120.12 89.32H120.11Z" fill="#1A1A1A"/>
<path d="M46.5501 11.4C51.0301 10.56 52.6601 15.16 55.7701 17.01C56.3701 17.37 56.4401 19.4 55.4201 20.12C54.7301 20.61 53.5601 20.4 52.7501 19.54C50.4101 17.06 46.1401 16.19 46.5601 11.4H46.5501Z" fill="#1A1A1A"/>
<path d="M38.66 110.34C41.71 101.63 45.6801 94.49 50.0801 87.58C52.9501 83.06 52.5901 79.81 49.0601 75.76C41.6501 67.28 31.59 62.2 22.98 55.28C21.98 54.47 20.99 53.82 20.05 52.23C31.9 52.64 43.17 50.43 54.55 51.28C58.15 51.55 60.3601 50.13 62.0201 47.05C67.3801 37.14 72.8401 27.28 78.3601 17.46C80.2401 14.12 82.43 10.95 84.61 7.49001C86.78 12.74 86.7401 18.27 87.8701 23.55C89.4901 31.13 90.6601 38.81 91.9001 46.47C92.1901 48.25 92.9 49.04 94.69 49.27C105.66 50.67 116.62 52.14 128.93 53.76C124.41 58.21 120.48 62.28 116.32 66.1C111.74 70.3 106.82 74.13 102.3 78.39C99.12 81.39 99.5801 85.84 98.7701 89.73C96.5701 100.32 94.52 110.95 92.44 121.39C84.86 112.55 79.1 101.98 73.13 91.59C70.85 87.62 69.18 88.35 66.77 90.87C58.94 99.08 49.5201 105.01 38.6501 110.34H38.66Z" fill="#AABA9C"/>
</g>
<defs>
<clipPath id="clip0_615_19">
<rect width="137.86" height="128.16" fill="white"/>
</clipPath>
</defs>
</svg>
