<svg width="130" height="99" viewBox="0 0 130 99" fill="none" xmlns="http://www.w3.org/2000/svg">
<path d="M86.6104 97.0616C86.6104 97.7799 95.4604 98.3668 106.38 98.3668C117.3 98.3668 126.15 97.7799 126.15 97.0616C126.15 96.3433 117.3 95.7563 106.38 95.7563C95.4604 95.7563 86.6104 96.3433 86.6104 97.0616Z" fill="#CFBF8B"/>
<path d="M69.0107 66.9272L64.1807 77.1414" stroke="#0B2B52" stroke-width="0.98" stroke-miterlimit="10"/>
<path d="M65.3612 66.2529H72.4912V67.5932H65.3612V66.2529Z" fill="#0B2B52"/>
<path d="M69.0112 62.7139L67.0312 66.2529H74.0312C74.0312 66.2529 69.8213 65.1229 71.1113 63.3358L69.0112 62.7139V62.7139Z" fill="#6B3E00"/>
<path d="M60.2608 35.0498C60.2608 35.0498 81.7008 41.8914 82.3608 48.33C83.0208 54.7686 72.4908 64.2469 72.4908 64.2469H67.9908L72.4908 52.272L47.8608 41.6198L60.2608 35.0498V35.0498Z" fill="#609A92"/>
<path d="M60.2612 35.0498C60.2612 35.0498 71.2112 38.545 77.7012 42.89L56.3612 45.299L47.8612 41.6198L60.2612 35.0498V35.0498Z" fill="#256B62"/>
<path d="M93.6104 52.272C93.6104 52.272 65.6104 54.7598 65.3604 76.2218" stroke="#C76C1F" stroke-width="2" stroke-linecap="round" stroke-linejoin="round"/>
<path d="M63.6107 70.8867L22.1407 74.6535V78.8145L64.1807 82.8354" stroke="#787878" stroke-width="0.7" stroke-miterlimit="10"/>
<path d="M85.7108 76.8086C85.7108 86.8125 94.9608 94.9155 106.381 94.9155C117.801 94.9155 127.051 86.8125 127.051 76.8086C127.051 66.8047 117.801 58.7017 106.381 58.7017C94.9608 58.7017 85.7108 66.8047 85.7108 76.8086Z" stroke="#006EED" stroke-width="4" stroke-miterlimit="10"/>
<path d="M87.4403 76.8087C87.4403 85.9717 95.9203 93.4002 106.38 93.4002C116.84 93.4002 125.32 85.9717 125.32 76.8087C125.32 67.6458 116.84 60.2173 106.38 60.2173C95.9203 60.2173 87.4403 67.6458 87.4403 76.8087Z" stroke="#092242" stroke-width="1.91" stroke-miterlimit="10"/>
<path d="M103.271 76.8088C103.271 78.3156 104.661 79.5332 106.381 79.5332C108.101 79.5332 109.491 78.3156 109.491 76.8088C109.491 75.3021 108.101 74.0845 106.381 74.0845C104.661 74.0845 103.271 75.3021 103.271 76.8088Z" fill="#F7AC2D"/>
<path d="M2.89066 97.0616C2.89066 97.7799 11.7407 98.3668 22.6607 98.3668C33.5807 98.3668 42.4307 97.7799 42.4307 97.0616C42.4307 96.3433 33.5807 95.7563 22.6607 95.7563C11.7407 95.7563 2.89066 96.3433 2.89066 97.0616Z" fill="#CFBF8B"/>
<path d="M2.00082 76.8086C2.00082 86.8125 11.2508 94.9155 22.6708 94.9155C34.0908 94.9155 43.3408 86.8125 43.3408 76.8086C43.3408 66.8047 34.0908 58.7017 22.6708 58.7017C11.2508 58.7017 2.00082 66.8047 2.00082 76.8086Z" stroke="#006EED" stroke-width="4" stroke-miterlimit="10"/>
<path d="M3.73035 76.8087C3.73035 85.9717 12.2104 93.4002 22.6704 93.4002C33.1304 93.4002 41.6104 85.9717 41.6104 76.8087C41.6104 67.6458 33.1304 60.2173 22.6704 60.2173C12.2104 60.2173 3.73035 67.6458 3.73035 76.8087Z" stroke="#092242" stroke-width="1.91" stroke-miterlimit="10"/>
<path d="M19.5612 76.8088C19.5612 78.3156 20.9512 79.5332 22.6712 79.5332C24.3912 79.5332 25.7812 78.3156 25.7812 76.8088C25.7812 75.3021 24.3912 74.0845 22.6712 74.0845C20.9512 74.0845 19.5612 75.3021 19.5612 76.8088Z" fill="#F7AC2D"/>
<path d="M51.1505 44.563L62.7305 76.8085" stroke="#C76C1F" stroke-width="2" stroke-linecap="round" stroke-linejoin="round"/>
<path d="M89.8306 39.8765L98.0706 66.9098C99.0706 70.1861 101.221 73.1119 104.221 75.2581L106.391 76.8174" stroke="#C76C1F" stroke-width="2" stroke-linecap="round" stroke-linejoin="round"/>
<path d="M99.0703 38.8076H78.1503" stroke="#C76C1F" stroke-width="2" stroke-linecap="round" stroke-linejoin="round"/>
<path d="M46.4304 45.3515H55.9204C56.8504 45.3515 57.6104 44.6857 57.6104 43.8711C57.6104 43.0564 56.8504 42.3906 55.9204 42.3906H46.4304C45.5004 42.3906 44.7404 43.0564 44.7404 43.8711C44.7404 44.6857 45.5004 45.3515 46.4304 45.3515Z" fill="#C76C1F"/>
<path d="M92.0811 47.2612H52.1111" stroke="#C76C1F" stroke-width="2" stroke-linecap="round" stroke-linejoin="round"/>
<path d="M52.7807 49.0918C52.7807 49.0918 22.6707 51.6935 22.6707 76.8084H60.0107" stroke="#C76C1F" stroke-width="2" stroke-linecap="round" stroke-linejoin="round"/>
<path d="M56.5756 78.0048C55.8196 74.3241 58.6129 70.8035 62.8146 70.1412C67.0163 69.4789 71.0353 71.9259 71.7913 75.6065C72.5473 79.2872 69.754 82.8079 65.5523 83.4701C61.3506 84.1324 57.3316 81.6855 56.5756 78.0048Z" fill="#F7AC2D"/>
<path d="M56.4511 86.3569H63.5811V87.6972H56.4511V86.3569Z" fill="#0B2B52"/>
<path d="M64.1807 76.8086L59.3607 87.0228" stroke="#0B2B52" stroke-width="0.98" stroke-miterlimit="10"/>
<path d="M121.061 42.6885H97.9205V53.9714H113.781C117.791 53.9714 121.051 51.1156 121.051 47.6028V42.6972L121.061 42.6885Z" fill="#6B3E00"/>
<path d="M91.4903 45.3516H110.07" stroke="#C76C1F" stroke-width="2" stroke-linecap="round" stroke-linejoin="round"/>
<path d="M57.2804 82.6864L57.9504 86.3656L65.3604 86.2342C65.3604 86.2342 61.3203 85.7524 60.8203 84.5348C60.3203 83.3172 60.3203 82.5112 60.3203 82.5112L57.2804 82.6952V82.6864Z" fill="#6B3E00"/>
<path d="M42.4407 36.583C42.4407 36.583 41.4407 39.0007 43.3307 45.3517C45.2307 51.694 56.4407 83.5891 56.4407 83.5891H61.7607L56.9307 35.6895L42.4307 36.5917L42.4407 36.583Z" fill="#609A92"/>
<path d="M65.8705 8.13913L69.3205 10.2678L68.7005 10.9599C68.7005 10.9599 71.0805 12.598 70.4505 14.0346C69.8305 15.4713 68.5305 14.8318 67.5605 15.5238C66.6005 16.2159 65.5205 18.7475 65.5205 18.7475L60.0305 18.3533L60.4805 15.1296C60.4805 15.1296 58.9005 12.7469 59.2905 11.4066C59.6905 10.0663 65.8605 8.13037 65.8605 8.13037L65.8705 8.13913Z" fill="#E68CA3"/>
<path d="M68.0603 9.48796C68.0603 9.48796 69.5603 8.53311 67.4103 7.54323C65.2603 6.55335 64.4103 6.64971 63.2803 6.25551C62.1503 5.86131 61.1903 4.07427 58.5303 6.25551C55.8703 8.43676 56.1503 9.23392 56.1503 9.23392C56.1503 9.23392 51.5103 9.33028 52.0203 11.5641C52.5303 13.7979 54.5103 13.8417 54.5103 13.8417C54.5103 13.8417 52.4203 14.8316 53.7203 15.7776C55.0203 16.7237 58.3103 16.128 58.3103 16.128C58.3103 16.128 56.5603 17.372 57.8603 17.3194C59.1603 17.2668 60.8603 16.2244 61.1403 15.2871C61.4203 14.341 60.2303 12.3612 61.4803 11.8619C62.7303 11.3626 65.3903 10.4778 65.9003 8.13892L68.0803 9.48796H68.0603Z" fill="#0B2B52"/>
<path d="M48.2305 15.1733L28.9805 4.82774C28.9805 4.82774 27.3605 0.56162 26.9205 0.88574C26.4805 1.20986 26.9205 3.46118 26.9205 3.46118L25.7305 3.35606C25.7305 3.35606 26.7905 6.42206 28.0405 6.20306L46.1005 18.7561L48.2205 15.1821L48.2305 15.1733Z" fill="#E68CA3"/>
<path d="M74.541 17.3544L93.791 7.00882C93.791 7.00882 95.411 2.73394 95.851 3.06682C96.291 3.3997 95.851 5.64226 95.851 5.64226L97.041 5.53714C97.041 5.53714 95.981 8.60314 94.731 8.38414L76.671 20.9372L74.551 17.3631L74.541 17.3544Z" fill="#E68CA3"/>
<path d="M66.9005 18.7472C62.5405 18.9048 57.9805 18.4406 55.4805 17.7135C52.9805 16.9864 47.9005 14.3584 47.9005 14.3584L45.0705 18.7559L51.1505 23.3374C51.1505 23.3374 46.5705 32.8245 43.9005 34.2173C41.2305 35.6014 39.6505 36.8453 41.4805 37.3534C43.3105 37.8615 55.2405 37.3534 59.2405 37.3534C63.2405 37.3534 64.4805 33.3413 66.9005 30.4155C69.3205 27.4984 72.9805 22.9695 77.2305 21.4365L75.1505 17.3105C75.1505 17.3105 70.5705 18.6158 66.9005 18.7472V18.7472Z" fill="#C4C4C4"/>
</svg>
