<svg width="61" height="60" viewBox="0 0 61 60" fill="none" xmlns="http://www.w3.org/2000/svg">
<g clip-path="url(#clip0_618_15)">
<path d="M49.7504 6.70406C50.0982 4.44551 47.5841 2.39599 45.2881 2.78253C42.9922 3.16908 41.3522 5.47442 41.3245 7.75841C41.2922 10.4256 43.0527 12.9894 42.5428 15.6095C41.5672 20.6226 33.4182 21.7583 32.5455 26.7897C32.1504 29.0676 33.6015 31.4059 35.6624 32.5263C37.7233 33.6467 40.2504 33.6975 42.5383 33.1439C44.8261 32.5902 46.9285 31.4817 48.9904 30.363C51.5721 28.9623 54.1664 27.5055 56.2785 25.4853C58.6484 23.2185 60.354 20.2202 60.7473 16.997C61.1405 13.7737 60.1358 10.3471 57.8189 8.02827C55.502 5.70944 51.8525 4.65614 48.7037 5.65894" fill="#A6D3B6"/>
<path d="M57.6133 60.0004C41.9698 40.8524 37.0823 57.1966 20.33 57.3367C16.4599 56.7844 13.2878 53.8684 9.28623 53.8045C5.50962 53.5328 1.42178 55.9214 0.830078 59.7481C1.83586 55.1417 7.51786 53.3323 11.7001 54.9054C32.2706 67.8791 38.4205 38.3003 57.6133 60.0004Z" fill="black"/>
<path d="M28.5039 31.6582C33.2217 37.4548 38.6673 44.6623 36.1522 52.3729C40.1819 44.8946 34.4419 36.1672 28.5039 31.6582Z" fill="black"/>
<path d="M54.86 10.6699C55.1211 38.2373 38.2208 27.1075 40.3144 50.4702C41.1879 45.7807 39.9124 39.5645 44.1361 36.1577C52.947 30.8488 56.427 20.3188 54.86 10.6699Z" fill="black"/>
<path d="M55.247 10.6261C57.3591 1.42618 41.0422 -4.56564 37.3883 4.47605C39.1207 19.0903 28.3282 17.7119 27.2422 28.9853C27.4341 32.7135 29.88 36.3923 33.5182 37.6352C29.9446 36.1865 27.6603 32.2655 27.8592 28.491C29.2501 19.6594 41.0949 16.9392 38.2636 6.26888C39.4892 -3.78603 57.0411 1.66117 55.247 10.6261Z" fill="black"/>
<path d="M27.9297 16.1055C30.5113 18.8299 31.5167 22.8438 34.4886 25.3861C32.8522 22.4141 31.5419 17.4296 27.9297 16.1055Z" fill="black"/>
<path d="M32.2648 15.4941C31.025 16.3414 31.1259 17.2222 31.4988 18.533C32.2909 17.8436 32.7343 16.457 32.2648 15.4941Z" fill="black"/>
<path d="M26.8926 19.0207C27.7742 20.1545 28.5071 19.9379 29.7687 19.5528C29.1337 18.7969 27.7501 18.4534 26.8926 19.0207Z" fill="black"/>
<path d="M30.6955 12.8604C29.657 13.615 30.3365 14.0083 30.8479 14.7497C31.447 14.274 31.4151 13.2398 30.6955 12.8604Z" fill="black"/>
<path d="M25.7988 16.5519C26.0675 17.8536 26.9154 17.7817 27.9919 17.3562C27.5488 16.6907 26.6549 16.2871 25.7988 16.5519Z" fill="black"/>
<path d="M27.1513 13.4986C26.5125 14.5299 27.2702 14.487 28.1638 14.3989C28.2646 13.8712 27.8978 13.4522 27.1513 13.4986Z" fill="black"/>
<path d="M44.5555 30.3892C43.391 29.9676 43.5003 30.6986 43.7071 31.5898C44.2854 31.5803 44.6924 31.126 44.5555 30.3892Z" fill="black"/>
<path d="M49.5221 22.7461C48.1579 23.6083 48.0413 24.5713 48.0391 26.0707C49.0582 25.4441 49.8592 23.9012 49.5221 22.7461Z" fill="black"/>
<path d="M50.6283 15.71C49.4173 16.4723 49.638 17.3957 50.3478 18.4427C50.9093 17.6988 51.0996 16.5561 50.6283 15.71Z" fill="black"/>
<path d="M48.8777 7.14062C48.1626 8.40316 48.6355 9.00081 49.4581 10.0479C49.9529 9.16689 49.7574 7.72171 48.8777 7.14062Z" fill="black"/>
<path d="M43.4726 8.02441C42.5527 8.98725 43.116 9.59755 44.0947 10.1832C44.3843 9.45685 44.1933 8.53335 43.4726 8.02441Z" fill="black"/>
<path d="M42.7888 13.0693C41.3624 13.6689 41.2185 14.7645 41.5804 16.1155C42.3904 15.3833 42.9681 14.1242 42.7888 13.0693Z" fill="black"/>
<path d="M45.5412 17.2666C44.2841 17.936 44.4367 18.643 44.6788 19.8847C45.5069 19.3934 46.0084 18.1395 45.5412 17.2666Z" fill="black"/>
<path d="M42.8262 22.9805C41.2895 23.5685 40.9469 24.7586 41.1215 26.2573C42.0658 25.4885 42.8509 24.1368 42.8262 22.9805Z" fill="black"/>
<path d="M34.0417 29.3564C33.7098 30.6987 34.5175 31.1401 35.7408 31.3432C35.6234 30.4702 34.9648 29.5895 34.0417 29.3564Z" fill="black"/>
<path d="M37.6428 24.0654C36.4971 24.9047 36.7979 25.7932 37.5895 26.7672C38.0873 25.9963 38.1824 24.8612 37.6428 24.0654Z" fill="black"/>
<path d="M38.7655 18.1338C37.8456 19.0967 38.409 19.7069 39.3876 20.2925C39.6773 19.5663 39.4863 18.6427 38.7655 18.1338Z" fill="black"/>
<path d="M32.0724 27.7969C31.3606 28.9332 32.0266 29.464 33.1125 29.8893C33.2536 29.0973 32.8825 28.1889 32.0724 27.7969Z" fill="black"/>
<path d="M46.8623 40.5381C47.7522 43.7381 47.9028 47.2039 46.8516 50.3807C49.2252 47.7959 49.3694 43.0428 46.8623 40.5381Z" fill="black"/>
<path d="M52.612 39.4619C52.1858 42.0228 51.1515 44.5606 49.2383 46.3996C52.0401 45.6873 53.9835 42.0186 52.612 39.4619Z" fill="black"/>
<path d="M46.6346 44.7046C46.8976 43.5387 46.2301 43.9294 45.5 44.3529C45.5619 44.8444 45.9992 45.051 46.6346 44.7046Z" fill="black"/>
<path d="M44.4731 39.0312C43.6439 40.1279 44.3058 40.885 45.4421 41.3015C45.5401 40.4498 45.2064 39.5545 44.4731 39.0312Z" fill="black"/>
<path d="M48.1743 37.2441C46.8551 37.2873 46.8008 38.5819 47.6799 39.2867C48.16 38.6721 48.3024 38.0458 48.1743 37.2441Z" fill="black"/>
<path d="M49.5388 39.674C48.3397 39.6304 49.0746 40.0529 49.6892 40.4584C50.1037 40.366 50.1093 40.0562 49.5388 39.674Z" fill="black"/>
<path d="M51.2716 39.001C50.0975 39.5855 50.4841 40.277 51.2331 41.0644C51.4879 40.7808 51.6317 40.4176 51.6387 40.0396C51.6458 39.6617 51.5157 39.2936 51.2716 39.001V39.001Z" fill="black"/>
<path d="M54.9116 37.4774C53.9937 36.7025 54.1047 37.474 54.1962 38.2699C54.6405 38.4479 54.9771 38.1758 54.9116 37.4774Z" fill="black"/>
<path d="M56.0305 41.2098C54.977 40.5543 54.8856 41.2869 54.8633 42.2186C55.4478 42.3295 55.976 41.9656 56.0305 41.2098Z" fill="black"/>
<path d="M54.9102 44.9365C54.4873 43.8287 54.2639 44.5955 54.0137 45.3291C54.2956 45.6839 54.6762 45.5892 54.9102 44.9365Z" fill="black"/>
<path d="M10.7167 10.8947C26.337 4.08418 16.878 29.1423 9.8497 15.1396C9.11543 13.1519 10.2405 10.4599 12.5708 10.2135C7.62644 10.7533 8.72586 17.4512 11.9734 19.5675C23.7012 24.2416 22.6862 2.8094 10.7167 10.8947Z" fill="black"/>
<path d="M7.69506 36.8135C6.84442 42.1759 7.63797 47.7874 9.55978 52.7959C9.042 48.0753 8.41227 41.3344 7.69506 36.8135Z" fill="black"/>
<path d="M17.5856 28.3271C13.8916 30.2465 10.8932 33.1226 8.53516 36.4356C11.6981 34.2492 15.5877 30.8619 17.5856 28.3271Z" fill="black"/>
<path d="M25.308 37.0422C24.4909 33.6073 21.7715 30.9351 18.3984 29.835C20.8573 31.9526 23.2032 34.6248 25.308 37.0422Z" fill="black"/>
<path d="M26.4259 57.2246C26.4054 50.6184 25.7668 43.9515 24.923 37.4619C24.3525 43.5598 24.8796 51.6777 26.4259 57.2246Z" fill="black"/>
<path d="M13.8842 37.2539C12.9731 42.8599 13.247 48.66 14.2848 54.1763C14.6464 48.8549 14.5499 41.6715 13.8842 37.2539Z" fill="black"/>
<path d="M25.3243 37.071C19.9599 35.939 14.1948 37.1277 8.76758 37.3043C14.2152 38.4894 19.9051 37.5524 25.3243 37.071Z" fill="black"/>
<path d="M12.7437 32.1963C13.3985 29.7779 13.3421 27.1791 12.7246 24.75C12.4697 24.9395 11.8628 25.4069 11.5996 25.5629C11.3636 25.7032 11.1152 25.8225 10.8574 25.9194C9.30243 26.1049 10.7115 28.3915 10.6394 29.4938C11.3633 34.7687 11.3426 29.871 11.2948 27.2568C11.1526 26.8222 11.7023 26.9181 11.9305 26.6807C12.4249 28.3695 12.581 30.5251 12.7437 32.1963Z" fill="black"/>
<path d="M21.0944 57.994C21.2698 55.5664 21.5954 53.0467 21.4837 50.665C20.1845 50.9019 17.3526 51.2813 17.8462 53.0821C17.8923 53.3343 18.0469 53.9967 18.0998 54.2555C18.6678 57.2904 18.453 53.9922 18.5468 52.6305C19.0954 52.368 19.672 52.1659 20.266 52.028C20.4759 53.7359 20.5208 56.2835 21.0944 57.994Z" fill="black"/>
<path d="M16.0156 41.7464C17.7449 41.3701 19.5129 41.1929 21.2841 41.2182C21.2673 41.4486 21.2826 41.8891 21.2865 42.1279C20.1941 42.3805 18.4886 43.1838 17.1549 43.2532C16.5159 43.1332 15.9264 42.4351 16.198 41.7657C15.7717 42.5205 16.4012 43.4341 17.1768 43.6564C18.5373 43.4977 23.2301 43.8894 22.4621 42.2881C22.4534 41.5664 22.4417 40.8225 22.4261 40.1022C20.3217 40.0274 17.6521 40.7192 16.0156 41.7464Z" fill="black"/>
<path d="M7.37654 54.3489C8.60908 51.6711 4.67305 48.3579 3.35564 51.8357C1.22446 51.4925 0.937852 54.0216 2.58309 55.0216C1.71719 53.6582 1.84728 52.5285 3.65642 52.9308C5.7111 50.3113 6.77131 51.5756 7.37654 54.3489Z" fill="black"/>
<path d="M35.6605 53.4714C35.5552 48.9113 30.708 49.1116 30.5415 53.3197C28.8412 53.3348 29.4719 55.5468 29.5939 54.6059C29.8243 53.5586 30.9132 54.4025 31.4661 54.6962C31.0645 53.1431 31.8932 51.9027 33.2033 51.0484C34.3142 51.2506 35.2578 52.4776 35.6605 53.4714Z" fill="black"/>
<path d="M27.2681 7.26903C25.7022 6.47136 23.5411 9.60926 25.264 9.94333C23.0287 7.85472 25.4845 11.9616 25.6644 12.8478C25.6564 11.0399 25.3151 8.33121 27.2681 7.26903Z" fill="black"/>
<path d="M22.298 22.2588C21.3815 21.9616 19.7692 22.1783 19.6773 23.2781C19.3447 23.7006 18.3195 22.2201 18.6633 23.1432C19.5774 26.7042 20.2807 23.1319 22.298 22.2588Z" fill="black"/>
<path d="M57.3701 29.2891C54.0028 28.3027 55.5098 32.3682 53.9616 30.1347C53.7914 30.8751 54.7387 32.3513 55.2604 33.198C55.9612 34.3387 54.6115 30.1018 57.3701 29.2891Z" fill="black"/>
</g>
<defs>
<clipPath id="clip0_618_15">
<rect width="60" height="60" fill="white" transform="translate(0.830078)"/>
</clipPath>
</defs>
</svg>
