<svg width="70" height="70" viewBox="0 0 70 70" fill="none" xmlns="http://www.w3.org/2000/svg">
<path d="M25.252 9.89987C23.8349 18.6696 23.6662 27.5786 24.7502 36.3905C25.0589 38.8958 22.2395 40.7629 19.6249 41.2912C17.0102 41.8194 14.1493 41.6735 11.8621 42.9799C9.57476 44.2863 8.68195 48.017 11.0843 49.1246C17.6042 52.1307 26.4384 49.2559 29.6063 43.0972C30.9768 40.4327 25.3533 37.9834 26.5417 35.2422C29.8008 27.651 30.1767 19.2302 27.6057 11.4074L28.9049 9.64307C28.0557 8.61513 26.2942 8.40494 25.2004 9.20104C24.1066 9.99714 23.8754 11.6576 25.252 9.89987Z" fill="#609A92"/>
<path d="M60.4435 29.5169C59.2981 28.6181 57.4795 29.7224 57.0453 31.0667C56.6111 32.4111 56.9655 33.8652 56.7927 35.2611C56.6198 36.657 55.4978 38.196 54.0259 37.9784C53.1114 37.8432 52.1749 37.9748 51.3419 38.3556C50.5089 38.7363 49.8191 39.3481 49.3648 40.1089C48.9106 40.8697 48.7137 41.7432 48.8004 42.6125C48.8871 43.4818 49.2532 44.3054 49.8499 44.9729C50.6341 46.1003 52.5442 45.9282 53.6437 45.0665C54.7433 44.2049 55.3192 42.9042 56.1156 41.7845C56.912 40.6648 58.1782 39.6252 59.5956 39.8003C62.6901 40.1827 65.8481 37.7422 66.0595 34.8052C66.271 31.8682 63.4917 29.0475 60.3708 29.0317L59.6603 30.4442C58.833 30.6869 58.0058 30.9295 60.4435 29.5169Z" fill="#609A92"/>
<path d="M47.2973 41.6412C47.2958 41.6451 47.2945 41.6495 47.293 41.6535C47.2972 41.6453 47.3015 41.6373 47.3057 41.6291C47.3069 41.624 47.3078 41.6189 47.3085 41.6138C47.3046 41.6229 47.3013 41.6321 47.2973 41.6412Z" fill="black"/>
<path d="M69.7657 33.1264C69.455 30.9793 68.6734 28.9266 67.8183 26.9255C65.2097 20.9046 61.5102 16.1479 55.7889 12.815C55.9139 12.5068 56.0365 12.1974 56.1476 11.8823C56.8154 9.39016 57.0349 6.53445 55.6927 4.20651C53.4051 1.24164 51.0243 0.458495 47.4642 0.0905987C46.0206 -0.00446964 44.5709 -0.0100591 43.1244 0.00843571C41.644 0.0268906 40.1321 0.228827 38.8201 0.912253C36.5993 2.00308 35.791 3.77951 35.5891 5.7696C33.64 5.48931 31.6684 5.37267 29.6975 5.42106C27.2065 5.58666 24.7645 6.15693 22.4793 7.1067C22.0896 7.26428 21.7051 7.43354 21.3242 7.60871C22.256 7.40699 23.1983 7.251 24.1473 7.14139C27.6849 6.73202 30.2481 7.00485 33.3631 7.6963C31.9984 9.40401 30.6043 11.1082 29.558 13.0008C28.9855 14.316 30.8806 15.4575 31.6146 16.3879C31.7373 16.5357 31.7643 16.5616 31.7447 16.5343C32.0112 16.8627 32.3574 17.3456 32.4273 17.5319C32.6139 18.0427 32.6601 18.5898 32.5613 19.122C32.1496 20.7363 30.4238 23.0678 29.0317 25.0268C27.8437 26.7773 29.4231 28.4517 30.1281 29.1222C31.1849 30.1752 31.1219 30.0031 31.4066 30.7478C31.5245 31.3747 31.5125 31.481 31.3527 32.1545C30.947 33.2465 31.2073 32.7523 30.1789 34.4209C29.7172 35.1601 29.0935 35.8794 29.0243 36.7651C29.0309 38.2022 30.5916 38.9385 31.8354 39.3811C32.5353 39.6498 33.2792 39.792 33.9886 40.0319C34.0047 40.0401 34.0183 40.0471 34.0324 40.0546C34.0594 40.0785 34.0863 40.1023 34.1114 40.1281C34.1178 40.1375 34.1219 40.1434 34.1289 40.1539C34.1375 40.1678 34.142 40.1759 34.1493 40.1879C34.2147 40.3664 34.264 40.5497 34.2967 40.7359C34.3097 40.8419 34.323 40.9478 34.3355 41.0539C34.4269 42.0055 34.422 42.9632 34.3208 43.914C33.4422 47.3069 37.9084 46.7406 39.6637 47.0234C40.6505 47.1696 41.5714 47.5404 42.5061 47.8562C43.2422 48.1789 44.0821 48.3741 44.8403 48.001C47.1209 47.0684 46.5847 43.627 47.2486 41.7778C47.2888 41.7401 47.3406 41.6929 47.4044 41.6384C48.0335 41.2169 48.7024 40.8508 49.4025 40.5447C50.3782 40.1863 51.1713 39.3308 51.1962 38.3162C51.2211 37.1852 50.5795 36.1881 50.0478 35.1945C50.0901 35.1662 50.1314 35.1364 50.1747 35.1093C50.7345 34.7648 51.3627 34.5347 51.9679 34.2722C52.0517 34.2387 52.1354 34.2051 52.219 34.1716C52.2493 34.1618 52.3275 34.1323 52.449 34.081C54.9732 33.0096 57.9267 33.1147 56.5815 29.6094C56.2211 28.7458 56.2983 28.6872 56.3729 28.5543C56.9479 27.8661 57.7201 27.5432 58.5996 27.1085C59.8458 26.5333 61.1173 25.9971 62.2986 25.3065C62.578 25.1446 62.8465 24.9673 63.1148 24.7898C64.891 27.8764 66.153 31.1978 66.5554 33.5975C66.8002 37.1146 66.8091 39.917 66.2713 42.7681C64.7303 42.4517 63.1542 42.3142 61.5778 42.3585C59.6784 42.6053 57.6439 42.6979 55.9305 43.5784C55.042 44.0573 54.4956 45.062 54.6737 46.0048C53.1891 46.3554 51.6925 46.6602 50.2107 47.022C47.9797 47.5686 45.7632 48.1856 43.6419 49.0438C42.5457 49.4667 41.4622 49.9462 40.4942 50.5922C38.1324 49.6519 35.8201 48.4944 33.2827 48.0526C30.076 47.4344 27.9093 48.9714 25.9001 51.1242C25.8562 51.1632 25.8085 51.198 25.7623 51.2345C25.6893 51.2811 25.6136 51.324 25.5358 51.3629L25.53 51.3655C25.4895 51.3789 25.4487 51.3916 25.4077 51.4032C25.2883 51.378 25.1709 51.3447 25.0566 51.3035C24.912 51.2513 24.9101 51.2531 24.9611 51.2745C24.9352 51.2642 24.9093 51.2537 24.8833 51.2435C24.8572 51.2351 24.8314 51.2259 24.806 51.2158C24.677 51.1551 24.5764 51.1449 23.9193 50.8553C22.7471 50.3651 21.6254 49.6823 20.3409 49.4943C19.5188 49.3711 18.6788 49.4048 17.8707 49.5932C17.1465 49.7555 16.3967 49.957 15.8248 50.427C14.7892 51.4441 14.8593 51.8361 13.5931 52.7503C12.3973 53.681 9.85164 53.7444 7.97395 54.4289C6.9711 53.03 6.1057 51.5477 5.38852 50.0005C4.47988 47.8806 3.84416 45.6656 3.49497 43.4029C5.12133 44.8339 7.1131 45.6123 9.25372 44.1147C11.8724 42.3139 12.5115 39.4838 14.613 37.9379C15.1989 37.5129 15.3478 37.2711 16.463 36.7778L16.4893 36.7671C16.517 36.7564 16.5498 36.7437 16.5946 36.7262C17.5553 36.36 18.5338 36.0125 19.4072 35.4785C20.945 34.4943 22.8164 32.4248 22.1778 30.559C21.8041 29.652 20.998 29.019 20.2821 28.3444C22.2638 26.6668 24.2035 24.6095 24.2148 21.9716C24.2167 21.3619 24.0708 20.7598 23.7882 20.2114C23.8039 20.2465 23.8191 20.2804 23.818 20.2776C23.7912 20.1524 23.2386 19.1457 22.7959 18.5902C22.1471 17.5972 20.6483 15.9854 21.1955 15.1948C22.1351 14.4532 23.0842 13.7156 23.8624 12.815C24.2572 12.3451 24.715 11.8515 24.763 11.2275C24.8252 10.0758 23.8119 9.20985 23.2755 8.25169C24.1255 10.2347 25.2871 10.9711 23.0793 12.614C20.7453 14.5808 18.4668 14.2956 20.8222 18.3045C22.2977 20.82 22.6142 21.2 21.9838 22.9625C21.6109 23.9734 20.8547 24.7786 19.3333 26.0979C18.4343 26.8791 17.234 27.637 17.8513 28.9514C18.1714 29.663 18.8854 30.1173 19.4261 30.6713C19.5086 30.7532 19.5821 30.8424 19.6572 30.9302C19.7127 31.0072 19.8159 31.1505 19.8796 31.2598L19.8814 31.2651C19.8813 31.2702 19.8822 31.2752 19.882 31.2803C19.8587 31.3799 19.8295 31.4782 19.7946 31.5748C19.5813 32.0897 18.5842 33.4171 16.8654 34.0511C16.1247 34.4117 15.3391 34.7005 14.6485 35.1457C13.5786 35.8799 12.6527 36.7845 11.9123 37.8187C10.9569 39.1408 10.4776 40.7128 9.52327 42.0388C8.1696 43.924 6.46411 44.8666 3.83721 43.1925C3.69786 43.106 3.5613 43.0158 3.42569 42.9243C3.23763 41.5352 3.14935 40.1375 3.09898 38.6306C2.93096 30.0594 5.65791 20.8611 11.2661 14.8655C13.6471 12.4067 15.9436 11.1263 19.3478 9.58202C20.6525 9.12765 23.3269 8.19625 25.1163 7.63797C23.0488 7.94755 20.9739 8.22868 18.9306 8.66271C15.0229 9.67393 11.1847 11.3329 8.35776 14.1388C5.82729 16.5995 3.91137 19.5622 2.74986 22.8106C0.605057 28.4491 -0.017792 32.6402 0.000415596 38.2324C0.136367 42.3044 0.716688 46.4393 2.33547 50.2401C4.68995 55.566 8.37658 60.5511 13.3995 63.9184C16.5433 65.8691 20.0161 67.4376 23.6747 68.2993C27.4231 69.1025 31.2304 69.7127 35.0693 69.9435C42.1445 70.355 49.414 68.5193 55.0558 64.4099C56.6577 63.2501 58.2755 62.0959 59.7221 60.7627C61.1023 59.4652 62.302 58.0076 63.4391 56.5183C66.8015 52.0369 69.2138 46.8208 69.7846 41.3249C70.0167 38.6049 70.1297 35.8393 69.7657 33.1264ZM51.9153 14.4174C50.5374 17.4612 48.5387 20.7298 46.5101 25.0176C45.9314 26.2211 45.434 27.4567 44.9439 28.6943C44.3228 28.5396 43.8949 27.5182 43.3117 25.4492C42.572 22.9948 41.9524 20.5085 41.1381 18.0742C40.5657 16.3391 39.949 14.6147 39.5094 12.844C39.1849 11.6104 38.9181 10.3651 38.7093 9.10784L38.4508 6.42395C38.5115 5.24048 38.9183 4.33718 39.5518 3.83249C40.17 3.2907 41.5269 2.74565 43.2824 2.79271C47.8315 2.76521 50.3932 2.67097 52.8107 5.40157C53.31 6.13687 53.1186 5.81053 53.4342 7.07398C53.5312 7.62161 53.5104 10.0292 53.195 10.9684C53.1566 11.1098 53.1117 11.2507 53.0696 11.3918L51.9153 14.4174ZM43.648 10.7997C43.0712 10.1765 43.9456 7.64064 43.9456 7.64064C43.9673 7.59646 43.9865 7.55261 44.0105 7.50809C44.4365 6.66531 45.4647 6.39039 46.2596 5.94362C45.4084 6.11768 44.4583 6.15175 43.7421 6.66683C43.4863 6.87249 43.2577 7.1065 43.0613 7.36379C43.0613 7.36379 41.9358 9.30892 41.9824 10.1918C41.9552 10.4363 41.9414 10.6819 41.941 10.9278C42.0851 13.4801 45.2156 14.822 47.4396 13.4606C47.8006 13.2728 48.1322 13.0386 48.4248 12.7648C48.4248 12.7648 49.6686 11.317 49.881 9.91547C50.0072 8.61125 49.4505 7.32979 47.9264 6.6711C47.4421 6.43561 46.8973 6.33321 46.3542 6.37559C46.2148 6.38315 46.0759 6.39663 45.9379 6.41422C46.0067 6.43189 46.0758 6.44907 46.1444 6.46732C46.6715 6.59225 47.1538 6.84719 47.5419 7.20598C47.93 7.56478 48.2099 8.01451 48.3529 8.50903C48.4284 8.74852 48.4551 8.99934 48.4316 9.24822C48.4316 9.24822 46.49 11.895 46.2157 11.8213C46.1257 11.8577 46.0332 11.8884 45.9389 11.9132C45.1135 12.1477 44.2463 11.7706 43.9111 11.2833C43.8029 11.1328 43.7145 10.9704 43.648 10.7997V10.7997ZM46.2157 11.8213L56.5691 26.6631C53.9228 27.7156 54.5643 29.4503 54.7203 30.73C54.7241 30.8045 54.7278 30.8792 54.7283 30.9538C54.3653 31.0765 53.9905 31.1679 53.621 31.271C50.5114 32.1711 47.318 32.8266 47.0767 34.8822C46.9654 34.8285 46.8491 34.777 46.724 34.7296C46.5333 34.6555 46.3377 34.5926 46.1405 34.5364C46.4768 34.7733 46.7871 35.0412 47.0669 35.3362C47.0693 35.3384 47.0712 35.3411 47.0736 35.3434C47.1367 35.8729 47.3064 36.3861 47.5735 36.8555C47.5709 36.8725 47.5704 36.8898 47.5674 36.9066C47.4102 37.5206 47.0268 38.062 46.4856 38.4341C45.7533 38.9268 45.3237 39.0906 44.4393 39.2553C43.3524 39.4825 41.9908 39.2542 41.2984 38.5472C40.5443 37.867 40.4156 37.3476 40.7949 36.2894C41.0427 35.6125 41.4802 35.0116 42.0608 34.5503C42.7639 34.0031 43.6199 33.6679 44.3944 33.2226C43.191 33.4703 41.901 33.604 40.8852 34.319C39.5825 35.2279 38.5881 36.8449 39.0619 38.3958C39.7849 40.5419 42.126 41.4583 44.3125 41.096C43.7978 42.4234 43.8481 43.8966 43.4332 45.2524L43.4315 45.2569C42.7157 45.0746 42.0397 44.7582 41.3169 44.5927C40.3343 44.3681 39.3288 44.2442 38.318 44.2232C37.4962 44.1599 37.2952 44.1704 37.0682 44.1367C37.232 42.7059 37.1768 41.2603 36.9043 39.8442C36.675 38.8521 35.961 37.9423 34.9189 37.6127C33.5882 37.1645 32.5226 36.997 31.8415 36.6397C32.3175 35.8611 32.8686 35.122 33.2797 34.3084C34.3127 32.4417 34.4564 29.9795 32.8702 28.3454C31.8276 27.2599 31.1964 26.8166 31.032 26.3602C31.0371 26.3426 31.0384 26.3241 31.0443 26.3066C31.7503 25.2747 34.3785 21.487 34.5011 19.0533C34.5132 18.2471 34.3105 17.4509 33.9115 16.7379C33.5057 16.1613 33.0203 15.6384 32.468 15.1829C31.8748 14.6649 31.0568 14.1672 30.6638 13.6245C30.6175 13.5596 30.579 13.49 30.549 13.4171C30.6123 13.2029 30.6901 12.9927 30.7818 12.7879C31.4505 11.4106 32.5546 9.47281 33.5716 7.74352C33.6836 7.76884 33.7944 7.79334 33.9079 7.81968C34.4699 7.94911 35.029 8.08795 35.5869 8.23123C35.6095 8.52785 35.6359 8.82485 35.668 9.12123C35.9647 11.3505 36.526 13.5413 37.3414 15.6524C37.8289 16.9448 39.4753 20.3124 39.6988 20.9109C40.8387 23.5263 41.499 25.309 42.7378 27.7057C43.2032 28.6169 44.0598 29.6719 45.2635 29.476C45.8729 29.3568 46.3187 28.9008 46.6808 28.4518C47.247 27.7537 47.708 26.9867 48.2052 26.245C46.6802 27.8446 45.7721 28.7302 45.0983 28.7138C45.2567 28.4886 45.4157 28.2637 45.573 28.0378C48.3573 23.8853 51.9064 20.0965 54.3575 15.7535C55.9195 16.6756 57.2934 17.6428 58.2658 18.616C60.031 20.1414 61.6557 22.2941 62.9987 24.5912C60.8933 25.4133 58.704 25.8522 56.5691 26.6631L46.2157 11.8213ZM45.3599 45.2687C43.0487 47.075 41.2448 48.4318 37.9378 49.9635C36.4009 50.7854 31.2547 52.1011 29.5363 52.1333C25.1788 52.5081 21.3036 52.0148 17.9454 51.4667C12.7482 50.6418 9.52921 49.5942 5.25868 47.1169C2.61888 45.6861 -0.186858 42.679 -2.29175 39.71C-1.36352 39.5319 -0.420218 39.4327 0.526801 39.4137C2.07168 39.3914 3.5959 39.1109 4.82826 38.178C5.40509 37.814 5.9726 37.1682 6.4032 36.7912C7.36262 36.2849 8.6382 36.3594 9.10601 36.3993C10.3709 36.6122 11.2911 37.3811 12.8512 38.2169C13.5759 38.6057 14.3126 39.0665 15.1705 39.0994C16.6448 39.125 17.7402 38.045 18.6914 37.1148C19.3763 36.5059 18.9542 36.8252 20.0028 36.1967C20.1452 36.113 20.2925 36.0369 20.444 35.9688C20.6405 35.8985 20.843 35.8439 21.0491 35.8055L21.0764 35.801C23.3303 35.6563 25.5333 36.822 27.8632 37.751C28.9127 38.1228 30.0541 39.0213 31.1873 38.4128C31.9429 37.9529 31.5365 38.1311 32.6644 37.5045C34.5803 36.5492 36.5034 35.9318 39.281 35.0593C40.9696 34.5526 42.675 34.0955 44.3711 33.6118C45.1197 33.3669 45.9787 33.2933 46.6082 32.8136C47.2015 32.3075 47.0902 31.4671 46.6773 30.885C46.6119 30.7941 46.5526 30.6995 46.4996 30.6017C46.4995 30.5896 46.4982 30.5776 46.4983 30.5655C46.5002 30.5539 46.5016 30.5466 46.5037 30.532C46.5106 30.5131 46.5159 30.4987 46.5207 30.4849C46.8646 30.1765 46.4788 30.3279 47.6706 29.7637C48.32 29.4998 52.123 28.3065 53.5281 28.4051C54.2965 28.3589 55.0666 28.3391 55.8367 28.3374C55.4492 30.1576 54.8783 31.9387 54.1316 33.6564C62.9017 51.9528 59.7395 57.0921 55.7133 60.1104L45.3599 45.2687Z" fill="black"/>
</svg>
