<svg width="262" height="98" viewBox="0 0 262 98" fill="none" xmlns="http://www.w3.org/2000/svg">
<path d="M87 25.176H105.072V27.732H87V25.176ZM87 20.856H105.072V23.34H87V20.856ZM84.372 18.912V29.64H107.736V18.912H84.372ZM80.088 31.656V33.888H111.804V31.656H80.088ZM96.072 36.156V38.352H108.888V36.156H96.072ZM84.768 36.372V38.388H93.66V36.372H84.768ZM84.768 40.908V42.924H93.66V40.908H84.768ZM99.852 38.172L97.656 38.82C100.032 44.724 104.676 49.008 111.012 50.88C111.372 50.232 112.092 49.26 112.668 48.756C106.548 47.244 101.94 43.32 99.852 38.172ZM108.06 36.156V36.588C106.08 42.636 100.536 46.848 94.776 48.576C95.28 49.08 95.964 50.052 96.252 50.7C102.516 48.54 108.312 44.04 110.688 36.732L109.032 36.048L108.564 36.156H108.06ZM79.764 46.416L80.016 48.828C83.724 48.396 88.728 47.784 93.588 47.208V44.976C88.512 45.552 83.292 46.128 79.764 46.416ZM92.22 32.376V50.88H94.812V32.376H92.22ZM83.184 32.412V47.064H85.704V32.412H83.184ZM138.732 29.928V32.448H152.124V29.928H138.732ZM119.796 21.54V23.844H135.672V21.54H119.796ZM119.4 35.832V38.172H135.852V35.832H119.4ZM119.292 29.784V32.088H136.104V29.784H119.292ZM145.428 30.936V50.7H148.056V30.936H145.428ZM126.456 17.904V22.728H129.084V17.904H126.456ZM126.456 31.656V50.844H129.084V31.656H126.456ZM137.436 20.712V33.312C137.436 38.424 136.932 44.652 132.324 49.188C132.972 49.548 133.944 50.448 134.268 51.06C139.344 46.056 139.992 38.748 139.992 33.348V22.224C140.496 22.152 140.712 22.008 140.748 21.72L137.436 20.712ZM149.496 18.192C146.868 19.488 142.116 20.748 138.084 21.612C138.408 22.152 138.768 23.088 138.912 23.664C143.232 22.908 148.272 21.684 151.656 20.172L149.496 18.192ZM128.832 38.856L127.356 40.08C128.688 41.196 132.072 44.364 133.224 45.696L134.808 43.68C133.908 42.852 129.984 39.648 128.832 38.856ZM121.956 24.492C122.676 26.148 123.252 28.308 123.36 29.712L125.628 29.1C125.448 27.732 124.836 25.608 124.08 24.024L121.956 24.492ZM131.172 23.952C130.776 25.464 130.02 27.696 129.372 29.136L131.532 29.64C132.18 28.308 132.936 26.292 133.62 24.492L131.172 23.952ZM126.492 37.02C124.764 40.548 121.488 44.436 118.572 46.344C119.184 46.776 119.976 47.64 120.408 48.252C123.288 46.02 126.6 41.772 128.436 37.776L126.492 37.02ZM171.312 36.876V50.88H173.796V39.36H186.684V50.7H189.276V36.876H171.312ZM187.944 17.904C183.948 19.344 176.64 20.46 170.376 21.144C170.7 21.756 171.06 22.8 171.168 23.448C177.612 22.836 185.136 21.72 190.068 20.028L187.944 17.904ZM179.088 21.036V38.316H181.68V21.036H179.088ZM168.684 28.344V30.936H191.616V28.344H168.684ZM173.004 46.848V49.332H187.872V46.848H173.004ZM160.44 20.136C162.672 21.324 165.66 23.088 167.172 24.168L168.756 21.972C167.208 20.928 164.148 19.308 161.952 18.228L160.44 20.136ZM158.676 30.072C160.872 31.224 163.86 32.952 165.336 33.96L166.848 31.764C165.336 30.72 162.312 29.136 160.188 28.092L158.676 30.072ZM159.54 48.576L161.808 50.412C163.932 47.064 166.452 42.564 168.36 38.748L166.416 36.984C164.328 41.088 161.484 45.84 159.54 48.576ZM199.284 41.304V43.356H215.7V41.304H199.284ZM198.312 23.952V26.04H216.276V23.952H198.312ZM206.124 20.676V47.172H208.608V20.676H206.124ZM198.276 47.244L198.672 49.584C203.244 49.116 209.76 48.36 215.88 47.64L215.844 45.516C209.4 46.2 202.668 46.848 198.276 47.244ZM201.624 34.572H213.288V37.236H201.624V34.572ZM201.624 30.18H213.288V32.772H201.624V30.18ZM199.356 28.308V39.108H215.592V28.308H199.356ZM214.296 18.12C210.588 18.984 204.036 19.632 198.672 19.92C198.96 20.46 199.212 21.36 199.32 21.936C204.72 21.756 211.416 21.144 215.664 20.208L214.296 18.12ZM216.024 26.184V28.704H229.02V26.184H216.024ZM227.976 26.184V26.832C227.58 41.412 227.184 46.596 226.284 47.712C225.96 48.18 225.6 48.288 225.024 48.288C224.304 48.288 222.72 48.252 220.956 48.108C221.388 48.828 221.676 49.944 221.748 50.7C223.404 50.808 225.132 50.808 226.14 50.7C227.22 50.592 227.94 50.268 228.588 49.332C229.776 47.784 230.136 42.744 230.532 27.552C230.532 27.192 230.568 26.184 230.568 26.184H227.976ZM220.38 18.228C220.344 31.836 220.524 43.248 212.28 49.152C212.928 49.584 213.864 50.448 214.296 51.096C222.9 44.652 222.936 32.556 222.972 18.228H220.38Z" fill="#451515"/>
<path d="M55.64 89.02V92.22C55.64 93.78 56.22 94.18 58.4 94.18C58.86 94.18 62.1 94.18 62.58 94.18C64.4 94.18 64.86 93.58 65.06 91.06C64.64 90.96 64.02 90.76 63.68 90.5C63.6 92.54 63.44 92.82 62.46 92.82C61.74 92.82 59.04 92.82 58.5 92.82C57.32 92.82 57.12 92.74 57.12 92.2V89.02H55.64ZM58.28 88.32C59.22 89.24 60.42 90.54 61.02 91.3L62.1 90.4C61.48 89.64 60.26 88.42 59.32 87.54L58.28 88.32ZM65.32 88.98C66.14 90.3 67.18 92.08 67.66 93.12L69.04 92.42C68.54 91.4 67.46 89.68 66.64 88.4L65.32 88.98ZM52.8 88.78C52.42 90.12 51.74 91.82 50.92 92.88L52.24 93.56C53.06 92.44 53.7 90.64 54.12 89.3L52.8 88.78ZM51.08 79.2V80.5H59.36V79.2H51.08ZM54.76 76.26V87.92H56.18V76.26H54.76ZM54.7 80C53.86 82.2 52.22 84.54 50.64 85.68C50.94 85.92 51.38 86.4 51.62 86.74C53.22 85.4 54.86 82.84 55.74 80.36L54.7 80ZM56.06 81.56L55.26 82.3C56.06 82.9 58 84.56 58.7 85.26L59.52 84.06C58.96 83.62 56.72 81.96 56.06 81.56ZM61.62 81.54H66.62V83.42H61.62V81.54ZM61.62 84.58H66.62V86.48H61.62V84.58ZM61.62 78.5H66.62V80.34H61.62V78.5ZM60.24 77.26V87.72H68.06V77.26H60.24ZM83.56 91.02V92.44H89.48V91.02H83.56ZM82.94 77.94V94.04H84.38V79.36H88.64V93.82H90.14V77.94H82.94ZM77.02 79.58V83.58C77.02 86.68 76.56 90.66 72.66 93.44C72.98 93.66 73.52 94.24 73.72 94.56C77.86 91.6 78.54 87 78.54 83.6V79.58H77.02ZM74.96 78.9V80.3H81.7V78.9H74.96ZM72.88 84.28V85.72H82.3V84.28H72.88ZM78.06 86.92L77.14 87.78C78.06 88.76 80.36 91.5 81.2 92.72L82.22 91.46C81.58 90.7 78.84 87.62 78.06 86.92ZM75.14 76.2C74.66 78.64 73.84 81.04 72.64 82.58C72.98 82.78 73.62 83.2 73.88 83.44C75.06 81.74 76.02 79.16 76.6 76.48L75.14 76.2ZM100.22 78.76V80.02H112.94V78.76H100.22ZM105.68 79.32C105.58 80.1 105.32 81.28 105.12 82.06L106.36 82.3C106.66 81.58 107.04 80.48 107.36 79.46L105.68 79.32ZM109.16 76.2C108.84 76.96 108.22 78.08 107.74 78.8L109 79.14C109.52 78.48 110.12 77.5 110.68 76.58L109.16 76.2ZM102.34 76.72C102.94 77.42 103.54 78.4 103.76 79.06L104.98 78.52C104.76 77.86 104.14 76.92 103.52 76.26L102.34 76.72ZM99.22 84.1H94.96V85.5H97.76V91.18H99.22V84.1ZM99.22 90.52H97.86C96.84 91.38 95.66 92.26 94.7 92.9L95.5 94.44C96.58 93.56 97.6 92.7 98.56 91.84C99.84 93.42 101.64 94.12 104.24 94.22C106.46 94.3 110.6 94.26 112.8 94.18C112.86 93.72 113.12 93 113.28 92.64C110.92 92.8 106.42 92.86 104.24 92.78C101.94 92.68 100.16 92 99.22 90.52ZM95.18 77.6C96.48 78.48 97.98 79.84 98.62 80.8L99.8 79.82C99.1 78.84 97.6 77.54 96.28 76.7L95.18 77.6ZM103.22 85.52H109.88V87.18H103.22V85.52ZM103.22 88.28H109.88V89.96H103.22V88.28ZM103.22 82.76H109.88V84.42H103.22V82.76ZM101.8 81.6V91.12H111.36V81.6H101.8ZM121.8 76.28C120.64 79.38 118.74 82.42 116.72 84.4C116.98 84.74 117.42 85.52 117.58 85.86C119.78 83.6 121.86 80.16 123.22 76.72L121.8 76.28ZM119.76 81.44V94.58H121.22V80L121.2 79.98L119.76 81.44ZM122.52 83.12V84.6H135.1V83.12H122.52ZM128.14 76.42V94.6H129.68V76.42H128.14ZM142.3 92.86L142.4 94.14C145.68 94.08 150.66 93.9 155.38 93.74L155.44 92.58C150.6 92.72 145.5 92.82 142.3 92.86ZM151.78 87.62C150.1 89.34 147.28 91.66 145.12 93.02L146.08 93.68C148.24 92.36 151.04 90.18 153.06 88.34L151.78 87.62ZM148 86.34C147.28 87.26 146 88.54 145.02 89.32L145.96 89.9C146.96 89.18 148.2 88.04 149.22 87.02L148 86.34ZM143.48 89.1C144.9 89.92 146.7 91.18 147.56 91.98L148.6 91C147.68 90.18 145.86 89 144.46 88.22L143.48 89.1ZM151.74 90.7C153.22 91.88 154.92 93.56 155.74 94.66L157 94C156.14 92.86 154.38 91.22 152.92 90.1L151.74 90.7ZM142.6 80.82V81.94H148.84V80.82H142.6ZM149.54 80.82V81.94H156.54V80.82H149.54ZM145.18 79.38V86.7H146.34V79.38H145.18ZM147.44 82.6V85.7H148.38V82.6H147.44ZM152.08 79.38V86.76H153.26V79.38H152.08ZM143.2 82.6V83.36C143.2 84.26 143.08 85.48 142.22 86.26C142.48 86.4 142.88 86.68 143.04 86.9C144 85.88 144.14 84.56 144.14 83.4V82.6H143.2ZM150.08 82.56V83.28C150.08 84.1 149.96 85.24 149.14 85.94C149.4 86.08 149.8 86.38 149.98 86.6C150.88 85.66 151.02 84.4 151.02 83.34V82.56H150.08ZM154.36 82.56V85.14C154.36 85.94 154.42 86.2 154.62 86.4C154.8 86.58 155.12 86.64 155.42 86.64C155.56 86.64 155.94 86.64 156.1 86.64C156.28 86.64 156.54 86.62 156.68 86.54C156.86 86.46 157.02 86.32 157.1 86.12C157.2 85.92 157.24 85.32 157.26 84.8C157.02 84.74 156.7 84.58 156.5 84.44C156.48 84.92 156.46 85.32 156.42 85.48C156.38 85.64 156.34 85.74 156.28 85.78C156.24 85.82 156.1 85.82 156 85.82C155.86 85.82 155.7 85.82 155.62 85.82C155.52 85.82 155.44 85.8 155.4 85.76C155.36 85.7 155.36 85.54 155.36 85.28V82.56H154.36ZM147.8 76.22V78.56H149.34V76.22H147.8ZM141.02 77.9V79.2H156.98V77.9H141.02ZM140.18 77.9V84.08C140.18 86.96 140.06 90.96 138.64 93.8C138.96 93.96 139.56 94.4 139.8 94.66C141.34 91.64 141.58 87.14 141.58 84.08V77.9H140.18ZM180.35 76.2V79.56H181.87V76.2H180.35ZM176.29 78.76V80.14H185.81V78.76H176.29ZM185.67 81.5V82.92H194.37V81.5H185.67ZM178.77 83H183.43V85.68H178.77V83ZM177.37 81.7V86.96H184.89V81.7H177.37ZM180.43 86.42V92.88C180.43 93.1 180.35 93.16 180.13 93.18C179.87 93.2 179.09 93.2 178.17 93.18C178.37 93.56 178.59 94.14 178.65 94.54C179.87 94.54 180.69 94.54 181.21 94.3C181.73 94.06 181.87 93.64 181.87 92.9V86.42H180.43ZM177.75 88.02C177.39 89.62 176.75 91.2 175.89 92.26C176.23 92.46 176.79 92.88 177.05 93.12C177.95 91.94 178.71 90.12 179.13 88.32L177.75 88.02ZM182.91 88.28C183.47 89.34 184.05 90.78 184.29 91.7L185.55 91.24C185.31 90.32 184.71 88.92 184.11 87.86L182.91 88.28ZM190.65 77.38C191.61 78.36 192.55 79.76 192.95 80.72L194.19 80.08C193.79 79.12 192.83 77.78 191.81 76.82L190.65 77.38ZM188.57 76.2V80.4C188.57 84.3 188.21 89.88 183.93 93.78C184.31 93.96 184.93 94.36 185.21 94.64C189.61 90.54 190.03 84.66 190.03 80.4V76.2H188.57ZM189.53 83.92V92.5C189.53 93.52 189.63 93.84 189.99 94.14C190.33 94.4 190.83 94.48 191.29 94.48C191.55 94.48 192.25 94.48 192.55 94.48C192.99 94.48 193.47 94.4 193.75 94.26C194.09 94.06 194.29 93.78 194.43 93.32C194.53 92.9 194.61 91.68 194.63 90.62C194.25 90.5 193.75 90.24 193.45 89.98C193.47 91.08 193.43 92.04 193.39 92.42C193.35 92.66 193.23 92.86 193.09 92.94C192.95 93.02 192.69 93.06 192.45 93.06C192.19 93.06 191.83 93.06 191.63 93.06C191.41 93.06 191.23 93.02 191.11 92.92C190.97 92.86 190.91 92.72 190.91 92.56V83.92H189.53ZM202.43 85.1V94.66H203.87V86.3H212.59V94.66H214.09V85.1H202.43ZM198.41 82.46V83.7H216.07V82.46H198.41ZM199.87 79.78V80.98H214.91V79.78H199.87ZM203.41 87.66V88.72H213.23V87.66H203.41ZM203.41 90.14V91.18H213.23V90.14H203.41ZM203.27 92.66V93.86H213.23V92.66H203.27ZM213.75 76.36C210.57 77.02 204.47 77.3 199.59 77.34C199.73 77.66 199.87 78.18 199.91 78.52C204.85 78.5 210.99 78.2 214.71 77.46L213.75 76.36ZM205.55 77.74C204.49 82.16 202.15 86.54 197.91 88.98C198.21 89.26 198.65 89.82 198.85 90.14C203.33 87.48 205.77 82.9 207.11 78.06L205.55 77.74ZM224.27 85.52H220.17V86.9H222.79V91.36H224.27V85.52ZM224.27 90.56H222.93C221.95 91.42 220.81 92.3 219.91 92.94L220.69 94.44C221.71 93.56 222.69 92.7 223.61 91.84C224.91 93.42 226.73 94.12 229.35 94.24C231.59 94.3 235.81 94.26 238.03 94.18C238.11 93.72 238.33 93.02 238.53 92.68C236.13 92.84 231.55 92.88 229.35 92.82C226.99 92.72 225.23 92.02 224.27 90.56ZM221.03 77.38C222.25 78.06 223.65 79.1 224.31 79.88L225.35 78.86C224.67 78.08 223.23 77.08 222.03 76.46L221.03 77.38ZM220.25 81.46C221.53 82.08 223.01 83.1 223.71 83.86L224.75 82.8C224.01 82.02 222.49 81.06 221.25 80.48L220.25 81.46ZM225.43 79.54V80.66H238.41V79.54H225.43ZM226.99 84.32V85.4H236.99V84.32H226.99ZM226.99 81.96V83.04H236.99V81.96H226.99ZM227.27 77.14V78.22H236.77V77.14H227.27ZM228.29 87.84H235.65V90.2H228.29V87.84ZM226.91 86.74V91.3H237.07V86.74H226.91ZM248.51 92.6V94H260.47V92.6H248.51ZM249.71 88.24V89.6H259.83V88.24H249.71ZM254.03 77.72V93.56H255.45V77.72H254.03ZM251.21 82.18H258.29V84.6H251.21V82.18ZM251.21 78.56H258.29V80.94H251.21V78.56ZM249.81 77.24V85.92H259.73V77.24H249.81ZM244.97 86.02V94.62H246.41V84.32L244.97 86.02ZM242.31 79.96V81.32H247.99V79.96H242.31ZM244.91 76.32V80.74H246.33V76.32H244.91ZM246.25 84.58L245.47 85.24C246.13 86 247.83 88.2 248.41 89.16L249.31 88.14C248.85 87.54 246.83 85.14 246.25 84.58ZM247.51 79.96V80.26C246.47 83.34 244.05 86.56 241.77 88.28C241.99 88.54 242.37 89.22 242.53 89.6C244.97 87.62 247.59 84.1 248.89 80.4L248.07 79.9L247.81 79.96H247.51ZM248.73 83.72C248.33 84.48 247.55 85.6 246.99 86.26L247.73 86.84C248.31 86.22 249.05 85.26 249.67 84.4L248.73 83.72Z" fill="#451515"/>
<g clip-path="url(#clip0_603_46)">
<path d="M27.7664 10.0752L18.2604 8.44531C22.3906 16.4155 15.2426 26.8552 4.86523 28.0093L16.4105 32.3326L4.93605 45.5006C7.82862 46.6837 11.2295 46.3989 14.4554 46.3724C17.6812 46.3459 21.2788 46.7597 23.316 48.8318C25.3531 50.9039 24.0858 54.9294 20.8599 54.9056C27.0714 58.3817 36.7747 56.1228 39.8909 50.4753C45.3182 51.2904 51.1493 47.9256 52.1072 43.4259C53.0652 38.9263 48.9753 34.1122 43.5388 33.3403C47.6493 33.1861 51.8945 32.5871 55.274 30.6427C58.6535 28.6983 60.933 25.1294 59.8744 21.8356C58.8157 18.5419 53.6828 16.3528 50.231 18.208L58.5616 13.8503C45.9794 13.371 34.2076 11.1796 27.7664 10.0752Z" fill="#F8B62B" fill-opacity="0.6"/>
<path d="M55.733 27.5656C55.3508 27.033 54.9787 26.4951 54.6323 25.946C57.9379 23.1649 61.1549 20.2499 63.3967 16.7941C64.4012 15.0439 65.3647 13.0793 64.8628 11.1175C64.211 9.03295 61.5779 7.88267 59.0899 8.07518C55.4411 8.52967 52.0772 9.98226 48.4707 10.6364C44.9012 11.4284 43.9127 11.2312 43.6202 11.141C43.5978 11.1314 43.5785 11.1173 43.5564 11.1072C43.4795 11.0054 43.4079 10.9016 43.3435 10.7939C43.3329 10.7716 43.3263 10.7568 43.3134 10.7301C42.5955 8.51955 42.0756 6.26769 41.3358 4.06119C40.8845 2.81353 40.5233 1.47181 39.5064 0.444409C39.1979 0.173386 38.7728 0.014024 38.3234 0.000882102C37.874 -0.0122598 37.4364 0.121877 37.1056 0.374205C35.9218 1.64655 36.2506 3.54607 35.8852 4.7351C35.3781 7.9192 34.8675 11.1036 34.4033 14.2919C35.5888 11.3937 36.7698 8.37179 37.8744 5.42895C37.9692 6.55271 38.0227 7.77191 38.1773 9.17902C38.3124 12.1297 39.0799 14.9095 43.0096 15.6872C46.8814 16.2821 50.7998 15.4236 54.6095 14.8695C55.0356 14.8 55.4588 14.7184 55.8831 14.6411C54.1532 16.713 53.9363 16.8916 50.9155 19.5485C49.6107 20.6725 48.1217 21.6626 47.0554 22.9609C44.5386 26.4022 48.2006 29.9258 50.0859 32.9261C51.6707 35.2313 53.4465 37.4519 55.0335 39.756C54.5454 39.8569 54.0512 39.9355 53.5544 40.0025C53.4591 40.0105 53.3638 40.0185 53.2684 40.0264C47.229 40.1516 44.9742 40.5483 41.5591 44.9214C38.6986 48.4445 36.4324 52.275 33.731 55.8767C33.7124 55.8359 33.6976 55.8034 33.6775 55.7589C32.1848 52.7603 31.8422 49.4461 30.209 46.5026C27.4283 42.5392 21.9917 43.2183 17.643 44.8131C16.2793 45.2271 14.927 45.6857 13.5675 46.1273C14.2325 45.3756 14.9043 44.6282 15.5829 43.8851C15.8237 43.6246 15.9698 43.4667 16.0502 43.3798C18.5698 40.7291 21.8941 37.7397 20.3173 34.1798C18.628 29.7058 13.7084 27.2533 9.32749 24.636C9.94752 24.281 10.7188 24.0461 12.6625 23.221C15.4885 21.9147 16.7583 19.1693 16.9377 16.6042C17.1041 15.1928 16.8151 13.774 16.9625 12.3645C16.9796 12.3015 17.0015 12.2286 17.0285 12.1509L17.0429 12.1315C17.1382 12.127 17.2327 12.1146 17.3282 12.1159C21.2859 12.1512 25.9949 13.8892 30.7837 16.0717C32.2207 16.7313 33.6348 17.424 35.0258 18.1499C33.0749 16.3784 30.9792 14.7201 28.7536 13.1868C25.1403 10.7703 17.0578 5.8309 12.9114 9.50654C11.3973 10.9078 11.2225 12.8393 10.9687 14.632C10.8355 15.3271 10.6586 16.016 10.4387 16.6959C10.2674 16.999 10.086 17.2988 9.88415 17.5884C9.87874 17.5958 9.87197 17.6023 9.86646 17.6096C9.78877 17.6798 9.70003 17.7404 9.61633 17.8058C5.13209 18.8986 -0.923287 21.3306 0.118271 25.8932C0.62325 27.7573 2.35932 29.1751 4.1073 30.3269C6.01332 31.6183 7.94112 32.8906 9.75692 34.2695C10.0975 34.5295 10.4198 34.8057 10.7284 35.0919C10.9693 35.3912 11.1877 35.7026 11.3823 36.0241C11.0225 36.4937 10.6077 36.9367 10.2098 37.383C8.32854 39.3847 6.45603 41.3924 4.6804 43.4598C2.73837 45.6461 0.858907 48.3228 1.59238 51.1285C4.78493 59.0536 15.8821 53.0623 22.1404 51.4681C22.2942 51.428 22.4497 51.392 22.6041 51.3534C23.6519 54.5152 24.5009 57.753 26.4008 60.6537C29.4091 65.0034 34.7932 66.8482 39.2279 62.5867C43.4081 58.0271 46.065 52.6376 50.0716 47.9749C50.1714 47.8748 50.2749 47.7777 50.3802 47.6821C54.7639 47.4616 59.6848 47.2343 63.0823 44.6796C65.316 42.719 65.1738 39.684 63.5518 37.476C62.0187 35.237 58.7788 31.7275 55.733 27.5656Z" fill="black"/>
</g>
<defs>
<clipPath id="clip0_603_46">
<rect width="65" height="65" fill="white"/>
</clipPath>
</defs>
</svg>
