<svg width="180" height="120" viewBox="0 0 180 120" fill="none" xmlns="http://www.w3.org/2000/svg">
<g clip-path="url(#clip0_720_20)">
<path d="M179.169 118.403C179.169 119.288 165.34 120.011 148.276 120.011C131.212 120.011 117.383 119.288 117.383 118.403C117.383 117.518 131.212 116.795 148.276 116.795C165.34 116.795 179.169 117.518 179.169 118.403Z" fill="#CFBF8B"/>
<path d="M61.9722 118.403C61.9722 119.288 48.1429 120.011 31.0789 120.011C14.0149 120.011 0.185547 119.288 0.185547 118.403C0.185547 117.518 14.0149 116.795 31.0789 116.795C48.1429 116.795 61.9722 117.518 61.9722 118.403Z" fill="#CFBF8B"/>
<path d="M148.261 115.609C162.863 115.609 174.701 107.432 174.701 97.3463C174.701 87.2603 162.863 79.084 148.261 79.084C133.659 79.084 121.821 87.2603 121.821 97.3463C121.821 107.432 133.659 115.609 148.261 115.609Z" stroke="#092242" stroke-width="2.09" stroke-miterlimit="10"/>
<path d="M148.26 117.474C164.356 117.474 177.404 108.462 177.404 97.3444C177.404 86.2271 164.356 77.2148 148.26 77.2148C132.165 77.2148 119.117 86.2271 119.117 97.3444C119.117 108.462 132.165 117.474 148.26 117.474Z" stroke="#F7AC2D" stroke-width="1.15" stroke-miterlimit="10"/>
<path d="M112.898 97.3452C112.898 83.8535 128.728 72.9199 148.261 72.9199C158.777 72.9199 168.231 76.0932 174.701 81.1228" stroke="#256B62" stroke-width="2" stroke-miterlimit="10"/>
<path d="M107.398 59.1484L149.152 97.2704H101.819" stroke="#609A92" stroke-width="2" stroke-miterlimit="10"/>
<path d="M30.266 115.609C44.8683 115.609 56.7058 107.432 56.7058 97.3463C56.7058 87.2603 44.8683 79.084 30.266 79.084C15.6637 79.084 3.82617 87.2603 3.82617 97.3463C3.82617 107.432 15.6637 115.609 30.266 115.609Z" stroke="#092242" stroke-width="2.09" stroke-miterlimit="10"/>
<path d="M30.2662 117.474C46.3615 117.474 59.4094 108.462 59.4094 97.3444C59.4094 86.2271 46.3615 77.2148 30.2662 77.2148C14.1709 77.2148 1.12305 86.2271 1.12305 97.3444C1.12305 108.462 14.1709 117.474 30.2662 117.474Z" stroke="#F7AC2D" stroke-width="1.15" stroke-miterlimit="10"/>
<path d="M65.6287 97.3452C65.6287 83.8535 49.7992 72.9199 30.2663 72.9199C27.6411 72.9199 25.0783 73.1142 22.6094 73.492" stroke="#256B62" stroke-width="2" stroke-miterlimit="10"/>
<path d="M35.1102 97.2708C35.1102 99.1272 32.9382 100.628 30.2504 100.628C27.5627 100.628 25.3906 99.1272 25.3906 97.2708C25.3906 95.4143 27.5627 93.9141 30.2504 93.9141C32.9382 93.9141 35.1102 95.4143 35.1102 97.2708Z" fill="#006EED"/>
<path d="M30.2666 97.2709L37.4704 91.8526C40.0643 89.899 41.752 87.4489 42.2989 84.8154L50.5809 44.837C50.9559 43.0237 53.0967 41.6313 55.7532 41.491L70.1763 40.7031" stroke="#609A92" stroke-width="2" stroke-linecap="round" stroke-linejoin="round"/>
<path d="M99.8506 97.2693L110.445 46.8105" stroke="#609A92" stroke-width="2" stroke-linecap="round" stroke-linejoin="round"/>
<path d="M46.2207 65.9258L99.8504 93.0817" stroke="#609A92" stroke-width="2" stroke-miterlimit="10"/>
<path d="M94.694 79.752L96.6473 83.8534H87.7559L91.5687 82.5582L89.7092 80.065L94.694 79.752Z" fill="#E68CA3"/>
<path d="M96.0849 40.7122V42.8277C96.0849 42.8277 67.223 49.9729 67.6292 57.1288C68.0355 64.2848 88.3342 80.8741 88.3342 80.8741H96.0849L86.8341 59.158L109.352 49.7138L109.961 37.9707L96.0849 40.7122Z" fill="#092242"/>
<path d="M111.945 109.109H100.804V110.761H111.945V109.109Z" fill="#0B2B52"/>
<path d="M92.3193 84.6855L99.8512 97.2705" stroke="#0B2B52" stroke-width="0.98" stroke-miterlimit="10"/>
<path d="M98.0225 83.8535H86.8809V85.5049H98.0225V83.8535Z" fill="#0B2B52"/>
<path d="M101.726 90.9766L149.152 94.6139V99.7407L100.804 103.648" stroke="#787878" stroke-width="0.68" stroke-miterlimit="10"/>
<path d="M110.445 97.269C110.445 101.317 105.695 104.587 99.8505 104.587C94.0063 104.587 89.2559 101.306 89.2559 97.269C89.2559 93.2323 94.0063 89.9512 99.8505 89.9512C105.695 89.9512 110.445 93.2323 110.445 97.269Z" fill="#006EED"/>
<path d="M153.121 97.2688C153.121 99.1253 150.949 100.626 148.261 100.626C145.573 100.626 143.401 99.1253 143.401 97.2688C143.401 95.4124 145.573 93.9121 148.261 93.9121C150.949 93.9121 153.121 95.4124 153.121 97.2688Z" fill="#006EED"/>
<path d="M99.8506 97.3457L107.398 109.941" stroke="#0B2B52" stroke-width="0.98" stroke-miterlimit="10"/>
<path d="M148.261 97.2703H86.834C86.834 97.2703 87.8653 88.8516 99.8507 88.8516C111.836 88.8516 148.261 93.5251 148.261 93.5251C148.261 93.5251 154.215 93.2552 154.215 97.3027L148.261 97.2596V97.2703Z" fill="#995900"/>
<path d="M110.867 101.469L110.445 109.11H99.3506L105.101 106.952L105.148 101.469H110.867Z" fill="#E68CA3"/>
<path d="M48.4863 54.9824L82.083 70.9457H105.148" stroke="#609A92" stroke-width="2" stroke-miterlimit="10"/>
<path d="M110.445 61.9434H156.121L141.135 89.952" stroke="#609A92" stroke-linecap="round" stroke-linejoin="round"/>
<path d="M159.746 61.3073H122.602C120.07 61.3073 118.023 59.8934 118.023 58.1449C118.023 56.3963 120.07 54.9824 122.602 54.9824H159.746C162.277 54.9824 164.324 56.3963 164.324 58.1449C164.324 59.8934 162.277 61.3073 159.746 61.3073Z" fill="#995900"/>
<path d="M41.5957 46.1531C41.5957 46.1531 55.7844 29.4234 52.5341 28.5276C49.2838 27.6318 39.5174 36.6226 39.5174 36.6226C39.5174 36.6226 43.424 31.1396 40.955 30.9561C38.486 30.7726 35.4858 41.2097 32.3605 41.1234C29.2352 41.037 35.3608 33.4817 32.3605 33.3846C29.3602 33.2982 25.5943 41.3932 25.5943 41.3932C25.5943 41.3932 32.1105 30.1466 28.0632 30.3301C24.0316 30.5136 19.4688 46.1639 19.4688 46.1639H41.6113L41.5957 46.1531Z" fill="#256B62"/>
<path d="M46.9237 43.541L44.111 57.1298H20.3589L14.3115 43.541H46.9237Z" fill="#995900"/>
<path d="M116.711 48.3009H103.195C101.866 48.3009 100.788 47.5562 100.788 46.6387C100.788 45.7213 101.866 44.9766 103.195 44.9766H116.711C118.04 44.9766 119.118 45.7213 119.118 46.6387C119.118 47.5562 118.04 48.3009 116.711 48.3009Z" fill="#995900"/>
<path d="M114.899 36.082C114.899 36.082 121.837 40.0108 120.524 46.8214C119.212 53.632 112.336 102.731 112.336 102.731H100.398L100.804 49.034L98.0225 39.0502L114.915 36.082H114.899Z" fill="#092242"/>
<path d="M73.4883 7.30823L75.4416 10.1793V11.3881H77.1917C77.1917 11.3881 77.8793 13.7518 79.3325 13.9569C80.7858 14.162 83.536 13.6223 84.8955 13.9569C86.255 14.2915 87.3332 17.0654 87.3332 17.0654C87.3332 17.0654 92.9587 16.4825 94.1932 15.2413C95.4277 14.0109 85.6768 5.32227 85.6768 5.32227L73.4727 7.30823H73.4883Z" fill="#E68CA3"/>
<path d="M73.3634 3.24917C78.0982 -0.604042 82.7392 -0.614835 89.7711 1.09051C96.803 2.79585 99.8032 5.86115 109.96 5.22435C120.118 4.59833 119.602 8.37599 116.211 9.8115C112.82 11.247 109.304 14.9383 100.803 14.5821C87.3647 14.0209 86.3177 8.28964 81.5829 7.3938C78.8639 6.88651 77.0513 7.25349 76.0199 7.29666C75.2698 7.31825 74.7385 7.80395 74.8948 8.31123L75.473 10.1785C75.473 10.1785 71.0507 10.0921 70.2069 8.37599C69.3631 6.67065 72.6759 3.83201 73.3947 3.24917H73.3634Z" fill="#823A00"/>
<path d="M90.6773 13.9566C90.6773 13.9566 91.5837 13.0608 94.3183 12.8773C97.0529 12.6938 110.476 13.3738 109.945 14.615C109.429 15.8454 103.569 15.9426 103.178 17.0651C102.788 18.1876 117.367 34.2048 118.023 36.18C118.68 38.1552 110.335 40.2275 103.694 40.724C97.0529 41.2205 94.4433 42.5697 93.537 40.1412C92.6306 37.7127 93.2713 32.7693 90.021 29.2615C86.7707 25.7537 85.2081 22.8719 85.3331 20.0872C85.4581 17.3025 89.0522 14.7337 90.6773 13.9674V13.9566Z" fill="#CA8D8D" fill-opacity="0.58"/>
<path d="M95.2405 18.717C99.5377 19.084 92.6309 32.295 88.5993 36.6123C84.5677 40.9296 64.5034 40.703 64.5034 40.703L58.7686 40.3036C58.7686 40.3036 59.4249 38.2313 63.1908 38.5011C66.9724 38.771 82.9894 34.907 82.9894 34.907C82.9894 34.907 87.1617 26.812 88.7243 23.3042C90.2869 19.7963 92.1152 18.4472 95.2405 18.717Z" fill="#E68CA3"/>
<path d="M14.3115 57.1289H47.8301" stroke="#609A92" stroke-linecap="round" stroke-linejoin="round"/>
</g>
<defs>
<clipPath id="clip0_720_20">
<rect width="179" height="120" fill="white" transform="translate(0.169922)"/>
</clipPath>
</defs>
</svg>
