<svg width="50" height="52" viewBox="0 0 50 52" fill="none" xmlns="http://www.w3.org/2000/svg">
<path d="M36.3376 4.81756C36.3444 4.80896 36.3511 4.80015 36.3579 4.7915C36.3361 4.81532 36.3244 4.82869 36.3376 4.81756Z" fill="#D88B2D"/>
<path d="M43.0565 10.0858C42.5544 8.98839 41.9905 7.9168 41.3671 6.87561C40.3848 5.37913 39.2008 3.66188 37.948 3.72999C37.7012 3.74062 37.4603 3.80428 37.2438 3.91609C37.0273 4.0279 36.841 4.18485 36.6993 4.37488C36.5786 4.50711 36.4687 4.65116 36.3581 4.79153C36.378 4.76988 36.4061 4.73965 36.4356 4.70689C36.305 4.86511 36.1798 5.03499 36.0641 5.20021C35.328 6.25733 34.6547 7.35333 33.8847 8.3902C32.8749 9.79736 30.8185 12.3306 30.6239 12.5647C28.856 14.7624 26.9294 16.9058 25.7305 19.4415C26.9078 18.0422 28.2987 16.834 29.7119 15.6466C28.8274 16.7513 27.9345 17.8502 27.0492 18.9542C27.8159 18.4018 28.5706 17.835 29.3133 17.2538C31.6891 15.4831 33.7879 13.4264 35.982 11.4675C36.7626 10.7835 38.2675 9.43149 38.6169 9.21194C38.6631 9.1999 38.71 9.19024 38.7572 9.18152C38.8471 9.17506 38.9373 9.17352 39.0273 9.17689C39.0299 9.17948 39.0321 9.18237 39.0346 9.18497C39.4632 9.76898 39.8357 10.3866 40.2391 10.9858C40.6087 11.5456 41.0671 12.2051 41.8581 12.1765C43.0389 12.1841 43.6218 10.9378 43.0565 10.0858Z" fill="#D88B2D"/>
<path d="M33.3272 27.6598C32.8685 27.8242 32.453 28.0788 32.0096 28.2758C31.4888 28.5219 31.3583 28.5377 30.5132 28.8789C30.3652 28.9547 30.2267 29.0459 30.1005 29.1509C29.492 29.6735 29.8876 30.4828 29.8695 31.1491C29.8764 31.339 29.8776 31.5289 29.8766 31.7188C29.7709 31.9155 29.6674 32.1132 29.5609 32.3094C29.3287 32.7647 28.9821 33.2028 28.9609 33.7224C29.0372 34.9436 30.1149 35.0469 31.1745 34.9971C32.1482 34.9645 33.1809 34.9854 34.0835 34.6009C34.8313 34.2433 34.9841 33.446 34.9864 32.7269C35.0322 32.0239 35.086 31.3207 35.0913 30.6162C35.0729 29.6083 35.1025 27.4096 33.3272 27.6598Z" fill="#D88B2D"/>
<path d="M49.0883 18.5507C48.5807 16.8102 47.6855 15.1946 46.8808 13.5632C45.8315 11.6129 44.7799 9.64992 43.457 7.8477C42.6509 6.71057 41.7186 5.65689 40.6758 4.70436C39.7511 3.89105 38.7306 3.18341 37.728 2.45699C37.7784 2.36496 37.8286 2.27288 37.8786 2.18074C37.812 2.26094 37.7453 2.34111 37.6786 2.42124C37.4794 2.27665 37.2811 2.13098 37.0839 1.98424C37.2473 2.16468 37.4168 2.34692 37.5885 2.52967C37.5632 2.56005 37.538 2.59043 37.5127 2.62082C35.8852 4.60597 34.1502 6.51136 32.3145 8.32946C29.9764 10.8162 27.6055 13.2749 25.2018 15.7058C23.8817 17.1334 22.3191 18.4011 21.3005 20.0493C21.2085 20.218 21.1241 20.3891 21.0435 20.5615C17.6352 20.6772 14.2245 20.4953 10.8218 20.2879C9.59026 20.1945 8.37148 19.9853 7.13849 19.9083C5.88571 19.845 4.63067 19.902 3.37707 19.9312C3.39436 19.8409 3.41155 19.7507 3.42976 19.6601C3.43445 19.6484 3.43674 19.6423 3.44045 19.6329C3.44581 19.6236 3.45171 19.6147 3.45736 19.6057C3.48756 19.5762 3.53438 19.5308 3.59453 19.4771C3.72576 19.3385 4.54385 18.8332 5.29992 18.4609C9.21177 16.5045 13.1527 14.6013 17.1227 12.7515C17.0353 13.8663 16.9393 14.9804 16.8169 16.0923C17.2076 14.8761 17.5499 13.647 17.8561 12.4098C18.2899 12.2082 18.7223 12.0042 19.1567 11.8038C20.1232 11.3634 21.0872 10.9175 22.0485 10.4661C21.7885 11.7828 21.5667 13.1064 21.3697 14.4337C21.3221 14.7207 21.2766 15.008 21.2331 15.2957C21.3201 15.0695 21.4069 14.8433 21.4934 14.6169C22.0619 13.0505 22.6329 11.4849 23.2065 9.91993C26.4821 8.36548 29.7235 6.74595 32.9079 5.03415C34.4033 4.2078 35.9054 3.38015 37.2856 2.38912C36.3841 2.79609 35.2007 3.3055 34.4592 3.58964C31.0599 4.9304 27.6005 6.13943 24.2401 7.56545C24.1705 7.59524 24.1014 7.62599 24.0318 7.65584C24.1844 7.23687 24.3371 6.81795 24.49 6.39909C24.865 5.11203 26.0192 2.57109 24.9759 1.45417C24.475 1.02574 23.7361 1.18603 23.1159 1.09972C22.1342 1.02577 21.8527 0.941727 21.0136 0.858039C20.3566 0.779936 19.6895 0.826616 19.052 0.995297C18.287 1.18128 17.9799 1.69125 17.9005 2.39581C17.5849 4.11544 17.5353 5.85918 17.477 7.59926C17.4103 8.62737 17.3427 9.65557 17.2744 10.6839C14.3323 12.0504 11.412 13.4589 8.49984 14.8798C7.39599 15.4251 6.30534 15.9936 5.1974 16.5315C4.17547 17.0377 3.11019 17.5175 2.24395 18.2472C1.34021 19.0181 1.46145 20.2856 1.24111 21.326C0.839218 24.1494 0.568911 26.9832 0.397038 29.8267C0.264692 31.5037 0.0041875 33.1735 0 34.8576C0.198328 40.3775 0.436814 45.8968 0.557872 51.4193C1.44331 46.0433 1.85094 40.618 1.96758 35.1821C1.98201 33.6673 2.16657 32.162 2.30831 30.6548C2.43704 29.2213 2.47669 27.783 2.57351 26.3477C2.82322 23.8954 2.98838 21.9837 3.36226 20.0075C4.59055 20.1879 5.82633 20.3283 7.04326 20.5688C8.24618 20.823 9.4214 21.1817 10.6266 21.4283C14.1185 22.0382 16.9249 22.5222 20.3268 22.5818C19.8938 24.2185 19.7174 25.9309 19.3892 27.5792C18.9116 30.4176 18.3495 33.25 18.2385 36.1283C18.06 40.8952 17.8156 45.6596 17.5467 50.4227C18.3334 46.975 19.0238 43.5061 19.5215 40.0106C19.8864 37.5539 20.0824 35.0785 20.4153 32.6182C20.5484 31.7514 21.1312 28.2814 21.4267 26.5368C21.5853 25.4742 21.9121 23.7525 22.2288 22.571C22.2946 22.5692 22.3582 22.5686 22.4245 22.5665C25.2037 22.6796 27.8613 21.8637 30.5666 21.3996C34.6145 20.7424 38.6825 20.2069 42.7156 19.4697C44.0836 19.268 45.4485 19.0497 46.8081 18.8038C46.8354 18.8871 46.8637 18.9712 46.8889 19.0527C47.4835 21.5111 47.6236 23.3756 47.7979 26.8712C47.9316 29.8555 47.793 32.8429 47.864 35.8286C47.8797 40.128 48.09 44.4211 48.4949 48.7079C48.5155 48.9291 48.5364 49.1502 48.5576 49.3713C48.9683 45.2653 49.3274 41.1549 49.6737 37.0437C49.9108 33.9512 50.019 30.8527 49.9984 27.7482C49.9785 24.6698 49.836 21.5582 49.0883 18.5507ZM18.8379 7.76071C19.1891 5.34685 19.2191 4.85683 19.6782 2.50267C19.7335 2.4884 19.7927 2.47429 19.845 2.46494C20.544 2.38812 21.2468 2.48309 21.9401 2.56899C22.5433 2.64381 23.1509 2.68278 23.7594 2.68566C23.7742 3.52426 23.252 5.24398 22.9282 6.65032C22.7801 7.20339 22.6431 7.75858 22.5128 8.315C21.1248 8.92334 19.743 9.54401 18.3675 10.177C18.5371 9.37371 18.6939 8.56828 18.8379 7.76071ZM40.2438 18.706C36.7931 18.9078 33.3236 18.9423 29.8989 19.4273C28.1805 19.6675 26.5 20.0977 24.7873 20.366C23.9141 20.4167 23.6409 20.4151 23.2305 20.4403C23.9487 19.453 24.8183 18.784 25.9337 17.5939C27.8759 15.6637 29.7025 13.6338 31.4049 11.5135C33.6369 8.63653 35.9557 5.79466 37.6517 2.59653C38.6219 3.62623 39.6741 4.67547 40.3699 5.59237C42.3746 8.19919 43.7574 11.6968 44.415 13.1314C44.7783 14.0669 46.0539 16.5775 46.7535 18.6363C44.5834 18.6253 42.4111 18.588 40.2438 18.706Z" fill="black"/>
<path d="M34.2054 39.8329C32.5432 40.0645 30.1219 40.7122 29.2443 42.1642C28.8955 42.8313 28.8757 43.5967 28.7953 44.3235C28.7054 45.3427 28.709 46.3673 28.8062 47.386C28.8113 47.9805 29.6556 48.1908 29.9147 47.6252C29.9671 47.4394 29.9811 47.2458 29.9559 47.055C30.0018 46.5566 30.0773 45.6959 30.163 45.1579C30.1765 45.0699 30.1887 44.9763 30.1922 44.9449C30.2247 44.7197 30.2031 44.8304 30.3205 44.1145C30.4443 43.4315 30.5368 42.9662 30.7108 42.7762C30.8701 42.4698 32.3371 41.7096 33.3909 41.409C33.6837 41.321 33.977 41.2277 34.2761 41.159C34.6641 41.7898 34.8937 43.9679 35.0783 45.4806C35.1833 46.3642 35.2893 47.2477 35.4103 48.1296C35.4426 47.8647 35.4761 47.5995 35.5059 47.3342C35.6678 45.8105 35.7765 44.2796 35.7903 42.7481C35.7279 41.8192 35.8036 39.771 34.2054 39.8329Z" fill="black"/>
<path d="M36.948 26.6457C36.6319 24.2154 35.0279 24.9814 33.2823 25.5931C32.6294 25.8501 31.9557 26.0814 31.3535 26.4352C31.0382 26.6453 30.7028 26.8739 30.5792 27.2343C30.4421 27.6387 30.4642 28.0752 30.3845 28.4913C30.2679 29.3001 29.9843 31.0466 29.8477 32.1738C30.3251 30.8093 30.8161 29.448 31.2238 28.0633C31.2565 27.9353 31.3327 27.7121 31.3601 27.6383C31.4172 27.5482 31.4083 27.5396 31.4732 27.4855C32.0202 27.1707 32.0388 27.202 32.5998 27.0157C33.5329 26.7298 34.4772 26.4728 35.4338 26.2656C35.6763 26.7874 35.6574 27.9542 35.6298 29.1319C35.6058 30.0193 35.6003 30.9082 35.5393 31.7942C35.5398 31.9128 35.5065 32.0294 35.4428 32.1319C35.2181 32.3396 34.5173 32.3537 33.8011 32.4166C33.1275 32.4822 32.4508 32.516 31.7736 32.518C32.0869 32.5981 32.403 32.6693 32.7221 32.7258C33.4072 32.8308 34.0982 32.9114 34.791 32.955C35.3518 32.9999 36.0193 32.8904 36.2903 32.3694C36.6597 31.4389 36.6858 30.4127 36.8449 29.4364C36.9317 28.511 37.0851 27.5725 36.948 26.6457Z" fill="black"/>
</svg>
